<?xml version="1.0" encoding="UTF-8"?>
<svg id="_Слой_1" data-name="Слой 1" xmlns="http://www.w3.org/2000/svg" viewBox="0 0 512 512">
  <defs>
    <style>
      .cls-1 {
        fill: #f3f3f3;
      }

      .cls-1, .cls-2, .cls-3, .cls-4, .cls-5, .cls-6, .cls-7, .cls-8 {
        stroke-width: 0px;
      }

      .cls-2 {
        fill: #fad2cb;
      }

      .cls-3 {
        fill: #86c6ee;
      }

      .cls-4 {
        fill: #8d8c8c;
      }

      .cls-5 {
        fill: #fff;
      }

      .cls-6 {
        fill: #85c7ef;
      }

      .cls-7 {
        fill: #a5a5a5;
      }

      .cls-8 {
        fill: #e8e8e8;
      }
    </style>
  </defs>
  <path class="cls-5" d="m511.91,255.96c0,83.95-.02,167.89.08,251.84,0,3.21-.35,4.21-3.98,4.2-168.06-.12-336.12-.12-504.18-.02-3.18,0-3.8-.79-3.8-3.85C.12,340.06.13,172,0,3.95,0,.22,1.16.02,4.26.03,172.15.11,340.04.11,507.94,0c3.47,0,4.07.75,4.06,4.12-.12,83.95-.09,167.89-.09,251.84ZM84.35,101.06c.24-.26.48-.51.73-.77,14.66-.01,29.31-.03,43.97-.04.23.51.46,1.01.7,1.52-12.15,14-21.31,29.76-27.67,47.16-5.88,16.09-8.84,32.62-7.83,49.82.63,10.72-1.01,21.19-4.1,31.48-5.73,19.13-16.8,34.68-31.58,47.75-11.02,9.75-11.7,23.89-1.07,32.77,3.2,2.67,7.05,4.58,10.65,6.75,7.51,4.52,10.28,10.23,5.31,18.76-3.42,5.87-3.73,11.96,1.09,17.69,1.83,2.17,2.35,5.13,1.13,7.87-3.26,7.32-1.58,13.46,3.78,19.12,1.67,1.77,4,3.63,3.37,6.65-.65,3.13-1.72,6.18-2.23,9.32-1.56,9.64-4.02,19.19-1.54,29.11,4.44,17.78,20.97,28.72,37.53,27.74,7.49-.44,15.02-1.03,22.5-1.89,5.79-.67,11.52-1.98,17.31-2.6,7.92-.85,15.6-3.36,23.63-3.35,7.74.01,11.34,2.79,13,10.2,2.09,9.27,4.26,18.53,6.01,27.87,2.56,13.64,15.48,25.18,30.6,25.03,40.14-.39,80.29.17,120.43-.26,20.41-.22,33.9-16.99,29.34-38.75-2.15-10.25-4.91-20.33-6.68-30.71-2.42-14.17-2.41-28.28-.53-42.27,1.85-13.78,5.91-27.14,12.36-39.67,1.01-1.96,1.73-2.69,3.78-2.68,11.83.06,23.65.05,35.48,0,2.21,0,3.32.49,4.25,2.93,5.35,14.06,20.7,19.93,34.59,12.37,15.16-8.25,15.86-29.54,3.49-39.05-12.85-9.88-31.77-6.35-38.04,10.3-.57,1.51-1,2.78-2.87,2.78-10.72,0-21.45,0-32.5,0,.35-1.1.42-1.58.65-1.97.58-.98,1.18-1.95,1.85-2.86,11.03-14.88,20.57-30.65,27.67-47.79,8.93-21.59,13.62-44.11,14.04-67.49.15-8.06-.97-16.01-1.91-24-1.5-12.82-4.88-25.09-9.73-36.98-7.93-19.43-19.73-36.32-34.34-51.29-1.3-1.33-2.4-2.54-2.39-4.65.08-17.99.07-35.98,0-53.97,0-2.09.92-2.55,2.69-3.25,3.79-1.5,7.53-3.42,10.11-6.72,11.88-15.2,4.05-35.62-14.65-39.34-14.46-2.87-27.66,10.42-27.76,22.34-.1,11.31,5.11,19.14,15.32,23.78,1.65.75,3.76.79,3.74,3.59-.09,15.11-.04,30.22-.04,45.52-2.05-.21-3.37-.99-4.66-2.04-5.56-4.51-11.63-8.33-17.93-11.64-32.45-17.05-67.49-24.54-103.72-27.15-15-1.08-29.9.2-44.77,2.82-21.62,3.81-41.54,11.26-59.15,24.65-2.4,1.82-4.47,4.28-8.53,4.18-16.81-.42-33.64-.24-50.47-.12-3.02.02-4.74-.68-5.76-3.82-1.7-5.28-5.4-9.16-10.27-11.8-17.09-9.26-36.3,3.07-35.84,21.23.32,12.66,11.25,24.06,23.94,23.82,10.69-.21,18.74-6.19,23.53-18.04Z"/>
  <path class="cls-2" d="m129.05,100.25c-14.66.01-29.31.03-43.97.04-.67-.15-.96.06-.73.77-4.79,11.85-12.84,17.84-23.53,18.04-12.68.24-23.61-11.16-23.94-23.82-.46-18.16,18.75-30.49,35.84-21.23,4.87,2.64,8.56,6.52,10.27,11.8,1.01,3.14,2.74,3.84,5.76,3.82,16.82-.12,33.65-.29,50.47.12,4.06.1,6.13-2.36,8.53-4.18,17.6-13.39,37.52-20.84,59.15-24.65,14.86-2.62,29.77-3.9,44.77-2.82,36.23,2.62,71.26,10.1,103.72,27.15,6.3,3.31,12.37,7.13,17.93,11.64,1.29,1.05,2.61,1.83,4.66,2.04,0-15.3-.05-30.41.04-45.52.02-2.81-2.09-2.84-3.74-3.59-10.21-4.64-15.42-12.47-15.32-23.78.11-11.92,13.31-25.21,27.76-22.34,18.7,3.72,26.53,24.14,14.65,39.34-2.58,3.3-6.32,5.22-10.11,6.72-1.77.7-2.7,1.17-2.69,3.25.07,17.99.07,35.98,0,53.97,0,2.11,1.09,3.32,2.39,4.65,14.61,14.98,26.41,31.86,34.34,51.29,4.85,11.88,8.23,24.16,9.73,36.98.94,7.99,2.05,15.95,1.91,24-.42,23.38-5.11,45.9-14.04,67.49-7.09,17.14-16.63,32.9-27.67,47.79-.68.91-1.27,1.88-1.85,2.86-.23.39-.3.87-.65,1.97,11.05,0,21.78,0,32.5,0,1.87,0,2.3-1.27,2.87-2.78,6.27-16.65,25.18-20.17,38.04-10.3,12.38,9.51,11.67,30.81-3.49,39.05-13.89,7.56-29.24,1.68-34.59-12.37-.93-2.44-2.04-2.94-4.25-2.93-11.83.05-23.65.05-35.48,0-2.04,0-2.77.72-3.78,2.68-6.45,12.53-10.51,25.88-12.36,39.67-1.88,13.99-1.89,28.11.53,42.27,1.77,10.38,4.53,20.46,6.68,30.71,4.56,21.76-8.93,38.54-29.34,38.75-40.14.42-80.29-.13-120.43.26-15.11.15-28.03-11.39-30.6-25.03-1.75-9.34-3.93-18.6-6.01-27.87-1.67-7.42-5.26-10.19-13-10.2-8.03-.01-15.71,2.5-23.63,3.35-5.8.62-11.52,1.93-17.31,2.6-7.47.87-15.01,1.45-22.5,1.89-16.57.98-33.09-9.95-37.53-27.74-2.47-9.92-.01-19.47,1.54-29.11.51-3.14,1.58-6.19,2.23-9.32.63-3.02-1.69-4.88-3.37-6.65-5.36-5.66-7.04-11.8-3.78-19.12,1.22-2.74.7-5.7-1.13-7.87-4.83-5.73-4.51-11.82-1.09-17.69,4.97-8.53,2.2-14.24-5.31-18.76-3.6-2.17-7.46-4.08-10.65-6.75-10.62-8.88-9.95-23.02,1.07-32.77,14.78-13.07,25.86-28.63,31.58-47.75,3.08-10.3,4.72-20.77,4.1-31.48-1.01-17.2,1.95-33.73,7.83-49.82,6.36-17.4,15.52-33.16,27.67-47.16.36-.47.72-.95,1.08-1.42-.59-.03-1.18-.07-1.78-.1Zm247.91,58.59c.72.19.98-.1.84-.81.06-13.8.07-27.6.23-41.4.02-1.95-.91-3.04-2.14-4.15-9.81-8.8-20.87-15.71-32.7-21.42-17.29-8.35-35.56-13.4-54.36-17.24-14.29-2.91-28.64-4.72-43.1-5.29-19.34-.77-38.5,1.61-56.87,7.79-9.01,3.04-18.28,6.12-25.83,12.46-.24.28-.72.79-.69.82.63.68,1.29.43,1.94-.02,10.82,0,21.64.04,32.45.01,4.53-.01,6.74,2.12,6.7,6.68-.05,5.66-.01,11.32-.01,16.98,0,5.88,0,11.76,0,18.26,27.05-15.27,54.93-17.36,83.31-9.24,19.85,5.68,36.7,16.95,49.61,33.49,1.39,1.78,2.87,3.35,5.7,3.3,11.64-.23,23.29-.18,34.94-.23Zm11.81-33.42c-.06,11.92-.1,23.84-.17,35.77-.04,6.71-1.54,8.27-8.11,8.29-11.1.03-22.19.02-33.29.03-.24-.06-.65-.23-.69-.16-.34.5.06.61.45.71,4.65,10.58,9.01,21.14,11.51,32.6,3.79,17.37,2.24,34.25-2.83,50.82-6.1,19.95-17.43,36.65-34.11,49.49-1.59,1.23-2.56,2.77-2.53,5.07.17,11.64.15,23.28.19,34.91-.19.71.03,1.05.8.9,14.64.06,29.29.14,43.93.17,5.16.01,11.13,1.51,15.23-.59,3.92-2.01,5.76-7.91,8.73-11.95,21.11-28.68,34.88-60.41,37.88-96.06,1.3-15.5.38-31.14-3.31-46.55-5.67-23.7-16.44-44.58-32.54-62.78-.15-.35-.3-.71-.44-1.06-.23.13-.47.26-.7.39Zm-195.97-24.34c.21-.72-.07-.96-.77-.8-14.49-.06-28.98-.06-43.47-.23-1.98-.02-2.97,1.03-4.16,2.16-5.03,4.78-9.42,10.1-13.56,15.64-17.8,23.81-26.83,50.58-26.67,80.3.04,7.29,0,14.49-1.03,21.73-1.93,13.47-6.81,25.74-13.65,37.42-6.74,11.52-15.89,20.89-25.27,30.15-5.9,5.83-5.55,11.15.98,16.03,1.88,1.4,4.17,2.42,6.27,3.58,13.78,7.61,18.88,18.62,11.56,33.36-1.43,2.88-1.53,5.65.23,7.77,4.65,5.6,4.77,11.47,2.31,17.87-1.08,2.81-.69,5.19,1.61,7.63,4.26,4.52,7.19,9.82,5.91,16.41-.71,3.63-2.07,7.17-2.47,10.83-.83,7.49-3.91,14.75-1.54,22.59,3.49,11.52,14.29,19.6,24.55,19.54,6.14-.03,12.16-.92,18.23-1.31,6.16-.4,12.37-1.07,18.46-2.06,11.14-1.81,22.16-4.16,33.56-3.81,8.28.25,15.7,5.65,18.17,13.69,3.14,10.2,4.84,20.72,6.9,31.15,1.82,9.23,10.23,17.63,18.55,17.63,39.65-.02,79.29-.01,118.94-.03,3.44,0,6.89.13,10.17-1.3,11.52-5.03,15.88-14.26,12.06-26.65-3.68-11.93-6.46-24.13-7.43-36.46-.71-9.06-2.19-18.16-.58-27.55,1.14-6.67,1.6-13.61,2.78-20.35,1.89-10.8,6.08-20.91,10.46-31.29-2.17,0-4,0-5.82,0-17.33,0-34.65.03-51.98-.02-6.54-.02-7.46-.95-7.5-7.49-.06-8.66-.02-17.33-.02-25.99,0-8.35.08-8.16-7.64-4.74-20.64,9.14-41.88,13.13-64.5,8.58-27.41-5.51-49.34-19.39-65.6-41.89-13.52-18.72-20.12-39.83-19.89-63.09.12-12.44,2.76-24.37,7.24-35.71,5.97-15.1,14.73-28.53,27.13-39.47,2.8-2.47,7.63-3.77,7.62-8.85-.04-11.66-.11-23.31-.16-34.97Zm58.02,75.56v-38.46q0-10.27-9.92-9.12c-.16.02-.34-.02-.5.01-22.56,4.6-41.99,14.45-56.7,32.79-17.89,22.3-25.56,47.17-20.63,75.66,4.5,26.05,17.59,46.66,39,61.93,21.41,15.27,45.5,19.67,71.02,15.33,15.59-2.65,29.53-9.87,42.13-19.51,2.88-2.2,2.99-3.7.19-6.47-20.62-20.34-40.99-40.94-61.57-61.33-2.21-2.19-3.08-4.37-3.06-7.37.1-14.48.04-28.97.04-43.45Zm13.98,46.92c19.85,19.8,39.53,39.4,59.12,59.07,1.93,1.94,3.02,1.18,4.34-.45,8.11-9.91,14.39-20.88,17.67-33.26,3.08-11.64,4.92-23.37,3.28-35.68-1.13-8.42-2.92-16.53-5.41-24.57-.7-2.27-1.69-2.89-4.15-1.68-24.78,12.2-49.64,24.27-74.86,36.56Zm-3.6-9.92c25.17-12.32,49.48-24.25,73.83-36.09,2.18-1.06,2.33-1.73,1.14-3.94-5.09-9.46-12.29-17.22-20.33-23.96-14.73-12.34-32.18-18.76-51.14-21.29-2.43-.32-3.58-.08-3.57,2.9.11,27.12.06,54.24.06,82.39Zm202.73,135.68c.42-8.03-5.94-13.2-13.14-13.32-8.33-.15-13.27,5.54-13.78,13.21-.45,6.79,6.36,13.47,13.05,13.8,6.82.33,15.06-6.25,13.87-13.68ZM395.95,27.47c0-8.62-4.85-12.94-13.52-13.52-7.08-.47-13.04,6.87-13.36,13.21-.35,6.8,7.45,14.43,14.11,13.82,6.09-.56,13.55-4.77,12.77-13.51ZM60.8,82.07c-8.07,0-14.1,5.51-13.62,13.1.4,6.2,4.91,13.39,13.54,12.97,8.35-.41,13.39-5.53,13.37-14.49-.01-6.76-5.55-11.58-13.29-11.58Z"/>
  <path class="cls-1" d="m129.05,100.25c.59.03,1.18.07,1.78.1-.36.47-.72.95-1.08,1.42-.23-.51-.46-1.01-.7-1.52Z"/>
  <path class="cls-1" d="m84.35,101.06c-.23-.7.05-.92.73-.77-.24.26-.48.51-.73.77Z"/>
  <path class="cls-2" d="m192.8,101.07c.06,11.66.12,23.31.16,34.97.02,5.07-4.81,6.37-7.62,8.85-12.4,10.95-21.16,24.37-27.13,39.47-4.48,11.34-7.12,23.27-7.24,35.71-.23,23.26,6.37,44.37,19.89,63.09,16.26,22.5,38.18,36.38,65.6,41.89,22.62,4.55,43.86.56,64.5-8.58,7.72-3.42,7.64-3.61,7.64,4.74,0,8.66-.04,17.33.02,25.99.04,6.54.96,7.47,7.5,7.49,17.33.04,34.65.02,51.98.02,1.82,0,3.65,0,5.82,0-4.38,10.38-8.57,20.5-10.46,31.29-1.18,6.74-1.64,13.68-2.78,20.35-1.6,9.39-.13,18.5.58,27.55.97,12.33,3.75,24.53,7.43,36.46,3.82,12.38-.54,21.62-12.06,26.65-3.28,1.43-6.73,1.3-10.17,1.3-39.65.02-79.29,0-118.94.03-8.32,0-16.73-8.4-18.55-17.63-2.06-10.43-3.76-20.95-6.9-31.15-2.47-8.04-9.89-13.44-18.17-13.69-11.39-.34-22.42,2-33.56,3.81-6.09.99-12.31,1.66-18.46,2.06-6.07.39-12.1,1.28-18.23,1.31-10.26.05-21.07-8.02-24.55-19.54-2.37-7.84.71-15.1,1.54-22.59.4-3.65,1.76-7.19,2.47-10.83,1.28-6.59-1.65-11.89-5.91-16.41-2.29-2.44-2.69-4.82-1.61-7.63,2.46-6.4,2.34-12.27-2.31-17.87-1.76-2.12-1.66-4.9-.23-7.77,7.32-14.75,2.22-25.75-11.56-33.36-2.1-1.16-4.39-2.18-6.27-3.58-6.54-4.88-6.88-10.2-.98-16.03,9.38-9.26,18.54-18.63,25.27-30.15,6.84-11.69,11.72-23.95,13.65-37.42,1.04-7.24,1.07-14.44,1.03-21.73-.16-29.72,8.87-56.49,26.67-80.3,4.14-5.54,8.54-10.87,13.56-15.64,1.19-1.13,2.18-2.18,4.16-2.16,14.49.17,28.98.18,43.47.23.26.27.52.53.77.8Z"/>
  <path class="cls-6" d="m250.82,176.63c0,14.48.05,28.97-.04,43.45-.02,3.01.86,5.19,3.06,7.37,20.57,20.39,40.94,40.99,61.57,61.33,2.81,2.77,2.69,4.27-.19,6.47-12.61,9.64-26.54,16.86-42.13,19.51-25.52,4.34-49.61-.06-71.02-15.33-21.41-15.27-34.5-35.88-39-61.93-4.93-28.49,2.74-53.36,20.63-75.66,14.71-18.34,34.15-28.18,56.7-32.79.16-.03.33,0,.5-.01q9.92-1.15,9.92,9.12c0,12.82,0,25.64,0,38.46Z"/>
  <path class="cls-2" d="m347.2,169.5c11.1,0,22.19,0,33.29-.03,6.57-.02,8.07-1.57,8.11-8.29.06-11.92.11-23.84.17-35.77.38.22.77.45,1.15.67,16.1,18.21,26.87,39.08,32.54,62.78,3.69,15.41,4.61,31.04,3.31,46.55-2.99,35.65-16.77,67.37-37.88,96.06-2.97,4.03-4.81,9.94-8.73,11.95-4.1,2.1-10.08.61-15.23.59-14.64-.03-29.29-.11-43.93-.17-.27-.3-.54-.6-.8-.9-.05-11.64-.03-23.28-.19-34.91-.03-2.3.94-3.85,2.53-5.07,16.68-12.84,28.01-29.54,34.11-49.49,5.07-16.57,6.62-33.45,2.83-50.82-2.5-11.46-6.86-22.02-11.51-32.6l.32-.18-.07-.36Z"/>
  <path class="cls-2" d="m163.01,88.79c7.55-6.34,16.81-9.42,25.83-12.46,18.37-6.19,37.53-8.56,56.87-7.79,14.46.57,28.81,2.38,43.1,5.29,18.8,3.83,37.07,8.89,54.36,17.24,11.83,5.71,22.89,12.62,32.7,21.42,1.24,1.11,2.17,2.2,2.14,4.15-.16,13.8-.17,27.6-.23,41.4-.28.27-.56.54-.84.81-11.65.05-23.3,0-34.94.23-2.83.06-4.3-1.51-5.7-3.3-12.92-16.55-29.76-27.82-49.61-33.49-28.38-8.12-56.26-6.03-83.31,9.24,0-6.5,0-12.38,0-18.26,0-5.66-.04-11.32.01-16.98.04-4.56-2.17-6.69-6.7-6.68-10.82.03-21.64,0-32.45-.01-.42-.27-.83-.53-1.25-.8Z"/>
  <path class="cls-3" d="m264.8,223.55c25.22-12.29,50.07-24.36,74.86-36.56,2.46-1.21,3.44-.59,4.15,1.68,2.49,8.04,4.28,16.15,5.41,24.57,1.65,12.31-.19,24.04-3.28,35.68-3.28,12.39-9.56,23.35-17.67,33.26-1.33,1.62-2.41,2.39-4.34.45-19.6-19.68-39.28-39.27-59.12-59.07Z"/>
  <path class="cls-3" d="m261.2,213.63c0-28.15.05-55.27-.06-82.39-.01-2.98,1.14-3.23,3.57-2.9,18.96,2.53,36.41,8.96,51.14,21.29,8.05,6.74,15.24,14.5,20.33,23.96,1.19,2.21,1.04,2.88-1.14,3.94-24.36,11.84-48.67,23.77-73.83,36.09Z"/>
  <path class="cls-3" d="m463.93,349.31c1.19,7.43-7.05,14.01-13.87,13.68-6.69-.32-13.5-7.01-13.05-13.8.51-7.67,5.44-13.35,13.78-13.21,7.2.13,13.56,5.29,13.14,13.32Z"/>
  <path class="cls-3" d="m395.95,27.47c.78,8.73-6.68,12.95-12.77,13.51-6.66.61-14.46-7.02-14.11-13.82.33-6.33,6.28-13.68,13.36-13.21,8.67.58,13.51,4.89,13.52,13.52Z"/>
  <path class="cls-3" d="m60.8,82.07c7.74,0,13.27,4.82,13.29,11.58.02,8.97-5.01,14.09-13.37,14.49-8.63.42-13.14-6.77-13.54-12.97-.48-7.6,5.55-13.1,13.62-13.1Z"/>
  <path class="cls-7" d="m163.01,88.79c.42.27.83.53,1.25.8-.65.45-1.31.7-1.94.02-.03-.03.45-.54.69-.82Z"/>
  <path class="cls-8" d="m192.8,101.07c-.26-.27-.52-.53-.77-.8.7-.16.98.09.77.8Z"/>
  <path class="cls-4" d="m389.92,126.09c-.38-.22-.77-.45-1.15-.67.23-.13.47-.26.7-.39.15.35.3.71.44,1.06Z"/>
  <path class="cls-1" d="m376.96,158.84c.28-.27.56-.54.84-.81.14.71-.12.99-.84.81Z"/>
  <path class="cls-7" d="m347.2,169.5l.07.36-.32.18c-.39-.09-.78-.21-.45-.71.05-.07.45.1.69.16Z"/>
  <path class="cls-8" d="m319.19,342.95c.27.3.54.6.8.9-.78.15-1-.19-.8-.9Z"/>
</svg>