<?xml version="1.0" encoding="UTF-8"?>
<svg id="_Слой_1" data-name="Слой 1" xmlns="http://www.w3.org/2000/svg" viewBox="0 0 512 512">
  <defs>
    <style>
      .cls-1 {
        fill: #fad2cb;
      }

      .cls-1, .cls-2, .cls-3, .cls-4, .cls-5, .cls-6, .cls-7 {
        stroke-width: 0px;
      }

      .cls-2 {
        fill: #38ab4d;
      }

      .cls-3 {
        fill: #86c6ee;
      }

      .cls-4 {
        fill: #fff;
      }

      .cls-5 {
        fill: #d9d9d9;
      }

      .cls-6 {
        fill: #212120;
      }

      .cls-6, .cls-7 {
        opacity: 0;
      }

      .cls-7 {
        fill: #21201f;
      }
    </style>
  </defs>
  <path class="cls-4" d="m511.91,302.97c0,68.27-.03,136.55.08,204.82,0,3.2-.35,4.21-3.98,4.2-168.03-.12-336.06-.12-504.09,0-3.72,0-3.92-1.15-3.92-4.25.09-98.91.07-197.82.07-296.74,1.46.81,1.46,3.23,3.94,3.07,2.97-.19,5.98.09,8.97.28,4.27.27,9.95-1.88,12.41.93,2.09,2.4.61,7.93.67,12.08.15,8.71,7.91,16.06,16.64,16.03,17.32-.07,34.64.09,51.96-.02,2.94-.02,4.11.64,4.19,3.81.16,6.52,2.03,12.78,3.83,18.99,4.26,14.73,12.49,27.32,21.51,39.47,8.44,11.36,16.64,22.89,21.95,36.14,5.88,14.66,8.98,29.93,11.05,45.58,1.68,12.74,2.25,25.52,2.58,38.28.16,6.5-.72,13.15-.78,19.75-.02,2.29-.15,4.53-.56,6.85-1.16,6.56-1.96,13.23-2.29,19.88-.35,7.07,1.08,8.31,8.32,8.31,72.11.03,144.23.02,216.34,0,6.02,0,8.37-2.4,8.38-8.43.03-15.82.14-31.64-.08-47.46-.05-3.86.89-4.96,4.89-5.01,16.08-.2,32.29,1.69,48.17-2.57,13.46-3.61,24.54-10.24,29.71-23.94,4.61-12.22,5.62-24.75,4.29-37.87-1.16-11.38-1.57-22.86-3.2-34.23-.16-1.13-.62-2.81,1.6-2.91,2.95-.13,5.45-1.87,8.45-2.17,11.01-1.09,22.11-2.24,28.89-12.9Z"/>
  <path class="cls-4" d="m.07,138.04V.09c169.11,0,338.22.01,507.33-.09,3.75,0,4.6.84,4.59,4.59-.12,96.79-.09,193.59-.09,290.38-2.3-3.78-3.36-8.13-6.13-11.78-10.38-13.73-19.54-28.28-28.27-43.11-1.01-1.72-2.14-3.45-1.51-5.5,1.86-6.05,1.18-12.35,1.71-18.5.87-9.99-.62-20.01-1.72-30-2.01-18.2-7.17-35.43-15.09-51.85-9.31-19.32-22.05-36.05-37.82-50.67-12.39-11.49-26.08-20.93-40.95-28.72-26.65-13.95-55.31-20.65-85.13-22.73-16.66-1.16-33.3-.1-49.65,3.09-20.12,3.92-39.49,10.28-57.49,20.38-19.6,11-37.15,24.48-50.43,42.82-4.15,5.74-8.68,7.74-15.86,7.6-26.31-.52-52.63-.24-78.95-.19-9.9.02-14.49,3.2-17.93,12.1-1.48,3.84-.68,7.88-.53,11.77.16,3.98-.65,5.69-5.07,5.27-4.62-.44-9.32,0-13.98-.13-2.96-.08-5.29.87-7.06,3.22Z"/>
  <path class="cls-6" d="m.07,138.04c1.77-2.35,4.11-3.3,7.06-3.22,4.66.13,9.36-.31,13.98.13,4.42.42,5.23-1.29,5.07-5.27-.16-3.89-.96-7.93.53-11.77,3.44-8.9,8.02-12.08,17.93-12.1,26.32-.06,52.64-.34,78.95.19,7.18.14,11.71-1.87,15.86-7.6,13.27-18.34,30.83-31.82,50.43-42.82,18-10.1,37.37-16.46,57.49-20.38,16.35-3.19,32.99-4.26,49.65-3.09,29.82,2.08,58.48,8.78,85.13,22.73,14.87,7.79,28.56,17.23,40.95,28.72,15.77,14.62,28.5,31.36,37.82,50.67,7.91,16.42,13.07,33.65,15.09,51.85,1.1,9.99,2.59,20.01,1.72,30-.53,6.15.14,12.45-1.71,18.5-.63,2.05.5,3.79,1.51,5.5,8.72,14.83,17.89,29.38,28.27,43.11,2.76,3.66,3.82,8,6.13,11.78v8c-6.78,10.66-17.88,11.81-28.89,12.9-3,.3-5.5,2.04-8.45,2.17-2.22.1-1.76,1.78-1.6,2.91,1.63,11.36,2.04,22.84,3.2,34.23,1.34,13.12.32,25.66-4.29,37.87-5.17,13.71-16.26,20.33-29.71,23.94-15.88,4.26-32.09,2.37-48.17,2.57-4,.05-4.95,1.14-4.89,5.01.22,15.82.11,31.64.08,47.46-.01,6.03-2.36,8.43-8.38,8.43-72.11.02-144.23.02-216.34,0-7.24,0-8.67-1.25-8.32-8.31.33-6.66,1.14-13.32,2.29-19.88.41-2.32.54-4.57.56-6.85.05-6.6.94-13.25.78-19.75-.32-12.76-.89-25.54-2.58-38.28-2.07-15.65-5.17-30.92-11.05-45.58-5.31-13.25-13.51-24.78-21.95-36.14-9.03-12.15-17.26-24.74-21.51-39.47-1.8-6.22-3.67-12.48-3.83-18.99-.08-3.17-1.25-3.83-4.19-3.81-17.32.11-34.64-.05-51.96.02-8.73.03-16.5-7.31-16.64-16.03-.07-4.15,1.42-9.68-.67-12.08-2.45-2.81-8.14-.66-12.41-.93-2.99-.19-6-.47-8.97-.28-2.48.16-2.48-2.27-3.94-3.07v-72.97Zm148.65-32.24c2.53,0,4.15,0,5.76,0,19.66,0,39.31.08,58.97-.03,12.49-.07,19.61,6.97,19.61,19.56,0,32.48-.24,64.97.12,97.44.15,13.5-7.68,20.87-20.75,20.75-29.65-.26-59.3-.08-88.95-.08-3.66,0-7.33,0-10.99,0-1.4,0-2.81,0-2.31,2.09,1.26,5.31,2.41,10.65,3.8,15.92,4.4,16.72,14.66,30.12,24.69,43.69,8.9,12.04,16.42,24.88,21.36,39.12,9.16,26.38,10.88,53.83,12,81.4.24,5.98-1.43,11.78-1.08,17.78.38,6.56-.79,13.05-1.84,19.53-.47,2.9-.83,5.62,4.12,5.6,66.63-.17,133.27-.14,199.9-.04,3.38,0,4.14-1.04,4.11-4.23-.15-15.99-.09-31.98-.06-47.97.01-7.5,1.15-8.48,8.74-8.68,15.06-.39,30.19,1.3,45.17-.82,23.98-3.38,32.32-14.36,33.85-36.43.59-8.47-.57-16.86-1.24-25.23-.28-3.53-.41-7.17-.99-10.72-1.14-6.97-1.98-13.96-1.78-21.05.08-2.9,1.83-4.78,4.29-5.32,8.52-1.85,16.66-5.04,25.64-5.37,6.93-.25,11.52-3,5.63-11.72-.73-1.08-1.47-2.14-2.24-3.18-10.18-13.68-19.77-27.75-27.77-42.84-1.79-3.37-3.6-7.04-2.41-10.76,1.69-5.3,1.08-10.76,1.59-16.07,1.32-13.79-.23-27.73-3.03-41.18-6.79-32.59-21.98-60.67-46.67-83.62-14.48-13.46-30.64-24-48.44-32.2-22.42-10.33-46.18-15.34-70.71-17.07-15.69-1.1-31.2.11-46.68,2.93-23.15,4.22-44.74,12.42-64.42,25.19-13.78,8.94-26.63,19.17-36.99,33.6Zm-19.17,12.01c-27.8,0-55.6,0-83.4,0-7.58,0-7.95.38-7.95,7.9,0,32.29,0,64.59,0,96.88,0,8.33.47,8.83,8.66,8.83,55.27,0,110.54,0,165.81,0,7.39,0,8.39-1,8.39-8.24,0-32.46,0-64.92,0-97.38,0-6.64-1.36-7.99-8.1-7.99-27.8-.01-55.6,0-83.4,0ZM12.07,174c0,5.98,0,11.96,0,17.95,0,10.26,0,10.11,10.38,10.16,3.13.01,3.84-.84,3.8-3.87-.17-13.62-.07-27.25-.07-40.88,0-10.89,0-10.8-11.15-10.39-2.42.09-3.05.76-3.01,3.11.13,7.97.05,15.95.05,23.93Z"/>
  <path class="cls-1" d="m148.72,105.8c10.36-14.43,23.21-24.66,36.99-33.6,19.68-12.76,41.27-20.97,64.42-25.19,15.48-2.82,30.99-4.03,46.68-2.93,24.52,1.73,48.28,6.74,70.71,17.07,17.8,8.2,33.96,18.74,48.44,32.2,24.69,22.94,39.89,51.02,46.67,83.62,2.8,13.45,4.35,27.39,3.03,41.18-.51,5.31.1,10.77-1.59,16.07-1.19,3.72.62,7.39,2.41,10.76,8.01,15.09,17.59,29.16,27.77,42.84.77,1.04,1.52,2.11,2.24,3.18,5.89,8.72,1.3,11.47-5.63,11.72-8.98.33-17.12,3.52-25.64,5.37-2.46.53-4.21,2.41-4.29,5.32-.2,7.09.64,14.08,1.78,21.05.58,3.55.7,7.18.99,10.72.67,8.37,1.83,16.76,1.24,25.23-1.53,22.08-9.87,33.05-33.85,36.43-14.98,2.11-30.11.43-45.17.82-7.59.2-8.73,1.18-8.74,8.68-.02,15.99-.09,31.98.06,47.97.03,3.2-.73,4.24-4.11,4.23-66.63-.1-133.27-.13-199.9.04-4.95.01-4.59-2.7-4.12-5.6,1.04-6.48,2.22-12.97,1.84-19.53-.35-6,1.32-11.8,1.08-17.78-1.12-27.56-2.84-55.01-12-81.4-4.94-14.25-12.46-27.08-21.36-39.12-10.03-13.57-20.29-26.97-24.69-43.69-1.39-5.28-2.54-10.61-3.8-15.92-.5-2.09.91-2.09,2.31-2.09,3.66,0,7.33,0,10.99,0,29.65,0,59.31-.18,88.95.08,13.07.11,20.9-7.26,20.75-20.75-.36-32.48-.11-64.96-.12-97.44,0-12.58-7.13-19.63-19.61-19.56-19.66.11-39.31.03-58.97.03-1.61,0-3.23,0-5.76,0Z"/>
  <path class="cls-3" d="m129.54,117.81c27.8,0,55.6,0,83.4,0,6.74,0,8.1,1.35,8.1,7.99,0,32.46,0,64.92,0,97.38,0,7.24-1.01,8.24-8.39,8.24-55.27,0-110.54,0-165.81,0-8.2,0-8.66-.49-8.66-8.83,0-32.29,0-64.59,0-96.88,0-7.52.37-7.9,7.95-7.9,27.8-.01,55.6,0,83.4,0Zm-79.34,56.66c0,12.64-.05,25.28.02,37.92.03,5.65,1.41,7.12,6.96,7.25,6.98.16,13.97.15,20.96,0,5.34-.1,7.65-2.33,7.67-7.58.08-24.95.07-49.9,0-74.85-.01-5.37-2.17-7.49-7.51-7.59-6.82-.12-13.64-.11-20.46,0-5.78.08-7.62,2.03-7.63,7.92-.03,12.31,0,24.62,0,36.93Zm81.64.11c0,12.31-.02,24.62,0,36.94.02,6.65,1.43,8.07,8.19,8.15,6.32.08,12.65.07,18.97,0,5.71-.07,8.12-2.51,8.13-8.18.02-24.62.02-49.25,0-73.87,0-5.76-2.26-7.96-8.17-8-6.32-.05-12.65-.06-18.97,0-7.15.06-8.13,1.03-8.15,8.03-.04,12.31-.01,24.62-.01,36.94Zm-40.8-.18c0,12.65-.03,25.3.01,37.95.02,5.55,1.5,7.17,6.98,7.29,6.99.15,13.98.14,20.97,0,5.1-.1,7.42-2.5,7.44-7.69.06-24.97.06-49.93,0-74.9-.01-5.26-2.25-7.36-7.62-7.43-6.66-.09-13.32-.09-19.97,0-6.58.08-7.78,1.32-7.79,7.83-.02,12.32,0,24.63,0,36.95Zm82.65.21c0,12.48-.04,24.95.02,37.43.03,5.78,1.6,7.48,7.28,7.61,6.82.16,13.64.12,20.46.01,4.89-.08,7.56-2.76,7.57-7.72.06-24.95.06-49.9,0-74.85-.01-5-2.59-7.4-7.68-7.46-6.65-.07-13.31-.08-19.96,0-6.36.08-7.63,1.31-7.66,7.56-.07,12.48-.02,24.95-.02,37.43Z"/>
  <path class="cls-3" d="m25.07,174c0-7.98.08-15.95-.05-23.93-.04-2.35.59-3.02,3.01-3.11,11.15-.4,11.15-.5,11.15,10.39,0,13.63-.1,27.25.07,40.88.04,3.03-.67,3.89-3.8,3.87-10.38-.05-10.38.1-10.38-10.16,0-5.98,0-11.96,0-17.95Z"/>
  <path class="cls-7" d="m50.2,174.47c0-12.31-.02-24.62,0-36.93.02-5.88,1.85-7.83,7.63-7.92,6.82-.1,13.64-.12,20.46,0,5.34.1,7.5,2.22,7.51,7.59.07,24.95.07,49.9,0,74.85-.02,5.25-2.33,7.47-7.67,7.58-6.98.14-13.97.15-20.96,0-5.55-.13-6.93-1.6-6.96-7.25-.07-12.64-.02-25.28-.02-37.92Zm12.13,32.48c0,.25.02.5.02.75.25-.22.5-.43.75-.65,1.83-.01,3.71-.29,5.49.02,4.57.78,5.42-1.15,5.35-5.42-.26-17.32-.11-34.65-.11-51.98,0-7.83,0-7.71-7.98-7.69-2.68,0-3.75.5-3.73,3.5.18,20.49.15,40.98.2,61.47Z"/>
  <path class="cls-7" d="m131.84,174.58c0-12.31-.03-24.62.01-36.94.02-7,1-7.96,8.15-8.03,6.32-.06,12.65-.05,18.97,0,5.91.05,8.16,2.24,8.17,8,.02,24.62.02,49.25,0,73.87,0,5.67-2.42,8.11-8.13,8.18-6.32.07-12.65.08-18.97,0-6.77-.08-8.17-1.5-8.19-8.15-.03-12.31,0-24.62,0-36.94Zm12-.37c0,8.3,0,16.61,0,24.91s0,8.04,8.03,7.96c2.58-.03,3.34-.68,3.33-3.31-.11-19.43-.12-38.87,0-58.3.02-2.92-.92-3.8-3.64-3.46-1.31.16-2.68.2-3.98,0-3.11-.48-3.89.74-3.83,3.8.21,9.46.08,18.93.08,28.4Z"/>
  <path class="cls-7" d="m91.04,174.4c0-12.32-.02-24.63,0-36.95.01-6.51,1.21-7.75,7.79-7.83,6.66-.08,13.32-.08,19.97,0,5.37.07,7.61,2.17,7.62,7.43.06,24.97.06,49.93,0,74.9-.01,5.19-2.34,7.59-7.44,7.69-6.99.14-13.98.14-20.97,0-5.47-.12-6.96-1.74-6.98-7.29-.04-12.65-.01-25.3-.01-37.95Zm23.41.1c0-8.15,0-16.3,0-24.44,0-8.9,0-8.81-9-8.08-2.01.16-2.45.81-2.45,2.65.05,19.95.05,39.91,0,59.87,0,1.91.52,2.72,2.51,2.55,1.65-.14,3.35-.23,4.98.01,3.4.5,4.09-.98,4.02-4.12-.2-9.47-.07-18.96-.07-28.43Z"/>
  <path class="cls-7" d="m173.69,174.61c0-12.48-.05-24.95.02-37.43.03-6.26,1.31-7.48,7.66-7.56,6.65-.08,13.31-.08,19.96,0,5.09.06,7.67,2.46,7.68,7.46.06,24.95.06,49.9,0,74.85-.01,4.96-2.69,7.64-7.57,7.72-6.82.11-13.64.14-20.46-.01-5.68-.13-7.25-1.82-7.28-7.61-.06-12.48-.02-24.95-.02-37.43Zm12.01-.07c0,8.15,0,16.29,0,24.44,0,8.86,0,8.78,8.87,8.1,1.94-.15,2.52-.67,2.51-2.59-.06-19.95-.07-39.9.02-59.85.01-2.39-.99-2.77-2.96-2.62-1.49.11-3.02.21-4.48-.01-3.38-.51-4.1.95-4.03,4.11.2,9.47.07,18.95.07,28.43Z"/>
  <path class="cls-2" d="m62.34,206.94c-.04-20.49-.02-40.98-.2-61.47-.03-3.01,1.04-3.5,3.73-3.5,7.98-.01,7.98-.13,7.98,7.69,0,17.33-.15,34.65.11,51.98.06,4.27-.79,6.2-5.35,5.42-1.78-.3-3.66-.03-5.49-.02-.23-.21-.49-.24-.77-.1Z"/>
  <path class="cls-5" d="m62.34,206.94c.28-.14.54-.1.77.1-.25.22-.5.43-.75.65,0-.25-.02-.5-.02-.75Z"/>
  <path class="cls-2" d="m143.85,174.2c0-9.47.13-18.94-.08-28.4-.07-3.06.71-4.28,3.83-3.8,1.3.2,2.67.17,3.98,0,2.72-.34,3.66.54,3.64,3.46-.13,19.43-.12,38.87,0,58.3.01,2.63-.74,3.29-3.33,3.31-8.03.08-8.03.2-8.03-7.96s0-16.61,0-24.91Z"/>
  <path class="cls-2" d="m114.45,174.49c0,9.48-.13,18.96.07,28.43.06,3.14-.62,4.62-4.02,4.12-1.63-.24-3.33-.15-4.98-.01-1.99.17-2.52-.64-2.51-2.55.06-19.95.05-39.91,0-59.87,0-1.84.43-2.49,2.45-2.65,9-.73,9-.82,9,8.08,0,8.15,0,16.3,0,24.44Z"/>
  <path class="cls-2" d="m185.7,174.53c0-9.48.13-18.96-.07-28.43-.07-3.16.66-4.62,4.03-4.11,1.46.22,2.99.13,4.48.01,1.97-.15,2.97.23,2.96,2.62-.09,19.95-.07,39.9-.02,59.85,0,1.92-.58,2.44-2.51,2.59-8.88.68-8.87.77-8.87-8.1,0-8.15,0-16.29,0-24.44Z"/>
</svg>