<?xml version="1.0" encoding="UTF-8"?>
<svg id="_Слой_1" data-name="Слой 1" xmlns="http://www.w3.org/2000/svg" xmlns:xlink="http://www.w3.org/1999/xlink" viewBox="0 0 384 384">
  <defs>
    <style>
      .cls-1 {
        fill: none;
      }

      .cls-1, .cls-2, .cls-3, .cls-4 {
        stroke-width: 0px;
      }

      .cls-2 {
        fill: #fff;
      }

      .cls-3 {
        fill: #85c7ef;
      }

      .cls-5 {
        clip-path: url(#clippath);
      }

      .cls-4 {
        opacity: 0;
      }

      .cls-6 {
        fill: #ffcbc1;
        stroke: #fff;
        stroke-miterlimit: 10;
      }
    </style>
    <clipPath id="clippath">
      <rect class="cls-1" width="384" height="384"/>
    </clipPath>
  </defs>
  <g class="cls-5">
    <g>
      <path class="cls-2" d="m384,105.75v278.25h-91.5c16.83-4.53,21.67-16.11,21.4-30.64-.51-27.98-.13-55.98-.17-83.97,0-3.62,0-7.29-.59-10.84-4.94-30.33-28.95-50.68-59.78-50.82-4.84-.02-9.68,0-14.68,0v-81.16c1.66,0,3.12,0,4.59,0,38.11,0,76.23.02,114.34-.01,11.92,0,20.82-5.64,24.65-15.49.67-1.73,1.16-3.54,1.73-5.32Z"/>
      <path class="cls-2" d="m28.5,384H0V106.5c6.62,16.25,12.39,20.06,30.37,20.06,36.86,0,73.72,0,110.58,0h4.34c.1,1.07.18,1.55.18,2.04,0,26.61.05,53.23-.09,79.84,0,1.58-1.14,3.5-2.33,4.69-39.96,40.08-80,80.09-120.02,120.12-3,3-6.14,5.9-8.9,9.12-9.43,11.02-8.11,27.32,3.16,35.98,3.26,2.5,7.44,3.8,11.2,5.65Z"/>
      <path class="cls-4" d="m28.5,384c-3.76-1.85-7.94-3.15-11.2-5.65-11.27-8.66-12.59-24.97-3.16-35.98,2.76-3.22,5.89-6.11,8.9-9.12,40.02-40.03,80.05-80.04,120.02-120.12,1.19-1.19,2.32-3.11,2.33-4.69.14-26.61.1-53.23.09-79.84,0-.49-.08-.97-.18-2.04h-4.34c-36.86,0-73.72,0-110.58,0-17.98,0-23.75-3.81-30.37-20.06v-8.25c6.16-16.19,12.12-20.25,29.75-20.25,43.33,0,86.67,0,130,0h4.51c-1.47-1.4-2.2-2.07-2.91-2.77-19.46-19.08-17.16-50.78,4.8-66.93,5.96-4.39,12.8-6.56,19.84-8.3,4,0,8,0,12,0,.7.24,1.38.55,2.1.7,17.07,3.73,28.76,13.78,33.75,30.48,5.03,16.84.79,31.79-11.61,44.31-.64.65-1.72.87-2.6,1.29.32.4.64.81.97,1.21,1.35,0,2.7,0,4.04,0,44.58,0,89.16-.01,133.73,0,12.77,0,21.59,6.76,24.95,18.97.12.45.44.85.67,1.27v7.5c-.57,1.77-1.06,3.58-1.73,5.32-3.83,9.84-12.73,15.48-24.65,15.49-38.11.03-76.23.01-114.34.01-1.46,0-2.93,0-4.59,0v81.16c5,0,9.84-.02,14.68,0,30.83.15,54.83,20.5,59.78,50.82.58,3.55.58,7.22.59,10.84.04,27.99-.34,55.99.17,83.97.27,14.53-4.57,26.11-21.4,30.64h-7.5c-16.78-5.9-21.5-12.61-21.5-30.5,0-26.86.01-53.72,0-80.58,0-10.18-4.76-14.93-14.87-14.94-25.24-.01-50.47.03-75.71-.06-2.6,0-4.37.79-6.18,2.61-36.7,36.8-73.5,73.51-110.17,110.33-5.58,5.61-11.15,11.01-19.05,13.15h-9Zm178.21-165.78c-16.87,0-33.75-.07-50.62.1-1.85.02-4.15.96-5.45,2.26-42.14,41.99-84.19,84.07-126.24,126.16-1.32,1.32-2.63,2.71-3.62,4.28-5.62,8.91-.87,20.18,9.4,22.19,5.97,1.17,10.57-1.41,14.71-5.56,38.75-38.84,77.59-77.6,116.32-116.46,2.69-2.7,5.44-3.81,9.24-3.79,26.12.13,52.24.05,78.36.08,15.67.01,25.13,9.5,25.18,25.25.03,10.87,0,21.75,0,32.62,0,17.37-.03,34.74.02,52.12.02,7.6,3.68,13.08,9.92,15.19,9.91,3.36,19.26-3.77,19.29-14.92.07-29.87.1-59.74,0-89.61-.1-28.88-21.14-49.8-50.02-49.89-15.5-.05-31,0-46.49,0Zm21.28-10.59c0-1.82,0-3.29,0-4.77,0-26.61,0-53.23,0-79.84,0-5.34,1.58-6.94,6.89-6.95,11.87-.03,23.74,0,35.61-.02,1.31,0,2.62-.11,3.85-.17v-27.17H109.56v27.34c1.61,0,2.96,0,4.3,0,11.5,0,22.99,0,34.49,0,6.23,0,7.63,1.43,7.64,7.75,0,26.49,0,52.98,0,79.47v4.35h72Zm-2.74-163.66c.07-18.47-14.75-33.42-33.19-33.47-18.38-.05-33.55,15.02-33.48,33.25.08,18.5,14.87,33.39,33.27,33.49,18.4.1,33.33-14.77,33.39-33.27Zm-126.63,44.53c-9.03,0-17.64,0-26.25,0-15.99,0-31.98-.05-47.98.03-7.04.03-12.56,4.79-13.72,11.48-1.09,6.27,2.55,12.81,8.67,14.93,2.3.8,4.89,1.06,7.34,1.07,22.61.08,45.23.05,67.84.04,1.32,0,2.64-.12,4.1-.2v-27.36Zm186.75,27.22c.69.13,1.16.31,1.63.31,24.12.02,48.24.11,72.35-.1,2.81-.02,5.94-1.19,8.35-2.72,5.06-3.2,6.87-9.52,5.03-15.21-1.81-5.62-6.87-9.45-13.03-9.46-24.12-.06-48.24-.03-72.35-.02-.6,0-1.2.12-1.99.2v27.01Z"/>
      <path class="cls-2" d="m37.5,384c7.91-2.13,13.47-7.54,19.05-13.15,36.68-36.82,73.47-73.53,110.17-110.33,1.82-1.82,3.59-2.62,6.18-2.61,25.24.09,50.47.05,75.71.06,10.11,0,14.86,4.76,14.87,14.94.02,26.86,0,53.72,0,80.58,0,17.9,4.72,24.6,21.5,30.5H37.5Z"/>
      <path class="cls-2" d="m384,98.25c-.23-.42-.54-.82-.67-1.27-3.36-12.21-12.18-18.97-24.95-18.97-44.58-.02-89.16,0-133.73,0-1.35,0-2.7,0-4.04,0-.32-.4-.64-.81-.97-1.21.88-.42,1.96-.64,2.6-1.29,12.4-12.52,16.64-27.47,11.61-44.31-4.99-16.71-16.68-26.75-33.75-30.48-.72-.16-1.4-.47-2.1-.7,62,0,124,0,186,0v98.25Z"/>
      <path class="cls-2" d="m186,0c-7.04,1.74-13.88,3.91-19.84,8.3-21.96,16.15-24.25,47.85-4.8,66.93.71.7,1.44,1.37,2.91,2.77h-4.51c-43.33,0-86.67,0-130,0-17.63,0-23.6,4.06-29.75,20.25V0h186Z"/>
      <path class="cls-6" d="m206.71,218.22c15.5,0,31-.04,46.49,0,28.88.09,49.92,21.01,50.02,49.89.1,29.87.07,59.74,0,89.61-.03,11.15-9.37,18.28-19.29,14.92-6.24-2.11-9.9-7.59-9.92-15.19-.05-17.37-.02-34.74-.02-52.12,0-10.87.03-21.75,0-32.62-.05-15.75-9.5-25.24-25.18-25.25-26.12-.02-52.24.06-78.36-.08-3.8-.02-6.55,1.09-9.24,3.79-38.73,38.86-77.56,77.62-116.32,116.46-4.14,4.15-8.74,6.73-14.71,5.56-10.27-2.02-15.02-13.28-9.4-22.19.99-1.56,2.3-2.96,3.62-4.28,42.04-42.09,84.09-84.17,126.24-126.16,1.31-1.3,3.61-2.24,5.45-2.26,16.87-.17,33.74-.1,50.62-.1Z"/>
      <path class="cls-3" d="m227.98,207.63h-72v-4.35c0-26.49,0-52.98,0-79.47,0-6.32-1.4-7.74-7.64-7.75-11.5-.01-22.99,0-34.49,0-1.35,0-2.69,0-4.3,0v-27.34h164.78v27.17c-1.23.06-2.54.17-3.85.17-11.87.01-23.74,0-35.61.02-5.31.01-6.89,1.61-6.89,6.95-.01,26.61,0,53.23,0,79.84,0,1.47,0,2.94,0,4.77Z"/>
      <path class="cls-6" d="m225.25,42.61c-.07,18.5-15,33.37-33.39,33.27-18.4-.1-33.19-14.99-33.27-33.49-.07-18.24,15.09-33.3,33.48-33.25,18.43.05,33.25,15,33.19,33.47Z"/>
      <path class="cls-6" d="m98.62,88.5v27.36c-1.46.07-2.78.19-4.1.2-22.61.01-45.23.04-67.84-.04-2.46,0-5.04-.28-7.34-1.07-6.12-2.12-9.76-8.66-8.67-14.93,1.17-6.7,6.69-11.45,13.72-11.48,15.99-.08,31.98-.03,47.98-.03,8.61,0,17.23,0,26.25,0Z"/>
      <path class="cls-6" d="m285.36,115.72v-27.01c.79-.08,1.39-.2,1.99-.2,24.12,0,48.24-.04,72.35.02,6.16.02,11.22,3.84,13.03,9.46,1.84,5.69.02,12.01-5.03,15.21-2.42,1.53-5.54,2.69-8.35,2.72-24.12.21-48.23.12-72.35.1-.47,0-.94-.17-1.63-.31Z"/>
    </g>
  </g>
</svg>