<?xml version="1.0" encoding="UTF-8"?>
<svg id="_Слой_1" data-name="Слой 1" xmlns="http://www.w3.org/2000/svg" viewBox="0 0 384 384">
  <defs>
    <style>
      .cls-1 {
        fill: #fefefe;
      }

      .cls-1, .cls-2, .cls-3, .cls-4, .cls-5, .cls-6, .cls-7, .cls-8 {
        stroke-width: 0px;
      }

      .cls-2 {
        fill: #3c3e3f;
      }

      .cls-3 {
        fill: #a1a1a1;
      }

      .cls-4 {
        fill: #010101;
        opacity: 0;
      }

      .cls-5 {
        fill: #fff;
      }

      .cls-6 {
        fill: #85c7ef;
      }

      .cls-7 {
        fill: #dedede;
      }

      .cls-8 {
        fill: #ffcbc1;
      }
    </style>
  </defs>
  <path class="cls-5" d="m383.93,191.98c0,62.83-.02,125.66.06,188.5,0,2.69-.41,3.52-3.37,3.52-125.8-.09-251.6-.09-377.4,0-2.78,0-3.23-.67-3.22-3.29C.08,254.92.07,129.13,0,3.34,0,.82.3,0,3.19,0c125.93.1,251.85.1,377.78.01,2.62,0,3.04.6,3.04,3.1-.09,62.96-.07,125.91-.07,188.87Zm-121.47,8.91c-3.98.53-7.97.97-11.93,1.6-12.83,2.03-23.46,7.93-31.92,17.87-2.56,3.01-4.73,6.21-6.68,9.61-.53.91-1.22,2.05-2.59,1.72-1.65-.4-.84-1.83-.89-2.78-.13-2.24-.06-4.5-.03-6.74.02-.96-.2-2,.77-2.73,7.09-5.33,11.27-12.72,14.31-20.78,3.65-9.65,4.41-19.5.24-29.19-6.21-14.43-22.14-23.45-38.9-20.3-13.88,2.61-24.97,14.52-27.28,27.85-.21,1.22,0,2.93-1.52,2.78-1.41-.14-.65-1.88-.66-2.86-.06-14.99-.03-29.98-.05-44.97,0-5.04-.75-10.02-1.93-14.88-3.87-15.93-13.33-27.86-27.36-35.96-13.45-7.76-28.17-9.69-43.07-5.79-12.61,3.3-23.33,10.27-31.14,21.07-6.22,8.6-10.9,18.12-11.11,28.73-.49,25.47-.5,50.97.05,76.44.17,8.02-1.49,14.18-8.02,18.92-1.24.9-2.08,2.4-3.01,3.69-5.69,7.92-9.68,16.78-9.99,26.42-.58,17.96-.11,35.96-.07,53.94.01,5.25.66,5.88,6.02,5.88,110.68,0,221.37,0,332.05,0,5.38,0,6.59-1.18,6.6-6.46,0-15.74.03-31.48-.03-47.22-.01-2.84-.12-5.73-.67-8.5-2.61-13.21-8.1-24.74-18.77-33.6-9.71-8.06-20.7-12.31-33.18-12.88-5.15-.24-4.94-.05-5.22-5.07-.31-5.53.59-9.74,5.5-13.7,9.69-7.81,15.59-18.68,19.91-30.22,4.2-11.2,5.77-22.99,3.1-34.64-2.77-12.08-9.37-22.26-19.68-29.61-16.11-11.48-33.8-13.52-51.58-5.73-24.41,10.69-34.47,34.23-29.52,59.05,3.09,15.49,9.83,29.92,22.17,40.23,6.37,5.33,7.71,10.9,6.73,18.13-.21.22-.43.44-.64.66Z"/>
  <path class="cls-4" d="m263.1,200.24c.98-7.24-.36-12.81-6.73-18.13-12.34-10.31-19.08-24.75-22.17-40.23-4.95-24.82,5.11-48.36,29.52-59.05,17.78-7.79,35.47-5.75,51.58,5.73,10.31,7.35,16.91,17.53,19.68,29.61,2.67,11.65,1.09,23.44-3.1,34.64-4.32,11.54-10.22,22.41-19.91,30.22-4.92,3.96-5.81,8.17-5.5,13.7.28,5.02.07,4.83,5.22,5.07,12.47.57,23.47,4.82,33.18,12.88,10.67,8.86,16.16,20.4,18.77,33.6.55,2.77.66,5.66.67,8.5.06,15.74.04,31.48.03,47.22,0,5.27-1.22,6.46-6.6,6.46-110.68,0-221.37,0-332.05,0-5.36,0-6-.63-6.02-5.88-.04-17.98-.51-35.98.07-53.94.31-9.64,4.3-18.51,9.99-26.42.93-1.29,1.77-2.79,3.01-3.69,6.53-4.73,8.2-10.89,8.02-18.92-.56-25.47-.54-50.97-.05-76.44.2-10.61,4.89-20.13,11.11-28.73,7.81-10.81,18.54-17.77,31.14-21.07,14.9-3.9,29.63-1.97,43.07,5.79,14.03,8.09,23.49,20.03,27.36,35.96,1.18,4.86,1.93,9.85,1.93,14.88.02,14.99,0,29.98.05,44.97,0,.98-.75,2.72.66,2.86,1.52.15,1.31-1.57,1.52-2.78,2.32-13.34,13.41-25.25,27.28-27.85,16.76-3.15,32.68,5.87,38.9,20.3,4.17,9.69,3.41,19.54-.24,29.19-3.05,8.07-7.23,15.45-14.31,20.78-.97.73-.75,1.77-.77,2.73-.04,2.25-.1,4.5.03,6.74.05.95-.76,2.38.89,2.78,1.37.33,2.06-.81,2.59-1.72,1.96-3.4,4.12-6.6,6.68-9.61,8.46-9.95,19.09-15.84,31.92-17.87,3.96-.63,7.95-1.07,11.93-1.6.56.12.78-.09.64-.66Zm-142.18.77c-.14.52.07.71.58.6,8.07.18,16,1.04,23.49,4.39,2.41,1.08,2.57-.56,2.57-2.43-.05-21.81-.06-43.61-.07-65.42.13-3.31,1.06-6.66-.55-9.87.39-3.11-.52-6.07-1.15-9.04-2.08-9.81-7.31-17.77-14.65-24.46-13.89-12.65-30.11-15.83-47.87-11.05-20.15,5.42-35.4,25.85-34.92,47.78.55,24.72.12,49.46.13,74.19,0,.58.12,1.16.22,2.08,8.39-4.68,17.45-5.79,26.51-6.67,2.26-.22,2.28-1.12,2.26-2.74-.05-4.25-.12-8.5.03-12.74.06-1.71-.52-2.95-1.8-3.77-4.68-3.01-7.84-7.44-10.95-11.82-8.24-11.62-13.11-24.5-13.76-38.86-.16-3.59,1.84-5,4.86-5.06,2.61-.05,5.19-.43,7.6-1.1,17.66-4.9,33.36-13.11,45.1-27.67,1.5-1.86,3.38-1.37,5.12-1.22,1.57.14,2.29,1.36,2.63,3.06,1.03,5.12,3.07,9.99,5.49,14.51,4.4,8.21,10.33,14.72,21.09,13.11,1.35-.2,2.79-.21,3.51,1.39,1.81,3.3-.97,6.6-.02,9.9-.28.93-.66,1.84-.83,2.78-3.08,16.71-11.21,30.49-24.06,41.53-.52-.13-.71.06-.58.58v18.02Zm166.97,101.52c9.75,0,19.49.05,29.24-.03,3.2-.03,7.44,1.4,9.28-.63,1.58-1.75.55-5.92.56-9.02.03-11.99.05-23.99-.01-35.98-.01-3.02.86-4.5,4.29-4.22,3.64.29,3.69,2.68,3.7,5.19.04,13.87.07,27.74-.03,41.6-.02,2.39.54,3.25,3.07,3.15,5.12-.2,10.25-.15,15.37-.02,2.11.05,3.11-.25,3.02-2.77-.62-16.79,1.13-33.65-.96-50.4-2.1-16.76-11.57-28.3-26.41-35.57-8.55-4.19-17.86-4.69-27.25-4.48-15.7.35-31.43-.78-47.12.65-14.36,1.31-25.51,8.05-33.58,20.02-1.6,2.37-1.46,3.06,1.48,4.04,8.13,2.7,14.37,8.08,19.42,14.96,5.31,7.23,6.68,15.59,6.96,24.18.27,8.49.2,16.99-.01,25.48-.08,3,.52,3.99,3.77,3.93,11.74-.23,23.49-.09,35.23-.09Zm-191.93,0c10,0,19.99.05,29.99-.03,2.94-.03,6.85,1.33,8.55-.61,1.45-1.65.41-5.46.53-8.31.43-10.05-1.15-20.18.8-30.15,2.82-14.42,11.3-24.36,25.12-29.29,3.55-1.27,2.98-2.54,1.4-4.68-9.67-13.04-22.82-19.61-38.87-20.05-13.11-.36-26.23-.06-39.35-.08-6.57-.01-13.18-.24-19.66,1.06-10.65,2.14-19.43,7.62-26.31,15.93-5.66,6.84-9.96,14.66-10.23,23.64-.5,16.6-.16,33.23-.32,49.84-.02,2.5.9,2.83,3.02,2.78,4.99-.13,10-.23,14.99.03,2.87.15,3.5-.77,3.47-3.53-.14-13.99-.03-27.99-.09-41.98-.01-3.09.95-4.6,4.35-4.43,3.74.18,3.63,2.71,3.64,5.2.03,13.74.09,27.49-.05,41.23-.03,2.71.52,3.56,3.42,3.52,11.87-.19,23.74-.08,35.61-.08Zm96.03,0c8.12,0,16.25-.14,24.36.07,3.12.08,4.29-.48,4.17-3.98-.3-8.99-.06-17.99-.12-26.98-.02-2.95,1.06-4.25,4.17-3.96,2.97.28,3.65,2.04,3.65,4.54,0,6.87,0,13.74,0,20.61q0,10.34,10.37,9.7c.12,0,.25-.01.37,0,1.2.12,1.86-.25,1.8-1.62-.48-11.67.81-23.37-.76-35.04-1.67-12.44-12.17-23.01-24.45-25.26-4.11-.75-8.14-.49-12.19-.65-12.04-.48-24.11-.89-36.09.81-12.73,1.81-23.74,15.1-23.99,27.53-.17,8.37-.11,16.74-.04,25.11.03,2.97-1.33,7.01.58,8.6,1.8,1.49,5.71.3,8.67.57,2.69.24,3.35-.8,3.31-3.37-.14-9.12-.1-18.24-.03-27.36.03-3.97.92-4.64,4.73-4.12,2.8.38,3.04,2.46,3.04,4.66,0,8.87.16,17.75-.08,26.61-.08,3.11.99,3.66,3.78,3.6,8.24-.17,16.49-.06,24.74-.06Zm136.5-172.74c.42-1.76-.49-3.79-1.18-5.64-.38-1.01-2.71.15-3.82-.46-1.84-1-3.82-.52-5.7-1.11-8.52-2.65-14.45-8.28-18.45-15.95-1.41-2.71-2.12-2.36-3.9-.56-2.42,2.46-4.93,4.89-7.7,6.93-13.52,9.97-28.2,17.41-45.07,19.78-1.45.2-1.8.6-1.55,2.39.69,4.86,1.83,9.59,3.47,14.16,4.8,13.4,12.13,25.04,24.35,32.95,7.44,4.81,15.42,6.78,24.09,3.47,8.6-3.28,15.28-9,20.83-16.24,8.92-11.63,13.55-24.81,14.64-39.73Zm-189.92,5.48c-7.15-.94-12.94-3.82-17.62-9.29-4.04-4.72-6.95-9.97-9.15-15.67-.94-2.43-1.64-2.62-3.63-.7-3.07,2.96-6.43,5.68-9.94,8.12-10.83,7.53-22.56,13.11-35.7,15.23-2.97.48-3.86,1.98-3.24,4.65,3.53,15.02,9.48,28.69,22,38.54,10.97,8.63,20.33,8.92,30.92,2.81,8.36-4.83,14.37-12.19,19.01-20.61,3.95-7.16,6.44-14.82,7.33-23.07Zm52.94,83.75c2.85-.59,5.93-.98,8.74-2.66,9.51-5.67,14.12-14.69,17.23-24.77.75-2.43,1.57-4.76-2.79-4.23-1.72.21-3.69-.92-5.42-1.72-5.24-2.43-9.23-6.38-12.45-11.06-.82-1.2-1.03-1.53-2.34-.5-8.06,6.35-17.22,10.29-27.35,11.93-1.59.26-2.02.59-1.69,2.62,1.44,8.84,5.46,16.4,11.37,22.8,3.76,4.06,8.51,7.25,14.71,7.6Zm50.27-93.63c.85-.37,1.38-.72,1.95-.83,20.62-4.16,37.87-14.08,51.51-30.15,1.16-1.37,2.4-2.58,4.4-2.11,1.78.42,2.88,1.5,3.4,3.33,1.37,4.84,3.97,9.05,6.97,13.04,3.31,4.4,10.63,7.02,15.36,5.48-8.31-21.33-31.4-32.15-53.13-26.29-18.06,4.87-31.03,23.7-30.45,37.54Zm-76.02,52.85c15.37-3.72,16.83-4.48,27.69-14.32,2.08-1.89,5.17-1.64,6.65.65,1.39,2.13,2.36,4.57,3.95,6.52,3.16,3.9,6.39,7.88,12.05,8.18,1.68.09,2.47-.1,1.84-2.27-1.74-6.01-4.66-11.01-9.7-14.95-10.87-8.5-28.9-7.61-38.13,5.13-2.29,3.16-4.25,6.77-4.35,11.05Zm-80.3,9.99c0,3.84.09,7.33-.04,10.81-.07,1.93.49,2.62,2.51,2.56,4.87-.14,9.74-.04,14.62-.04q11.07,0,10.39-11.16c0-.12-.01-.25,0-.37.2-2-1.1-2.09-2.35-1.57-8.25,3.41-16.45,2.7-25.12-.23Zm90.13,37.56c1.04-3.42-1-6.04-3.77-8.7-8.17-7.84-12.67-17.63-14.28-28.77-.16-1.1-.49-2.26-1.44-2.18-1.44.12-.73,1.6-.74,2.44-.07,6.48.14,12.96-.12,19.43-.11,2.74.95,4.58,2.92,5.96,5.76,4.03,9.73,9.53,13.21,15.47.75,1.28,1.25,2.85,3.19,2.28,1.96-.58.71-2.28,1.01-3.44.15-.58.03-1.24.03-2.49Zm108.96-24.23c2.61,0,5.22,0,7.83,0,6.25,0,6.21,0,6.09-6.33-.04-1.86.16-2.93-2.59-2.07-6.44,2.02-13.09,2.65-19.81,1.08-5.53-1.3-5.43-1.27-5.42,4.65,0,2.1.55,2.81,2.7,2.72,3.72-.17,7.46-.05,11.19-.05Zm-93.24,30.17c2.11,0,4.22.06,6.33-.03.87-.04,2.28.64,2.5-.73.25-1.55.34-3.31-.16-4.75-.39-1.1-2.09-.69-3-.34-3.39,1.29-7.17,1.28-10.19.35-4.36-1.34-3.74.76-3.84,3.39-.08,1.99.8,2.22,2.41,2.14,1.98-.1,3.97-.02,5.95-.02Z"/>
  <path class="cls-7" d="m263.1,200.24c.14.56-.08.77-.64.66.21-.22.43-.44.64-.66Z"/>
  <path class="cls-6" d="m287.9,302.53c-11.75,0-23.49-.14-35.23.09-3.25.06-3.85-.93-3.77-3.93.21-8.49.29-17,.01-25.48-.28-8.59-1.65-16.95-6.96-24.18-5.05-6.88-11.3-12.26-19.42-14.96-2.94-.98-3.08-1.67-1.48-4.04,8.07-11.97,19.22-18.71,33.58-20.02,15.69-1.43,31.42-.3,47.12-.65,9.39-.21,18.69.28,27.25,4.48,14.85,7.27,24.32,18.82,26.41,35.57,2.1,16.75.35,33.61.96,50.4.09,2.52-.91,2.82-3.02,2.77-5.12-.13-10.25-.18-15.37.02-2.53.1-3.09-.76-3.07-3.15.1-13.87.07-27.74.03-41.6,0-2.51-.06-4.9-3.7-5.19-3.43-.28-4.3,1.21-4.29,4.22.06,11.99.04,23.99.01,35.98,0,3.1,1.02,7.28-.56,9.02-1.84,2.03-6.09.6-9.28.63-9.75.08-19.49.03-29.24.03Z"/>
  <path class="cls-6" d="m95.97,302.53c-11.87,0-23.74-.11-35.61.08-2.9.05-3.45-.8-3.42-3.52.14-13.74.08-27.49.05-41.23,0-2.49.1-5.02-3.64-5.2-3.4-.17-4.36,1.34-4.35,4.43.07,13.99-.05,27.99.09,41.98.03,2.76-.6,3.68-3.47,3.53-4.98-.26-9.99-.16-14.99-.03-2.12.06-3.05-.28-3.02-2.78.16-16.61-.18-33.24.32-49.84.27-8.97,4.57-16.8,10.23-23.64,6.88-8.31,15.66-13.79,26.31-15.93,6.48-1.3,13.08-1.07,19.66-1.06,13.12.02,26.24-.28,39.35.08,16.05.44,29.2,7,38.87,20.05,1.58,2.14,2.15,3.41-1.4,4.68-13.82,4.94-22.3,14.88-25.12,29.29-1.95,9.96-.37,20.1-.8,30.15-.12,2.85.92,6.66-.53,8.31-1.7,1.94-5.61.58-8.55.61-10,.09-19.99.03-29.99.03Z"/>
  <path class="cls-6" d="m192,302.53c-8.25,0-16.5-.11-24.74.06-2.78.06-3.86-.49-3.78-3.6.24-8.86.09-17.74.08-26.61,0-2.2-.24-4.28-3.04-4.66-3.81-.52-4.7.15-4.73,4.12-.08,9.12-.11,18.24.03,27.36.04,2.57-.62,3.61-3.31,3.37-2.96-.26-6.88.93-8.67-.57-1.91-1.59-.55-5.63-.58-8.6-.07-8.37-.13-16.74.04-25.11.25-12.42,11.26-25.72,23.99-27.53,11.98-1.7,24.05-1.29,36.09-.81,4.05.16,8.08-.11,12.19.65,12.29,2.25,22.78,12.82,24.45,25.26,1.57,11.67.28,23.37.76,35.04.06,1.37-.6,1.74-1.8,1.62-.12-.01-.25,0-.37,0q-10.37.64-10.37-9.7c0-6.87,0-13.74,0-20.61,0-2.5-.68-4.27-3.65-4.54-3.11-.29-4.19,1.01-4.17,3.96.06,9-.18,18,.12,26.98.12,3.5-1.05,4.07-4.17,3.98-8.12-.21-16.24-.07-24.36-.07Z"/>
  <path class="cls-8" d="m328.5,129.79c-1.09,14.92-5.72,28.1-14.64,39.73-5.55,7.24-12.22,12.96-20.83,16.24-8.67,3.3-16.65,1.34-24.09-3.47-12.22-7.91-19.55-19.55-24.35-32.95-1.64-4.57-2.78-9.3-3.47-14.16-.26-1.79.1-2.19,1.55-2.39,16.88-2.37,31.55-9.81,45.07-19.78,2.77-2.04,5.28-4.47,7.7-6.93,1.77-1.8,2.49-2.15,3.9.56,3.99,7.67,9.93,13.3,18.45,15.95,1.89.59,3.86.11,5.7,1.11,1.11.6,3.44-.55,3.82.46.7,1.85,1.6,3.87,1.18,5.64Z"/>
  <path class="cls-2" d="m146.42,128.2c-.71-1.61-2.15-1.6-3.51-1.39-10.75,1.61-16.69-4.89-21.09-13.11-2.42-4.51-4.47-9.39-5.49-14.51-.34-1.7-1.07-2.92-2.63-3.06-1.74-.15-3.62-.64-5.12,1.22-11.74,14.56-27.45,22.77-45.1,27.67-2.41.67-4.99,1.04-7.6,1.1-3.02.06-5.03,1.47-4.86,5.06.65,14.36,5.52,27.24,13.76,38.86,3.11,4.38,6.27,8.82,10.95,11.82,1.28.82,1.86,2.06,1.8,3.77-.15,4.24-.08,8.49-.03,12.74.02,1.62,0,2.52-2.26,2.74-9.06.88-18.12,1.99-26.51,6.67-.1-.92-.22-1.5-.22-2.08,0-24.73.42-49.47-.13-74.19-.49-21.93,14.77-42.36,34.92-47.78,17.76-4.78,33.98-1.6,47.87,11.05,7.34,6.69,12.57,14.65,14.65,24.46.63,2.97,1.53,5.93,1.15,9.04-.16-.16-.33-.18-.53-.08Z"/>
  <path class="cls-8" d="m138.58,135.27c-.89,8.25-3.39,15.91-7.33,23.07-4.64,8.42-10.64,15.78-19.01,20.61-10.59,6.11-19.95,5.82-30.92-2.81-12.53-9.85-18.48-23.53-22-38.54-.63-2.68.27-4.18,3.24-4.65,13.14-2.12,24.87-7.7,35.7-15.23,3.51-2.44,6.86-5.16,9.94-8.12,1.99-1.91,2.69-1.72,3.63.7,2.2,5.7,5.11,10.95,9.15,15.67,4.68,5.47,10.47,8.35,17.62,9.29Z"/>
  <path class="cls-8" d="m191.52,219.02c-6.2-.35-10.95-3.53-14.71-7.6-5.91-6.4-9.92-13.96-11.37-22.8-.33-2.03.1-2.36,1.69-2.62,10.14-1.64,19.29-5.57,27.35-11.93,1.31-1.03,1.52-.7,2.34.5,3.23,4.69,7.21,8.63,12.45,11.06,1.73.8,3.7,1.93,5.42,1.72,4.36-.53,3.54,1.8,2.79,4.23-3.11,10.08-7.72,19.1-17.23,24.77-2.81,1.67-5.89,2.06-8.74,2.66Z"/>
  <path class="cls-2" d="m241.79,125.4c-.58-13.84,12.39-32.66,30.45-37.54,21.73-5.86,44.83,4.96,53.13,26.29-4.73,1.54-12.05-1.08-15.36-5.48-3-3.99-5.6-8.2-6.97-13.04-.52-1.83-1.62-2.91-3.4-3.33-2-.47-3.24.74-4.4,2.11-13.64,16.08-30.89,25.99-51.51,30.15-.57.12-1.1.46-1.95.83Z"/>
  <path class="cls-2" d="m121.51,182.41c12.85-11.05,20.98-24.83,24.06-41.53.17-.95.55-1.85.83-2.78.37.02.73.03,1.1.05.02,21.81.02,43.61.07,65.42,0,1.87-.16,3.51-2.57,2.43-7.49-3.35-15.42-4.21-23.49-4.39-.19-.2-.39-.4-.58-.6,0-6.01,0-12.01,0-18.02.19-.19.39-.39.58-.58Z"/>
  <path class="cls-2" d="m165.77,178.24c.1-4.29,2.06-7.89,4.35-11.05,9.23-12.74,27.26-13.64,38.13-5.13,5.04,3.94,7.96,8.95,9.7,14.95.63,2.17-.15,2.36-1.84,2.27-5.66-.31-8.89-4.29-12.05-8.18-1.59-1.95-2.56-4.39-3.95-6.52-1.49-2.29-4.57-2.53-6.65-.65-10.86,9.84-12.32,10.6-27.69,14.32Z"/>
  <path class="cls-8" d="m85.47,188.23c8.66,2.92,16.87,3.64,25.12.23,1.26-.52,2.55-.43,2.35,1.57-.01.12,0,.25,0,.37q.68,11.16-10.39,11.16c-4.87,0-9.75-.09-14.62.04-2.02.06-2.58-.64-2.51-2.56.13-3.48.04-6.98.04-10.81Z"/>
  <path class="cls-5" d="m175.6,225.79c0,1.25.13,1.9-.03,2.49-.3,1.16.95,2.86-1.01,3.44-1.93.57-2.43-.99-3.19-2.28-3.48-5.93-7.45-11.44-13.21-15.47-1.97-1.38-3.03-3.22-2.92-5.96.26-6.47.05-12.95.12-19.43,0-.84-.7-2.32.74-2.44.94-.08,1.28,1.08,1.44,2.18,1.61,11.14,6.11,20.93,14.28,28.77,2.77,2.66,4.81,5.28,3.77,8.7Z"/>
  <path class="cls-8" d="m284.56,201.56c-3.73,0-7.47-.12-11.19.05-2.15.1-2.69-.62-2.7-2.72-.02-5.93-.11-5.95,5.42-4.65,6.71,1.57,13.37.94,19.81-1.08,2.75-.86,2.55.21,2.59,2.07.13,6.33.16,6.33-6.09,6.33-2.61,0-5.22,0-7.83,0Z"/>
  <path class="cls-8" d="m191.32,231.73c-1.99,0-3.97-.08-5.95.02-1.61.09-2.49-.15-2.41-2.14.1-2.64-.52-4.73,3.84-3.39,3.03.93,6.8.94,10.19-.35.91-.34,2.62-.76,3,.34.5,1.44.41,3.2.16,4.75-.22,1.37-1.63.69-2.5.73-2.1.1-4.22.03-6.33.03Z"/>
  <path class="cls-3" d="m147.5,138.15c-.37-.02-.73-.03-1.1-.05-.95-3.3,1.83-6.6.02-9.9.2-.1.37-.07.53.08,1.6,3.21.68,6.56.55,9.87Z"/>
  <path class="cls-1" d="m121.51,182.41c-.19.19-.39.39-.58.58-.13-.52.07-.71.58-.58Z"/>
  <path class="cls-1" d="m120.93,201.01c.19.2.39.4.58.6-.51.11-.72-.08-.58-.6Z"/>
</svg>