<?xml version="1.0" encoding="UTF-8"?>
<svg id="_Слой_1" data-name="Слой 1" xmlns="http://www.w3.org/2000/svg" viewBox="0 0 285.77 285.77">
  <defs>
    <style>
      .cls-1 {
        fill: #ffcbc1;
        stroke: #ffcbc1;
        stroke-width: 3px;
      }

      .cls-1, .cls-2 {
        stroke-miterlimit: 10;
      }

      .cls-3 {
        fill: #fff;
      }

      .cls-3, .cls-4 {
        stroke-width: 0px;
      }

      .cls-2 {
        fill: #85c7ef;
        stroke: #85c7ef;
      }

      .cls-4 {
        opacity: 0;
      }
    </style>
  </defs>
  <g>
    <path class="cls-3" d="m0,184.94V0c95.26,0,190.51,0,285.77,0,0,95.26,0,190.51,0,285.77-95.26,0-190.51,0-285.77,0,0-17.08,0-34.17,0-51.25.11.14.29.27.33.43,2.26,8.14,7.53,12.69,15.98,13.63.74.08,1.65,1.05,1.99,1.82,1.74,3.97,4.34,7.22,8.15,9.21,7.49,3.9,15.57,3.4,23.34,1.57,7.23-1.7,11.84-8.76,11.9-17.3.15-23.3.21-46.61-.02-69.91-.11-10.81-7.11-17.26-17.9-17.44-.7-.01-1.4-.13-2.29-.21-1.27-42.02,14.47-75.31,51.25-96.14,35.81-20.29,72.42-18.66,106.6,4.14,32.37,21.59,45.9,53.42,44.34,91.58-3.66.79-7.23.95-10.24,2.33-7.01,3.21-9.64,9.29-9.62,16.78.04,18.57,0,37.14.02,55.7,0,5.11-.11,10.22.15,15.31.43,8.41,6.76,15.04,15.09,15.91,3.03.31,6.11.2,9.17.23,8.92.1,15.18-3.97,18.97-12.03.35-.73,1.36-1.51,2.15-1.62,9.75-1.39,15.8-8.14,15.83-17.98.04-13.93.12-27.85-.08-41.78-.04-2.97-.69-6.15-1.93-8.83-2.78-6.01-7.96-9.03-14.7-9.71,0-1.07.02-1.98,0-2.89-.34-11.31.14-22.72-1.19-33.91-3.94-32.94-19.25-60.05-44.93-80.85-46.49-37.66-111.1-38.07-158-1.12-25.65,20.2-41.32,46.71-45.89,79.11-1.68,11.87-1.17,24.06-1.64,36.1-.05,1.17,0,2.35,0,3.12-2.8.97-5.25,1.56-7.46,2.64-5.21,2.54-7.69,7.25-9.36,12.51Z"/>
    <path class="cls-4" d="m0,184.94c1.67-5.26,4.15-9.97,9.36-12.51,2.21-1.08,4.66-1.67,7.46-2.64,0-.77-.04-1.95,0-3.12.48-12.04-.03-24.23,1.64-36.1,4.57-32.4,20.24-58.9,45.89-79.11,46.91-36.94,111.52-36.54,158,1.12,25.68,20.8,40.99,47.91,44.93,80.85,1.34,11.19.85,22.6,1.19,33.91.03.91,0,1.83,0,2.89,6.74.69,11.92,3.7,14.7,9.71,1.24,2.68,1.89,5.86,1.93,8.83.2,13.92.12,27.85.08,41.78-.03,9.84-6.07,16.59-15.83,17.98-.8.11-1.81.89-2.15,1.62-3.79,8.06-10.04,12.13-18.97,12.03-3.06-.03-6.14.08-9.17-.23-8.34-.86-14.66-7.5-15.09-15.91-.26-5.09-.15-10.21-.15-15.31-.01-18.57.02-37.14-.02-55.7-.02-7.49,2.62-13.57,9.62-16.78,3.01-1.38,6.58-1.54,10.24-2.33,1.56-38.16-11.97-69.98-44.34-91.58-34.18-22.8-70.79-24.43-106.6-4.14-36.78,20.84-52.52,54.13-51.25,96.14.89.08,1.59.2,2.29.21,10.79.18,17.79,6.62,17.9,17.44.23,23.3.17,46.61.02,69.91-.05,8.54-4.66,15.6-11.9,17.3-7.78,1.83-15.85,2.33-23.34-1.57-3.81-1.98-6.41-5.24-8.15-9.21-.34-.77-1.25-1.74-1.99-1.82-8.44-.95-13.71-5.5-15.98-13.63-.04-.16-.22-.29-.33-.43,0-16.53,0-33.05,0-49.58Zm37.25-28.42c-1.53-30.43,6.72-57.45,27.47-79.94,20.77-22.51,46.71-33.94,77.3-34.29,25.13-.29,47.74,7.59,67.13,23.53,28.43,23.37,40.71,54.1,39.2,90.72,6.21-.25,11.19,1.8,15.65,5.98,2.43-52.6-17.17-93.68-63.31-118.83-42.76-23.31-86.29-20.87-126.67,6.53-39.17,26.58-55.07,65.25-52.46,112.6,4.42-4.51,9.52-6.31,15.69-6.28Zm206.49,100.85c0-9.51,0-18.86,0-28.22,0-15.4,0-30.8.01-46.2,0-1.64-.29-3.71,2.16-3.76,2.6-.05,2.34,2.09,2.39,3.85.02.65,0,1.3,0,1.95,0,23.1,0,46.2,0,69.31v3.19c8.55.6,15.31-5.52,15.32-13.62.04-22.92-.12-45.83.07-68.75.07-8.08-6.49-13.86-13.53-14.06-3.52-.1-7.05-.13-10.57.01-5.79.23-10.13,4.03-11.23,9.75-.3,1.54-.43,3.13-.43,4.7-.03,22.36-.03,44.72,0,67.08,0,1.57.13,3.16.43,4.7,1.45,7.34,7.49,11.39,15.38,10.09Zm-202.15-.04c6.04,1.13,11.21-1.04,13.53-6.19,1.21-2.68,1.79-5.87,1.81-8.83.16-19.02.09-38.05.08-57.07,0-4.18.09-8.36-.14-12.52-.39-6.9-5.25-11.52-12.08-11.69-3.15-.08-6.31-.08-9.47,0-8.39.22-14,5.99-14.03,14.4-.03,8.45,0,16.89,0,25.34,0,14.01-.04,28.03.01,42.04.03,9.02,7.39,15.93,15.72,14.51,0-1.03,0-2.12,0-3.2,0-23.67,0-47.33.01-71,0-1.71-.35-3.95,2.28-3.93,2.58.02,2.22,2.23,2.29,3.96.02.56,0,1.11,0,1.67,0,23.11,0,46.22,0,69.33v3.19Zm-24.67-13.5v-68.76c-6.49-.06-12.25,5.27-12.35,12.02-.22,15.21-.22,30.43.01,45.64.1,6.5,5.95,11.48,12.34,11.1Zm251.68.1c6.35-.16,11.61-5.07,12.12-11.1.05-.65.06-1.3.06-1.95,0-14.29.06-28.58-.03-42.86-.04-7.35-5.42-12.99-12.15-12.94v68.85Z"/>
    <path class="cls-2" d="m37.25,156.52c-6.17-.03-11.27,1.77-15.69,6.28-2.61-47.35,13.28-86.02,52.46-112.6,40.38-27.39,83.91-29.84,126.67-6.53,46.14,25.16,65.75,66.23,63.31,118.83-4.47-4.18-9.45-6.23-15.65-5.98,1.52-36.61-10.76-67.34-39.2-90.72-19.39-15.94-42-23.82-67.13-23.53-30.59.35-56.53,11.78-77.3,34.29-20.75,22.49-29,49.52-27.47,79.94Z"/>
    <path class="cls-2" d="m243.81,257.24c-7.89,1.32-13.93-2.73-15.39-10.07-.31-1.53-.43-3.13-.44-4.7-.06-22.36-.09-44.72-.1-67.08,0-1.57.13-3.16.42-4.7,1.1-5.72,5.43-9.53,11.22-9.77,3.52-.15,7.05-.12,10.57-.03,7.04.19,13.61,5.96,13.55,14.04-.16,22.91.03,45.83.03,68.75,0,8.1-6.75,14.23-15.3,13.65v-3.19c-.04-23.1-.07-46.2-.1-69.31,0-.65.01-1.3,0-1.95-.05-1.76.21-3.9-2.39-3.85-2.44.05-2.15,2.12-2.15,3.76,0,15.4.03,30.8.06,46.2.01,9.36.03,18.72.04,28.22Z"/>
    <path class="cls-2" d="m41.66,257.49v-3.19c-.04-23.11-.07-46.22-.1-69.33,0-.56.02-1.11,0-1.67-.07-1.73.29-3.94-2.29-3.95-2.62-.02-2.27,2.22-2.27,3.93.02,23.67.06,47.33.09,71,0,1.09,0,2.18,0,3.2-8.33,1.43-15.69-5.47-15.74-14.49-.07-14.01-.05-28.03-.07-42.04-.01-8.45-.05-16.89-.03-25.34.02-8.42,5.62-14.19,14.01-14.42,3.15-.09,6.31-.09,9.47-.02,6.83.16,11.7,4.77,12.1,11.67.24,4.16.15,8.35.16,12.52.04,19.03.14,38.05,0,57.07-.02,2.96-.59,6.15-1.8,8.83-2.31,5.15-7.47,7.33-13.52,6.21Z"/>
    <path class="cls-2" d="m16.92,243.84c-6.38.38-12.24-4.6-12.34-11.1-.23-15.21-.23-30.43-.01-45.64.1-6.74,5.86-12.08,12.35-12.02v68.76Z"/>
    <path class="cls-2" d="m268.66,243.77c-.03-23.07-.07-45.96-.1-68.85,6.73-.06,12.12,5.57,12.17,12.92.11,14.29.07,28.58.09,42.86,0,.65,0,1.3-.06,1.95-.5,6.03-5.76,10.95-12.11,11.12Z"/>
  </g>
  <line class="cls-1" x1="142.15" y1="257.62" x2="142.02" y2="169.7"/>
  <line class="cls-1" x1="118.51" y1="244.01" x2="118.43" y2="183.31"/>
  <line class="cls-1" x1="167.34" y1="244.01" x2="167.25" y2="183.31"/>
</svg>