<?xml version="1.0" encoding="UTF-8"?>
<svg id="_Слой_1" data-name="Слой 1" xmlns="http://www.w3.org/2000/svg" viewBox="0 0 384 384">
  <defs>
    <style>
      .cls-1 {
        fill: #db7889;
      }

      .cls-1, .cls-2, .cls-3, .cls-4 {
        stroke-width: 0px;
      }

      .cls-2 {
        fill: #010101;
        opacity: 0;
      }

      .cls-3 {
        fill: #fff;
      }

      .cls-4 {
        fill: #ffcbc1;
      }
    </style>
  </defs>
  <path class="cls-3" d="m191.6,383.93c-62.83,0-125.66-.02-188.5.07-2.53,0-3.09-.45-3.09-3.05C.1,255.03.1,129.1,0,3.18,0,.26.86.01,3.35.01,129.14.08,254.93.08,380.72,0c2.66,0,3.28.49,3.28,3.24-.09,125.8-.09,251.6,0,377.4,0,2.98-.86,3.36-3.53,3.36-62.96-.08-125.91-.06-188.87-.06Zm21.89-18.71c15.87,0,31.73,0,47.6,0,7.87,0,15.74.03,23.61-.01,3.15-.02,5.3-2.45,4.44-5.1-3.13-9.65-5.67-19.41-7.41-29.45-1.45-8.37-2.14-16.78-2.58-25.18-.28-5.31.59-10.75,1.24-16.12,1.43-11.89,5.36-22.79,11.7-32.88,3.99-6.36,9.46-11.55,13.89-17.57,11.95-16.26,21.07-33.97,27.82-52.94,6.23-17.51,8.84-35.53,8.23-54.12-.32-9.87-1.81-19.51-4.92-28.75-8.31-24.61-23.29-44.33-45.06-58.63-24.59-16.14-51.7-24.54-81.06-25.61-9-.33-17.9.83-26.8,2.15-17.88,2.64-34.57,8.9-50.81,16.41-13.98,6.47-26.14,15.54-36.68,26.86-9.47,10.18-15.73,21.96-19.45,35.32-2.4,8.61-.93,17.39-2.03,26.07-1.28,10.1-4.07,19.51-10,27.7-6.1,8.43-12.58,16.62-19.3,24.58-7.48,8.86-5.78,20.06,3.68,25.05,3.32,1.75,6.23,4.27,9.45,6.24,2.38,1.46,3.08,2.55.55,4.73-3.3,2.85-6.31,6.05-9.3,9.24-2.83,3.03-4.94,6.34-2.91,10.79,2.07,4.52,5.68,7.76,9.19,11.03,2.25,2.1,2.68,4.1.7,6.34-5.2,5.85-4.32,14.82,2.14,19.76,1.84,1.4,1.87,3.1,1.34,4.72-1.86,5.69-2.31,11.48-2.19,17.41.32,15.79,11.56,22.9,25.56,20.8,10.46-1.56,20.79-2.32,31.06.25,7.23,1.81,13.68,5.11,18.47,11.36,7.38,9.62,6.2,20.5,5.4,31.38-.48,6.46-1.09,8.32,6.22,8.25,22.74-.22,45.48-.08,68.21-.08Z"/>
  <path class="cls-2" d="m213.49,365.22c-22.74,0-45.48-.14-68.21.08-7.31.07-6.7-1.79-6.22-8.25.8-10.89,1.98-21.77-5.4-31.38-4.79-6.25-11.25-9.55-18.47-11.36-10.27-2.57-20.6-1.81-31.06-.25-14,2.09-25.23-5.02-25.56-20.8-.12-5.93.33-11.73,2.19-17.41.53-1.62.5-3.32-1.34-4.72-6.47-4.94-7.34-13.91-2.14-19.76,1.99-2.24,1.56-4.25-.7-6.34-3.51-3.27-7.12-6.51-9.19-11.03-2.04-4.44.08-7.76,2.91-10.79,2.98-3.19,6-6.4,9.3-9.24,2.52-2.18,1.83-3.27-.55-4.73-3.22-1.97-6.12-4.49-9.45-6.24-9.46-4.99-11.16-16.18-3.68-25.05,6.71-7.96,13.19-16.15,19.3-24.58,5.93-8.19,8.72-17.6,10-27.7,1.1-8.68-.37-17.46,2.03-26.07,3.72-13.36,9.98-25.14,19.45-35.32,10.53-11.32,22.7-20.39,36.68-26.86,16.25-7.52,32.93-13.78,50.81-16.41,8.91-1.31,17.8-2.47,26.8-2.15,29.36,1.08,56.48,9.47,81.06,25.61,21.78,14.3,36.76,34.01,45.06,58.63,3.12,9.24,4.6,18.88,4.92,28.75.61,18.6-2,36.62-8.23,54.12-6.75,18.97-15.88,36.68-27.82,52.94-4.43,6.03-9.89,11.22-13.89,17.57-6.34,10.09-10.27,20.99-11.7,32.88-.65,5.37-1.52,10.82-1.24,16.12.44,8.4,1.13,16.81,2.58,25.18,1.74,10.05,4.28,19.8,7.41,29.45.86,2.65-1.29,5.08-4.44,5.1-7.87.04-15.74.01-23.61.01-15.87,0-31.73,0-47.6,0Zm66.24-8.47c-1.61-4.49-2.6-9.19-3.77-13.85-2.38-9.48-3.84-19.14-4.34-28.84-.38-7.52-.49-15.09.51-22.68,1.38-10.43,3.81-20.43,8.22-30,3.84-8.34,9.6-15.2,15.4-22.19,10.13-12.21,17.89-26,24.45-40.41,7.07-15.53,12.02-31.65,13.63-48.81.87-9.2.96-18.33-.26-27.38-1.65-12.28-5.77-23.88-11.82-34.76-6.13-11.04-13.74-20.97-23.52-28.9-12.05-9.76-25.51-17.38-40.05-22.84-14.06-5.29-28.58-8.7-43.68-8.99-8.06-.16-16.17-.48-24.17.8-6.95,1.11-14,2.02-20.7,4.06-9.67,2.94-19.09,6.64-28.41,10.7-18.44,8.03-34.33,19.14-45.86,35.8-6.27,9.06-10.4,19.08-11.33,30.27-.58,7.03-.21,14.06-1.33,21.13-1.93,12.12-6.55,22.78-14.15,32.29-5.82,7.28-11.68,14.54-17.32,21.96-3.72,4.9-2.76,8.85,2.3,12.21,3.86,2.56,7.61,5.3,11.61,7.63,4.4,2.56,6.69,9.19,1.67,13.92-3.45,3.26-6.57,6.88-10.14,9.99-2.65,2.31-2.01,4.1.02,6.14,1.94,1.95,3.73,4.08,5.86,5.79,4.46,3.56,4.58,12.41,1.19,16.42-3.25,3.84-3.18,5.78.91,8.87,4.87,3.68,4.98,8.11,3.66,13.32-1.49,5.87-3.05,11.67-1.6,17.95,1.34,5.8,5.19,9.29,10.99,9.72,6.13.46,11.94-1.64,17.98-1.6,4.94.03,9.88-.08,14.8.71,9.64,1.55,18.58,4.67,25.79,11.49,10.82,10.22,12.51,23.51,11.21,37.28-.33,3.47.38,3.35,2.84,3.35,41.98-.03,83.95-.02,125.93-.04,1.09,0,2.25.33,3.45-.5Z"/>
  <path class="cls-4" d="m279.98,359.75c-1.2.83-2.36.5-3.45.5-41.98.02-83.95,0-125.93.04-2.46,0-3.17.12-2.84-3.35,1.3-13.77-.39-27.05-11.21-37.28-7.21-6.81-16.15-9.93-25.79-11.49-4.93-.79-9.86-.69-14.8-.71-6.04-.03-11.84,2.06-17.98,1.6-5.8-.43-9.65-3.92-10.99-9.72-1.45-6.28.11-12.08,1.6-17.95,1.32-5.21,1.21-9.65-3.66-13.32-4.09-3.09-4.15-5.03-.91-8.87,3.39-4.01,3.27-12.86-1.19-16.42-2.13-1.7-3.92-3.84-5.86-5.79-2.03-2.03-2.66-3.82-.02-6.14,3.57-3.12,6.68-6.74,10.14-9.99,5.02-4.73,2.73-11.36-1.67-13.92-4-2.32-7.75-5.07-11.61-7.63-5.06-3.36-6.02-7.31-2.3-12.21,5.63-7.42,11.5-14.68,17.32-21.96,7.6-9.51,12.22-20.17,14.15-32.29,1.12-7.07.75-14.1,1.33-21.13.93-11.19,5.06-21.21,11.33-30.27,11.52-16.66,27.42-27.77,45.86-35.8,9.31-4.06,18.74-7.76,28.41-10.7,6.69-2.03,13.75-2.95,20.7-4.06,8-1.27,16.1-.95,24.17-.8,15.1.29,29.62,3.7,43.68,8.99,14.54,5.47,28,13.08,40.05,22.84,9.78,7.92,17.39,17.86,23.52,28.9,6.05,10.88,10.17,22.48,11.82,34.76,1.21,9.04,1.12,18.18.26,27.38-1.62,17.16-6.57,33.27-13.63,48.81-6.56,14.41-14.32,28.2-24.45,40.41-5.8,6.99-11.56,13.86-15.4,22.19-4.41,9.57-6.84,19.58-8.22,30-1,7.59-.89,15.17-.51,22.68.49,9.7,1.95,19.36,4.34,28.84,1.17,4.66,2.16,9.36,3.77,13.85Zm-7.91-204.48c3.93-3.93,8-7.99,12.06-12.06,8.22-8.23,12.35-17.93,12.46-29.78.17-19.42-15.62-36.57-35.59-38.35-12.47-1.11-23.33,2.94-32.26,11.84-6.19,6.17-12.41,12.32-18.52,18.58-1.55,1.59-2.46,2.15-4.33.18-5.94-6.25-12.08-12.3-18.23-18.33-10.27-10.07-22.44-14.05-36.74-11.61-16.66,2.84-29.21,17.28-31.26,32.97-1.73,13.27,2.52,24.87,12.09,34.39,3.72,3.7,7.43,7.41,11.11,11.14.57.58,1.56.98,1.36,2.06-.28,1.55-7.02,6.64-8.79,6.64-10.12.03-20.23.05-30.35.06-2.78,0-5.16.7-4.96,4.05.18,3,2.23,3.98,5.11,3.95,8.49-.09,17.02-.5,25.47.11,7.31.53,13.15-1.1,17.36-7.28,1.56-2.28,2.78-1.76,4.55.03,16.8,16.94,33.7,33.78,50.57,50.65,4.11,4.11,5.51,4.11,9.64,0,15.73-15.72,31.45-31.44,47.17-47.16,6.09-6.09,6.26-6.24,12.05,0,2.62,2.82,5.32,3.78,9.06,3.69,9.86-.23,19.73-.1,29.6-.07,2.87,0,5.32-.51,5.23-4.08-.08-3.25-2.3-3.99-5.08-3.98-7.12.03-14.27-.37-21.35.11-7.3.5-13.65-.35-17.42-7.78Z"/>
  <path class="cls-2" d="m271.82,152.27c3.78,7.42,10.13,8.27,17.42,7.78,7.09-.48,14.23-.09,21.35-.11,2.78-.01,5,.73,5.08,3.98.09,3.57-2.36,4.09-5.23,4.08-9.87-.03-19.74-.17-29.6.07-3.74.09-6.44-.87-9.06-3.69-5.8-6.25-5.96-6.09-12.05,0-15.72,15.72-31.45,31.44-47.17,47.16-4.12,4.12-5.52,4.12-9.64,0-16.87-16.87-33.77-33.71-50.57-50.65-1.78-1.79-3-2.31-4.55-.03-4.21,6.18-10.05,7.81-17.36,7.28-8.45-.61-16.98-.2-25.47-.11-2.88.03-4.93-.95-5.11-3.95-.2-3.35,2.18-4.05,4.96-4.05,10.12-.01,20.23-.03,30.35-.06,1.77,0,8.52-5.09,8.79-6.64.19-1.08-.79-1.48-1.36-2.06-3.68-3.73-7.4-7.44-11.11-11.14-9.57-9.52-13.82-21.12-12.09-34.39,2.05-15.68,14.6-30.13,31.26-32.97,14.31-2.44,26.48,1.54,36.74,11.61,6.15,6.03,12.3,12.08,18.23,18.33,1.88,1.97,2.78,1.41,4.33-.18,6.11-6.25,12.33-12.41,18.52-18.58,8.93-8.9,19.79-12.95,32.26-11.84,19.97,1.78,35.76,18.93,35.59,38.35-.11,11.85-4.24,21.56-12.46,29.78-4.06,4.07-8.12,8.13-12.06,12.06Zm-70,4c9.14-12.44,17.96-24.56,26.93-36.58,2.75-3.69,5.21-3.72,8.54-.42,8.7,8.61,17.39,17.23,25.98,25.96,1.65,1.67,2.61,1.99,4.35.09,3.46-3.77,7.22-7.27,10.81-10.91,7.62-7.73,11.26-16.62,9.68-27.79-1.26-8.94-5.75-15.67-12.49-20.78-11.55-8.77-30.57-7.72-41.2,3.35-7.44,7.74-15.16,15.22-22.76,22.81-2.92,2.92-4.89,2.94-7.76.07-7.69-7.68-15.36-15.38-23.05-23.05-2-1.99-4.29-3.62-6.74-4.99-12.07-6.72-29.85-4.73-39.11,6.29-9.06,10.78-10.63,25.28-3.41,37.16,3.86,6.35,9.87,10.75,14.67,16.24,2.44,2.79,4.06,3.06,6.71.12,7.64-8.49,15.64-16.65,23.34-25.09,2.62-2.87,6.69-2.11,7.96,1.35,1.08,2.96,2.63,5.76,4.02,8.61,4.47,9.13,8.97,18.24,13.56,27.57Zm58.47-3.64c-1.74-.57-2.53-1.75-3.48-2.7-7.08-7.04-14.18-14.06-21.18-21.18-1.66-1.69-2.37-1.9-3.98.31-9.04,12.45-18.34,24.71-27.49,37.09-1.66,2.24-3.55,2.33-5.61,1-.71-.46-1.01-1.59-1.43-2.45-5.46-11.1-10.9-22.21-16.35-33.32-1.93-3.93-1.96-3.95-5.04-.68-1.69,1.79-3.2,3.75-4.88,5.55-5.14,5.5-10.33,10.96-15.52,16.46,16.83,16.83,33.6,33.6,50.38,50.36.95.95,1.61,2.55,3.46.69,16.89-16.99,33.87-33.9,51.12-51.13Z"/>
  <path class="cls-1" d="m201.82,156.28c-4.59-9.33-9.09-18.44-13.56-27.57-1.39-2.85-2.94-5.65-4.02-8.61-1.26-3.46-5.33-4.23-7.96-1.35-7.7,8.44-15.7,16.6-23.34,25.09-2.64,2.94-4.27,2.67-6.71-.12-4.8-5.49-10.81-9.89-14.67-16.24-7.22-11.88-5.65-26.37,3.41-37.16,9.26-11.02,27.04-13.02,39.11-6.29,2.46,1.37,4.75,2.99,6.74,4.99,7.69,7.68,15.36,15.37,23.05,23.05,2.88,2.87,4.84,2.85,7.76-.07,7.6-7.59,15.32-15.07,22.76-22.81,10.63-11.06,29.64-12.12,41.2-3.35,6.74,5.12,11.23,11.85,12.49,20.78,1.58,11.17-2.06,20.07-9.68,27.79-3.6,3.65-7.35,7.14-10.81,10.91-1.74,1.89-2.7,1.58-4.35-.09-8.59-8.72-17.28-17.34-25.98-25.96-3.33-3.3-5.79-3.28-8.54.42-8.96,12.02-17.79,24.14-26.93,36.58Z"/>
  <path class="cls-1" d="m260.29,152.64c-17.25,17.23-34.23,34.13-51.12,51.13-1.85,1.86-2.5.27-3.46-.69-16.78-16.76-33.54-33.53-50.38-50.36,5.19-5.5,10.38-10.96,15.52-16.46,1.68-1.8,3.19-3.76,4.88-5.55,3.08-3.27,3.11-3.25,5.04.68,5.45,11.11,10.89,22.22,16.35,33.32.42.86.72,1.99,1.43,2.45,2.06,1.33,3.95,1.25,5.61-1,9.15-12.37,18.45-24.63,27.49-37.09,1.61-2.22,2.32-2,3.98-.31,7,7.12,14.09,14.14,21.18,21.18.95.95,1.74,2.13,3.48,2.7Z"/>
</svg>