<?xml version="1.0" encoding="UTF-8"?>
<svg id="_Слой_1" data-name="Слой 1" xmlns="http://www.w3.org/2000/svg" viewBox="0 0 512 512">
  <defs>
    <style>
      .cls-1 {
        fill: #db7889;
      }

      .cls-1, .cls-2, .cls-3, .cls-4, .cls-5, .cls-6 {
        stroke-width: 0px;
      }

      .cls-2 {
        fill: #020202;
      }

      .cls-2, .cls-3 {
        opacity: 0;
      }

      .cls-3 {
        fill: #010101;
      }

      .cls-4 {
        fill: #fff;
      }

      .cls-5 {
        fill: #85c7ef;
      }

      .cls-6 {
        fill: #ffcbc1;
      }
    </style>
  </defs>
  <path class="cls-4" d="m.1,256C.1,172.03.12,88.06,0,4.09,0,.67.67,0,4.09,0c167.94.11,335.87.11,503.81,0,3.42,0,4.1.67,4.09,4.09-.11,167.94-.11,335.88,0,503.81,0,3.42-.67,4.1-4.09,4.09-167.94-.11-335.87-.11-503.81,0-3.42,0-4.1-.67-4.09-4.09.12-83.97.1-167.94.1-251.91Zm144.11-107.37c-24.25,2.18-38.94,9.25-51.66,23.49-9.52,10.65-15.95,23.3-16.26,37.53-.69,32.63,0,65.28-.36,97.92-.1,8.71,7.58,19.22,15.63,21.36,9.14,2.43,18.01,1.91,25.92-4.24,1.08,2.13.62,3.96.62,5.71.03,36.64-.22,73.28.13,109.92.14,14.94,12.06,25.2,26.04,26.56,12.32,1.2,22.39-3.36,30.32-13.28,7.4,9.76,16.88,14.68,29.05,13.31,8.98-1.01,16.56-4.53,22.12-12.09,4.96-6.75,5.63-14.4,5.64-22.26.04-33.98.02-67.95.02-101.93,0-1.76,0-3.52,0-6.05,6.22,4.59,12.22,6.55,19.35,5.53,5.67-.81,10.56-2.7,14.87-6.3,6.97-5.82,7.88-13.94,7.92-22.14.14-27.15.3-54.3-.08-81.44-.14-9.84-1.57-19.48-5.24-29.03-8.89-23.13-34.46-41.59-59.67-41.19-1.48.02-3.35.69-4.15-1.45,30.69-21.2,35.28-58.12,12.62-84.76-20.48-24.08-59.41-27.64-83.97-1.22-20.8,22.38-23.09,61.04,11.14,86.05Zm163.77-40.47c-1.38,32.36,29.48,66.92,67.85,63.83,31.52-2.54,60.1-28.51,59.82-64.18-.29-35.74-28.32-63.11-64.4-63.61-34.39-.48-64.08,29.74-63.27,63.96Zm0,295.8c-1.43,32.43,29.51,66.97,67.76,63.93,31.41-2.5,60.13-28.33,59.91-64.1-.22-35.63-28.13-63.14-64.31-63.7-34.44-.53-64.13,29.68-63.36,63.87Zm63.06-83.99c34.87.22,64.87-28.55,64.63-63.94-.24-35.36-27.41-62.68-63.61-63.91-32.55-1.11-67.34,27.95-64.07,69.67,2.22,28.35,28.01,58.26,63.04,58.17Z"/>
  <path class="cls-3" d="m144.21,148.63c-34.23-25-31.94-63.67-11.14-86.05,24.56-26.42,63.49-22.87,83.97,1.22,22.66,26.64,18.07,63.56-12.62,84.76.8,2.14,2.67,1.47,4.15,1.45,25.22-.4,50.79,18.07,59.67,41.19,3.67,9.55,5.1,19.19,5.24,29.03.38,27.14.21,54.29.08,81.44-.04,8.21-.95,16.32-7.92,22.14-4.31,3.6-9.2,5.49-14.87,6.3-7.13,1.02-13.13-.94-19.35-5.53,0,2.52,0,4.29,0,6.05,0,33.98.03,67.95-.02,101.93,0,7.86-.68,15.52-5.64,22.26-5.56,7.56-13.14,11.08-22.12,12.09-12.17,1.37-21.65-3.55-29.05-13.31-7.93,9.92-18,14.48-30.32,13.28-13.99-1.37-25.9-11.62-26.04-26.56-.35-36.64-.1-73.28-.13-109.92,0-1.75.47-3.58-.62-5.71-7.92,6.15-16.78,6.67-25.92,4.24-8.05-2.14-15.72-12.65-15.63-21.36.36-32.64-.34-65.29.36-97.92.3-14.24,6.74-26.88,16.26-37.53,12.72-14.24,27.42-21.31,51.66-23.49Zm-18.08,191.26h.06c0,32.98-.05,65.97.04,98.95.02,7.06,2.76,12.85,8.98,16.76,12.06,7.58,30.29,2.18,33.99-10.23,1.31-4.42,1.63-9.05,1.64-13.59.12-34.48.05-68.97.12-103.45,0-1.82-1-4.53,2.83-4.43,3.25.09,5.06,1.18,5.12,4.55.02,1.17,0,2.33,0,3.5,0,33.32-.02,66.63.02,99.95,0,4.3-.66,8.92.67,12.82,2.87,8.43,9.54,15.18,23.87,14.31,7.02-.43,16.87-6.93,18.75-15.36.94-4.23,1.2-8.42,1.2-12.67.03-45.95.02-91.9.02-137.84,0-17.32,0-34.65.01-51.97,0-1.49,0-3.01.28-4.47.31-1.57,1.26-2.6,3.08-2.73,1.81-.12,3.06.29,3.98,2.05.85,1.62.63,3.24.63,4.86.03,19.49.04,38.98,0,58.47,0,3.22-.69,6.51-.28,9.66.88,6.76,7.38,12.49,13.63,12.97,11.81.91,17.84-3.39,19.9-11.38.89-3.47.9-7.22.91-10.85.07-24.99.12-49.98-.02-74.96-.04-6.06-.49-12.11-1.44-18.17-3.1-19.66-14.23-33.19-31.18-42.63-10.35-5.76-21.75-6.21-33.1-6.63-8.95-.33-17.95.54-26.87.41-8.27-.12-16.6-.72-24.86-.35-7.14.32-14.38.15-21.4,2.32-12.82,3.95-23.68,10.68-31.49,21.73-6.26,8.85-10.89,18.68-11.01,29.58-.37,32.15-.07,64.3-.17,96.45-.01,3.9,1.39,6.99,3.81,9.71,4.03,4.55,13.23,6.72,19.09,4.22,7.62-3.24,10.77-7.22,11.02-15.65.41-13.82.15-27.65.17-41.48.01-8.66-.02-17.33.02-25.99.01-2.17-.11-4.46,3.26-4.36,3.05.1,4.58,1.48,4.7,4.48.05,1.16.01,2.33.01,3.5,0,32.65,0,65.3,0,97.95Zm48.02-190.8c23.82,1.76,50.93-21.8,48.87-50.88-1.8-25.48-21.47-46.47-50.69-45.84-25.9.56-44.37,21.04-46.26,45.1-2.29,29.21,24.03,53.15,48.08,51.62Z"/>
  <path class="cls-2" d="m307.98,108.16c-.82-34.23,28.87-64.44,63.27-63.96,36.08.5,64.11,27.87,64.4,63.61.29,35.67-28.29,61.64-59.82,64.18-38.37,3.09-69.22-31.46-67.85-63.83Zm8.01-.3c-1.39,29.59,26.8,57.76,57.06,56.22,29.85-1.52,54.94-25.13,54.55-56.25-.4-31.78-24.26-55.52-57.56-55.52-29.24,0-54.53,25.57-54.05,55.55Z"/>
  <path class="cls-2" d="m307.98,403.96c-.77-34.19,28.92-64.4,63.36-63.87,36.18.56,64.09,28.07,64.31,63.7.22,35.77-28.5,61.59-59.91,64.1-38.25,3.04-69.19-31.49-67.76-63.93Zm62.97,55.95c30.42.1,56.64-24,56.66-55.59.02-31.21-23.22-55.89-56.97-56.09-29.94-.18-52.24,24.09-54.66,50.93-3.1,34.39,26.76,61.48,54.97,60.75Z"/>
  <path class="cls-2" d="m371.04,319.97c-35.03.09-60.82-29.82-63.04-58.17-3.27-41.72,31.52-70.78,64.07-69.67,36.19,1.23,63.37,28.55,63.61,63.91.24,35.39-29.76,64.16-64.63,63.94Zm-55.05-64.01c-1.29,29.52,26.74,57.39,56.71,56.09,29.61-1.29,55.05-24.59,54.91-55.91-.15-31.62-23.92-55.94-57.71-55.87-29.14.06-54.45,25.6-53.9,55.7Z"/>
  <path class="cls-5" d="m126.13,339.89c0-32.65,0-65.3,0-97.95,0-1.17.04-2.33-.01-3.5-.12-2.99-1.65-4.38-4.7-4.48-3.37-.11-3.25,2.19-3.26,4.36-.04,8.66-.01,17.32-.02,25.99-.02,13.83.24,27.66-.17,41.48-.25,8.43-3.4,12.41-11.02,15.65-5.86,2.5-15.06.33-19.09-4.22-2.41-2.72-3.82-5.81-3.81-9.71.1-32.15-.19-64.3.17-96.45.12-10.9,4.76-20.73,11.01-29.58,7.81-11.04,18.67-17.77,31.49-21.73,7.02-2.16,14.26-1.99,21.4-2.32,8.26-.37,16.59.23,24.86.35,8.92.13,17.92-.74,26.87-.41,11.35.42,22.75.87,33.1,6.63,16.95,9.44,28.09,22.97,31.18,42.63.95,6.06,1.4,12.11,1.44,18.17.15,24.99.1,49.98.02,74.96-.01,3.62-.02,7.38-.91,10.85-2.06,7.99-8.09,12.29-19.9,11.38-6.26-.48-12.75-6.21-13.63-12.97-.41-3.15.27-6.44.28-9.66.03-19.49.03-38.98,0-58.47,0-1.62.22-3.24-.63-4.86-.92-1.76-2.17-2.17-3.98-2.05-1.82.12-2.77,1.16-3.08,2.73-.28,1.45-.28,2.97-.28,4.47-.02,17.32-.01,34.65-.01,51.97,0,45.95.01,91.9-.02,137.84,0,4.25-.26,8.44-1.2,12.67-1.88,8.42-11.73,14.93-18.75,15.36-14.32.88-20.99-5.87-23.87-14.31-1.33-3.9-.67-8.53-.67-12.82-.04-33.32-.02-66.63-.02-99.95,0-1.17.02-2.33,0-3.5-.06-3.36-1.87-4.46-5.12-4.55-3.82-.1-2.82,2.61-2.83,4.43-.07,34.48,0,68.97-.12,103.45-.02,4.54-.33,9.17-1.64,13.59-3.69,12.42-21.92,17.82-33.99,10.23-6.21-3.9-8.96-9.7-8.98-16.76-.08-32.98-.04-65.97-.04-98.95h-.06Z"/>
  <path class="cls-6" d="m174.14,149.09c-24.05,1.52-50.37-22.41-48.08-51.62,1.89-24.06,20.35-44.54,46.26-45.1,29.22-.63,48.89,20.36,50.69,45.84,2.06,29.08-25.05,52.64-48.87,50.88Z"/>
  <path class="cls-1" d="m315.99,107.86c-.48-29.98,24.81-55.56,54.05-55.55,33.3,0,57.16,23.74,57.56,55.52.39,31.12-24.7,54.73-54.55,56.25-30.26,1.54-58.45-26.63-57.06-56.22Zm47.5,21.13c1.57.59,2.57-.53,3.66-1.62,10.8-10.83,21.68-21.58,32.38-32.5,1.66-1.69,4.09-3.88,1.08-6.63-2.78-2.53-4.68-.81-6.69,1.22-8.3,8.39-16.66,16.73-25,25.08q-4.97,4.98-10.11-.17c-2.94-2.94-5.83-5.93-8.83-8.81-2.09-2.01-4.83-3.86-7.17-1.27-2.04,2.25-1.12,5.09,1.22,7.35,5.26,5.08,10.39,10.29,15.54,15.48,1.06,1.07,1.98,2.27,3.93,1.86Z"/>
  <path class="cls-1" d="m370.95,459.91c-28.21.74-58.07-26.35-54.97-60.75,2.42-26.84,24.72-51.11,54.66-50.93,33.75.2,56.99,24.88,56.97,56.09-.02,31.59-26.24,55.69-56.66,55.59Zm-29-57.2c-.08,1.65.21,3.01,1.38,4.17,5.67,5.6,11.25,11.31,16.96,16.87,2.09,2.04,4.49,1.88,6.54-.16,10.95-10.91,21.91-21.81,32.73-32.85,1.68-1.71,4.02-3.92,1.01-6.63-2.8-2.52-4.69-.74-6.69,1.28-8.3,8.39-16.66,16.73-25,25.08q-4.94,4.95-9.77.13c-3.29-3.29-6.48-6.7-9.95-9.79-1.31-1.16-2.94-2.54-5.23-1.39-1.56.78-2.23,1.75-1.99,3.3Z"/>
  <path class="cls-1" d="m315.99,255.95c-.55-30.1,24.77-55.64,53.9-55.7,33.79-.07,57.56,24.25,57.71,55.87.15,31.33-25.3,54.63-54.91,55.91-29.97,1.3-57.99-26.57-56.71-56.09Zm25.95-.8c-.15,1.56.52,2.88,1.82,4.15,5.46,5.35,10.81,10.81,16.21,16.22,2.27,2.28,4.69,2.28,6.91.06,11.06-11.03,22.11-22.07,33.06-33.21,1.67-1.7,3.38-3.87.6-6.27-2.55-2.2-4.38-.97-6.34,1.01-8.41,8.52-16.9,16.96-25.36,25.43q-4.9,4.9-9.77.04c-3.29-3.29-6.46-6.72-9.95-9.79-1.29-1.13-2.9-2.46-5.25-1.35-1.74.83-1.95,1.95-1.94,3.69Z"/>
  <path class="cls-4" d="m363.49,128.99c-1.95.41-2.87-.79-3.93-1.86-5.15-5.19-10.28-10.4-15.54-15.48-2.34-2.26-3.26-5.1-1.22-7.35,2.35-2.59,5.09-.73,7.17,1.27,3,2.88,5.89,5.87,8.83,8.81q5.15,5.14,10.11.17c8.34-8.35,16.7-16.69,25-25.08,2.01-2.03,3.91-3.75,6.69-1.22,3.02,2.75.58,4.94-1.08,6.63-10.7,10.92-21.58,21.67-32.38,32.5-1.09,1.09-2.09,2.22-3.66,1.62Z"/>
  <path class="cls-4" d="m341.95,402.7c-.24-1.55.43-2.51,1.99-3.3,2.29-1.15,3.93.23,5.23,1.39,3.47,3.09,6.65,6.5,9.95,9.79q4.83,4.82,9.77-.13c8.34-8.35,16.7-16.69,25-25.08,1.99-2.02,3.89-3.8,6.69-1.28,3.01,2.71.67,4.92-1.01,6.63-10.82,11.04-21.78,21.94-32.73,32.85-2.05,2.04-4.45,2.2-6.54.16-5.71-5.56-11.29-11.27-16.96-16.87-1.18-1.16-1.46-2.52-1.38-4.17Z"/>
  <path class="cls-4" d="m341.94,255.16c-.02-1.73.19-2.86,1.94-3.69,2.35-1.12,3.96.22,5.25,1.35,3.49,3.07,6.66,6.5,9.95,9.79q4.87,4.86,9.77-.04c8.46-8.47,16.95-16.91,25.36-25.43,1.96-1.98,3.79-3.22,6.34-1.01,2.78,2.4,1.07,4.56-.6,6.27-10.95,11.14-21.99,22.18-33.06,33.21-2.23,2.22-4.64,2.22-6.91-.06-5.4-5.41-10.75-10.87-16.21-16.22-1.29-1.27-1.97-2.59-1.82-4.15Z"/>
</svg>