<?xml version="1.0" encoding="UTF-8"?>
<svg id="_Слой_1" data-name="Слой 1" xmlns="http://www.w3.org/2000/svg" viewBox="0 0 384 384">
  <defs>
    <style>
      .cls-1 {
        fill: #db7889;
      }

      .cls-1, .cls-2, .cls-3, .cls-4, .cls-5, .cls-6 {
        stroke-width: 0px;
      }

      .cls-2 {
        fill: #83838d;
      }

      .cls-3 {
        opacity: 0;
      }

      .cls-3, .cls-6 {
        fill: #010101;
      }

      .cls-4 {
        fill: #fff;
      }

      .cls-5 {
        fill: #ffb545;
      }

      .cls-6 {
        opacity: 0;
      }
    </style>
  </defs>
  <path class="cls-4" d="m383.93,191.97c0,62.96-.02,125.92.06,188.88,0,2.4-.26,3.16-2.98,3.15-126.04-.09-252.09-.09-378.13-.02-2.39,0-2.85-.59-2.85-2.89C.09,255.05.1,129,0,2.96,0,.17.86.02,3.19.02,129.11.08,255.03.08,380.95,0c2.6,0,3.05.56,3.05,3.09-.09,62.96-.07,125.92-.07,188.88ZM84.64,96.79c-10.81-.99-19.13,3.22-25.01,12.16-2.82,4.28-4.4,9.16-5.51,14.14-.33,1.48-.84,2.3-2.38,2.16-2.68-.24-4.94,1.13-7.36,1.87-15.24,4.64-24.88,26.11-14.5,41.65,1.76,2.64,1.09,3.77-1.01,5.13-4.8,3.11-8.82,6.98-11.76,11.94-5.35,9.01-5.26,24.94,2.62,32.83,1.16,1.16.98,2.07.7,3.49-1.01,5.04-2.81,9.79-1.79,15.35,2.22,12.09,8.73,19.95,20.3,23.71,4.5,1.46,9.18.61,13.79.66,1.64.02,2.64.22,3.91,1.83,6.11,7.77,14.05,12.53,24.25,12.2,5.74-.19,11.11-2.15,16.11-4.99,1.81-1.03,3.03-1.21,4.39.89,2.35,3.63,5.47,6.63,9.02,9.17,9.24,6.59,19.14,11.6,30.78,11.39,7.17-.13,14.15-2.02,20.89-4.47,2.68-.97,3.56-.24,4.47,2.31,6.69,18.72,19.74,30.59,39.1,35.17,13.41,3.17,25.73,8.17,34.85,19.01,4.97,5.91,9.56,12.15,14.56,18.04,5.16,6.08,13.63,11.44,22.11,5.81,11.79-7.83,14.35-13.31,11.45-24.59-1.83-7.12-4.85-13.94-7.45-20.85-2.41-6.4-5.1-12.66-4.52-19.79.19-2.29.47-3.18,3.03-3.12,8.74.2,17.38-.82,26.04-2.09,14.44-2.12,28.83-18.4,28.77-33.47-.02-5.18-.18-10.25-2.15-15.19-.6-1.51-1.27-3.1,2.08-4.2,14.71-4.82,24.26-17.12,20.98-34.11-1.26-6.53-5.04-11.79-9.81-16.37-.83-.8-2.76-1.76-1.94-2.8,2.79-3.54,2.92-8.28,5.58-11.77,13.54-17.83,20.15-38.08,21.22-60.27.27-5.67-.84-11.25-1.41-16.87-1.08-10.63-4.33-20.59-8.88-30.12-6.54-13.69-15.68-25.38-27.46-35.07-9.56-7.85-20-14.04-31.7-17.96-14.03-4.71-28.32-6.67-43.26-5.47-13.43,1.08-26.07,4.43-37.9,10.4-15.83,8-29.03,19.32-38.87,34.24-2.99,4.54-5.32,7.88-12.37,6.9-9.84-1.36-17.18,5.11-23.29,12.35-.99,1.18-1.4,1.83-3.15,1.03-3.94-1.8-8.1-3.17-12.44-3.62-7.48-.76-14.84-1.2-21.58,3.51-5.68,3.97-9.24,9.35-11.99,15.46-.71,1.58-1.68,3.51-3.46,2.89-2.74-.96-5.41-.08-8.04-.51Z"/>
  <path class="cls-3" d="m84.64,96.79c2.63.43,5.3-.45,8.04.51,1.78.62,2.74-1.31,3.46-2.89,2.75-6.11,6.31-11.48,11.99-15.46,6.74-4.72,14.1-4.27,21.58-3.51,4.34.44,8.5,1.82,12.44,3.62,1.75.8,2.16.14,3.15-1.03,6.11-7.24,13.45-13.72,23.29-12.35,7.05.98,9.37-2.36,12.37-6.9,9.84-14.92,23.03-26.24,38.87-34.24,11.84-5.98,24.47-9.33,37.9-10.4,14.94-1.2,29.24.77,43.26,5.47,11.7,3.92,22.14,10.11,31.7,17.96,11.78,9.69,20.92,21.37,27.46,35.07,4.55,9.54,7.8,19.49,8.88,30.12.57,5.62,1.68,11.19,1.41,16.87-1.07,22.2-7.68,42.44-21.22,60.27-2.65,3.49-2.79,8.23-5.58,11.77-.82,1.04,1.11,2.01,1.94,2.8,4.77,4.57,8.55,9.84,9.81,16.37,3.28,17-6.26,29.29-20.98,34.11-3.35,1.1-2.68,2.69-2.08,4.2,1.97,4.93,2.13,10.01,2.15,15.19.05,15.07-14.33,31.35-28.77,33.47-8.66,1.27-17.3,2.29-26.04,2.09-2.57-.06-2.85.84-3.03,3.12-.58,7.13,2.11,13.39,4.52,19.79,2.6,6.91,5.62,13.73,7.45,20.85,2.91,11.28.34,16.76-11.45,24.59-8.48,5.63-16.95.27-22.11-5.81-5-5.89-9.58-12.13-14.56-18.04-9.12-10.84-21.44-15.84-34.85-19.01-19.35-4.58-32.41-16.45-39.1-35.17-.91-2.55-1.8-3.28-4.47-2.31-6.74,2.45-13.72,4.34-20.89,4.47-11.64.21-21.54-4.8-30.78-11.39-3.55-2.53-6.67-5.53-9.02-9.17-1.36-2.1-2.57-1.92-4.39-.89-5,2.84-10.37,4.8-16.11,4.99-10.2.33-18.14-4.44-24.25-12.2-1.26-1.61-2.27-1.81-3.91-1.83-4.6-.05-9.29.8-13.79-.66-11.56-3.75-18.08-11.61-20.3-23.71-1.02-5.56.78-10.31,1.79-15.35.28-1.43.46-2.34-.7-3.49-7.88-7.89-7.97-23.82-2.62-32.83,2.94-4.96,6.96-8.83,11.76-11.94,2.1-1.36,2.78-2.49,1.01-5.13-10.39-15.53-.74-37,14.5-41.65,2.41-.74,4.68-2.11,7.36-1.87,1.54.14,2.05-.68,2.38-2.16,1.11-4.98,2.69-9.86,5.51-14.14,5.89-8.93,14.21-13.14,25.01-12.16Zm87.41-22.46c-3.2.17-5.89-.39-8.61.35-6.15,1.67-9.62,6.56-13.43,11.02-2.09,2.45-4.17,4.96-7.66,2.97-4.46-2.55-9.15-4.32-14.2-5.04-6.77-.97-13.09-.75-18.39,4.84-3.49,3.68-5.41,8.13-7.48,12.47-1.77,3.72-4.42,5.23-8.07,4.77-4.44-.56-8.88-.82-13.32-.63-4.08.18-7.67,1.46-10.8,4.46-4.68,4.48-6.63,10.04-7.74,16.13-.57,3.09-.81,6.61-4.97,7.03-1.6.16-3.11.58-4.67.8-9.12,1.26-14.88,6.37-17.86,15-2.72,7.91.28,14.25,5.2,20.09,2.64,3.13,2.72,4.78-.39,7.4-2.61,2.2-5.31,4.31-8.11,6.26-11.28,7.82-13.27,23.41-4.14,32.92,2.13,2.22,2.23,4.74,1.59,7.52-1.11,4.74-3.41,9.29-1.95,14.44,1.5,5.25,3.5,9.89,8.34,13.2,5.45,3.73,11.4,4.4,17.5,3.79,5.56-.56,8.93,1.55,11.73,6.15,3.17,5.21,12.42,8.06,18.35,6.85,4.84-.99,9.06-3.18,13.45-5.2,4.71-2.17,7.4-1.33,9.94,2.42,2.71,4.01,5.83,7.53,9.77,10.4,9.79,7.13,20.33,10.56,32.58,8.08,5.26-1.07,10.31-2.71,15.43-4.17,5.6-1.6,7.76-.65,9.06,4.92.86,3.69,2.1,7.24,3.9,10.46,7.27,12.96,18.33,20.8,32.9,23.92,13.45,2.88,25.45,8.69,34.96,18.89,5.52,5.92,10.51,12.31,15.29,18.84,3.77,5.16,8.47,7.52,12.19,5.73,6.8-3.28,10.27-8.77,8.52-14.07-2.07-6.31-4.38-12.55-6.75-18.75-3.5-9.16-7.05-18.28-5.73-28.39.69-5.29,1.76-8.47,8.57-8.53,9.09-.08,18.15-.56,27.17-2.11,11.91-2.04,21.46-14.3,21.99-25.78.3-6.46-1.94-12.44-3.48-18.55-1.01-4.01.03-5.77,4.07-6.77,2.57-.64,5.18-1.24,7.62-2.24,13.42-5.49,16.12-19.93,9.79-30.32-2.04-3.35-5.41-5.48-7.65-8.58-1.3-1.79-1.94-1.88-3.62-.53-15.05,12.11-31.7,20.66-51.17,23.12-1.65.21-3.99-.41-5.4,1.99-3.7,6.27-7,12.72-9.04,19.7-1.88,6.45-3.04,13.02.37,19.49,1.68,3.19,4.3,5.12,7.29,6.91,2.09,1.25,3.6,3.26,1.71,5.87-1.69,2.33-3.89,2.8-6.34,1.22-4.13-2.67-7.86-5.72-10.14-10.27-4.13-8.26-3.38-16.59-.94-25.15,1.82-6.38,4.73-12.27,7.68-18.54-8.39.7-16.18-.59-23.79-2.45-15.54-3.8-29.66-10.61-42.11-20.86-15.53-12.77-26.49-28.63-32.98-47.59-3.17-9.26-5.06-18.79-5.3-28.6-.04-1.75.03-2.48-2.44-1.99-5.97,1.18-11.79,2.56-17.2,5.41-.73.39-1.43.35-2.11-.05-1.48-.85-3.02-1.53-3.05-3.73-.03-2.11.61-3.42,2.6-4.35,6.41-3.02,13.18-4.71,20.11-5.82,1.15-.18,1.96.04,2.13-1.68,1.2-11.95,3.87-23.56,9.23-35.06Zm189.38,43c1.03-26.32-10.77-52.51-31.05-70.7-20.92-18.76-45.6-26.31-73.35-24.03-45.76,3.76-83.76,41.55-85.86,90.14-2.51,58.17,43.81,98.45,90.93,100.12,56.26,1.98,100.6-43.46,99.33-95.54Z"/>
  <path class="cls-1" d="m172.05,74.33c-5.36,11.5-8.02,23.1-9.23,35.06-.17,1.72-.99,1.5-2.13,1.68-6.94,1.11-13.71,2.8-20.11,5.82-1.99.94-2.63,2.24-2.6,4.35.03,2.21,1.57,2.88,3.05,3.73.68.39,1.38.43,2.11.05,5.41-2.85,11.24-4.22,17.2-5.41,2.47-.49,2.4.24,2.44,1.99.24,9.81,2.13,19.34,5.3,28.6,6.49,18.97,17.45,34.82,32.98,47.59,12.46,10.24,26.57,17.05,42.11,20.86,7.61,1.86,15.4,3.15,23.79,2.45-2.95,6.27-5.86,12.16-7.68,18.54-2.44,8.55-3.19,16.88.94,25.15,2.28,4.55,6.01,7.6,10.14,10.27,2.45,1.59,4.65,1.12,6.34-1.22,1.9-2.61.38-4.62-1.71-5.87-2.99-1.79-5.61-3.72-7.29-6.91-3.41-6.47-2.26-13.04-.37-19.49,2.04-6.97,5.34-13.42,9.04-19.7,1.42-2.4,3.75-1.78,5.4-1.99,19.47-2.45,36.12-11,51.17-23.12,1.68-1.35,2.32-1.26,3.62.53,2.24,3.09,5.61,5.23,7.65,8.58,6.33,10.39,3.63,24.82-9.79,30.32-2.44,1-5.05,1.6-7.62,2.24-4.04,1.01-5.08,2.77-4.07,6.77,1.54,6.11,3.78,12.1,3.48,18.55-.53,11.48-10.09,23.74-21.99,25.78-9.02,1.55-18.08,2.03-27.17,2.11-6.81.06-7.88,3.24-8.57,8.53-1.32,10.11,2.23,19.23,5.73,28.39,2.37,6.2,4.68,12.44,6.75,18.75,1.74,5.31-1.72,10.79-8.52,14.07-3.72,1.8-8.42-.57-12.19-5.73-4.78-6.53-9.77-12.92-15.29-18.84-9.51-10.19-21.51-16.01-34.96-18.89-14.56-3.12-25.63-10.97-32.9-23.92-1.8-3.22-3.05-6.77-3.9-10.46-1.29-5.57-3.45-6.52-9.06-4.92-5.12,1.46-10.17,3.1-15.43,4.17-12.24,2.48-22.79-.95-32.58-8.08-3.94-2.87-7.06-6.39-9.77-10.4-2.53-3.75-5.22-4.59-9.94-2.42-4.38,2.02-8.61,4.21-13.45,5.2-5.93,1.21-15.18-1.64-18.35-6.85-2.8-4.61-6.17-6.71-11.73-6.15-6.1.61-12.05-.06-17.5-3.79-4.85-3.32-6.85-7.96-8.34-13.2-1.47-5.14.84-9.69,1.95-14.44.65-2.78.54-5.3-1.59-7.52-9.13-9.52-7.15-25.1,4.14-32.92,2.8-1.94,5.5-4.06,8.11-6.26,3.11-2.62,3.03-4.27.39-7.4-4.93-5.84-7.92-12.18-5.2-20.09,2.97-8.63,8.74-13.73,17.86-15,1.56-.22,3.07-.63,4.67-.8,4.16-.42,4.4-3.94,4.97-7.03,1.11-6.09,3.07-11.65,7.74-16.13,3.13-3,6.73-4.28,10.8-4.46,4.44-.2,8.88.07,13.32.63,3.65.46,6.3-1.06,8.07-4.77,2.07-4.34,3.99-8.78,7.48-12.47,5.29-5.59,11.62-5.81,18.39-4.84,5.05.72,9.74,2.49,14.2,5.04,3.49,1.99,5.57-.52,7.66-2.97,3.81-4.46,7.28-9.34,13.43-11.02,2.72-.74,5.41-.18,8.61-.35Zm-62.86,119.96c8.86-.67,16.09-4.24,22.3-9.68,8.78-7.69,14.9-17.45,20.18-27.74.68-1.31,1.68-2.68,1.04-4.44-.63-1.73-1.64-2.35-3.55-2.52-2.66-.24-4.17.83-5.12,3.03-4.34,10.07-10.74,18.7-18.9,25.92-3.99,3.53-8.59,6.07-14.31,6.48-7.35.53-12.58-3.14-17.46-7.69-2.24-2.09-4.54-2.09-6.62-.54-2.46,1.83-1.49,4.36.23,6.07,6.25,6.25,13.59,10.43,22.2,11.09Zm107.58,53.01c0,2.4-.12,3.91.03,5.39.21,2.05.74,3.85,3.49,3.83,2.68-.02,4.2-1.3,4.65-3.78.24-1.33-.09-2.76.07-4.11,1.25-10.47-3.76-17.86-12.03-23.17-11.3-7.26-24.1-9.23-37.3-9.53-3.06-.07-5.24,1.28-5.2,3.86.04,2.34,2.16,4.36,5.03,4.44,2.96.08,5.87.32,8.82.68,7.51.9,14.73,2.58,21.51,6.04,7.08,3.61,11.84,8.62,10.91,16.36Zm-136.95-32.82c-1.08.29-2.26.09-3.51.42-2.68.71-4.4,2.35-4.11,4.79.32,2.62,2.44,4.05,5.36,3.82,1.49-.12,3,.08,4.49-.04,4.03-.32,6.97,1.87,9.1,4.69,3.83,5.06,6.06,10.94,7.15,17.23.44,2.53,1.82,4.51,4.55,4.25,2.71-.25,3.91-2.2,3.69-4.99-.59-7.49-3.62-14.16-7.75-20.16-4.42-6.42-10.85-9.94-18.97-10.02Z"/>
  <path class="cls-5" d="m361.44,117.32c1.27,52.08-43.07,97.52-99.33,95.54-47.12-1.66-93.44-41.95-90.93-100.12,2.1-48.59,40.09-86.38,85.86-90.14,27.75-2.28,52.43,5.26,73.35,24.03,20.28,18.18,32.08,44.38,31.05,70.7Zm-170.11-.03c0,4.5,0,8.99,0,13.49,0,3.31,1.47,5.06,4.94,4.97,3.25-.08,6.5.03,9.74-.04,1.47-.03,2.31.09,2.8,1.91.72,2.62,3.4,5.32,2.93,7.47-.52,2.38-3.66,4.18-5.67,6.23-.61.62-1.25,1.22-1.85,1.85-3.32,3.46-3.35,5.26.03,8.68,5.97,6.03,11.99,12.03,18.01,18.01,2.37,2.35,5.32,2.33,7.74-.04,2.32-2.27,4.58-4.6,6.89-6.88.75-.74,1.21-1.53,2.73-.71,2.62,1.43,6.46,1.55,8.1,3.58,1.77,2.19.38,5.98.53,9.07.06,1.12,0,2.25.02,3.37.07,2.88,1.63,4.36,4.44,4.37,9.12.05,18.24.08,27.35,0,3.21-.03,4.97-1.81,5-5.11.01-1.12.19-2.29-.03-3.37-1.32-6.47,1.11-10.24,7.63-11.84,1.74-.43,2.64-.48,3.81.74,2.24,2.35,4.62,4.56,6.88,6.89,2.24,2.32,4.41,2.33,6.68.06,6.43-6.45,12.88-12.9,19.33-19.33,2.14-2.13,2.08-4.24.02-6.36-1.13-1.16-2.28-2.31-3.42-3.45q-5.19-5.19-2.71-11.64c.04-.11.17-.19.22-.3.87-2.19,2.03-3.62,4.85-3.27,2.83.35,5.74.13,8.61.06,3.21-.08,5.06-1.7,5.08-5.02.03-8.87.07-17.74-.02-26.6-.03-3.47-1.84-5.11-5.3-5.16-3.25-.04-6.5-.12-9.74.04-1.46.07-2.24-.41-2.8-1.65q-3.61-8.02,2.68-14.3c.53-.53,1.05-1.06,1.58-1.59,3.25-3.26,3.25-5.71-.09-9.08-5.01-5.06-10.06-10.08-15.09-15.12-5.56-5.57-7.71-5.79-12.94.03-3.77,4.2-7.19,6.63-12.74,2.92-1.65-1.11-2.58-1.82-2.51-3.81.11-3.12-.05-6.25.05-9.37.1-3.35-1.99-4.87-4.77-4.93-9.36-.19-18.73-.07-28.1-.04-2.51,0-3.82,1.37-3.93,3.86-.05,1.25-.22,2.53,0,3.74,1.24,6.68-.85,11.09-7.93,12.61-1.53.33-2.53.8-3.77-.64-1.95-2.26-4.19-4.28-6.31-6.39-2.75-2.74-5.55-2.79-8.24-.11-4.86,4.85-9.66,9.77-14.57,14.57-8.13,7.95-7.11,7.31.11,14.54,4.72,4.73,4.58,4.68,2.38,10.61-1.15,3.11-2.71,4.7-6.28,4.19-2.57-.37-5.24-.04-7.86-.07-3.06-.04-4.5,1.49-4.5,4.49,0,4.62,0,9.24,0,13.86Z"/>
  <path class="cls-3" d="m109.2,194.28c-8.61-.65-15.95-4.84-22.2-11.09-1.72-1.72-2.69-4.24-.23-6.07,2.08-1.55,4.38-1.55,6.62.54,4.88,4.55,10.11,8.22,17.46,7.69,5.72-.41,10.32-2.95,14.31-6.48,8.15-7.22,14.55-15.85,18.9-25.92.95-2.2,2.46-3.27,5.12-3.03,1.92.17,2.93.79,3.55,2.52.64,1.76-.37,3.12-1.04,4.44-5.29,10.29-11.4,20.05-20.18,27.74-6.21,5.44-13.45,9.01-22.3,9.68Z"/>
  <path class="cls-3" d="m216.78,247.29c.93-7.75-3.83-12.75-10.91-16.36-6.78-3.45-14-5.13-21.51-6.04-2.95-.35-5.87-.6-8.82-.68-2.87-.08-4.99-2.09-5.03-4.44-.05-2.57,2.13-3.93,5.2-3.86,13.19.3,25.99,2.27,37.3,9.53,8.27,5.31,13.28,12.7,12.03,23.17-.16,1.36.17,2.78-.07,4.11-.46,2.48-1.97,3.76-4.65,3.78-2.74.02-3.27-1.77-3.49-3.83-.15-1.48-.03-2.99-.03-5.39Z"/>
  <path class="cls-3" d="m79.83,214.47c8.12.07,14.56,3.6,18.97,10.02,4.13,6,7.16,12.67,7.75,20.16.22,2.79-.97,4.74-3.69,4.99-2.73.25-4.12-1.73-4.55-4.25-1.08-6.29-3.32-12.17-7.15-17.23-2.13-2.82-5.08-5.01-9.1-4.69-1.49.12-3-.08-4.49.04-2.91.23-5.04-1.2-5.36-3.82-.3-2.44,1.43-4.09,4.11-4.79,1.25-.33,2.44-.13,3.51-.42Z"/>
  <path class="cls-6" d="m191.33,117.29c0-4.62,0-9.24,0-13.86,0-3.01,1.44-4.53,4.5-4.49,2.62.03,5.29-.3,7.86.07,3.56.51,5.13-1.08,6.28-4.19,2.2-5.94,2.33-5.89-2.38-10.61-7.21-7.23-8.23-6.59-.11-14.54,4.91-4.8,9.71-9.72,14.57-14.57,2.68-2.67,5.48-2.62,8.24.11,2.12,2.11,4.36,4.13,6.31,6.39,1.24,1.44,2.24.97,3.77.64,7.09-1.52,9.17-5.93,7.93-12.61-.22-1.21-.05-2.49,0-3.74.11-2.49,1.42-3.85,3.93-3.86,9.37-.03,18.74-.15,28.1.04,2.78.06,4.87,1.58,4.77,4.93-.09,3.12.06,6.25-.05,9.37-.07,1.99.86,2.71,2.51,3.81,5.55,3.71,8.96,1.28,12.74-2.92,5.23-5.82,7.38-5.6,12.94-.03,5.03,5.04,10.08,10.06,15.09,15.12,3.34,3.37,3.34,5.83.09,9.08-.53.53-1.05,1.06-1.58,1.59q-6.29,6.29-2.68,14.3c.56,1.24,1.34,1.72,2.8,1.65,3.24-.16,6.49-.08,9.74-.04,3.46.04,5.27,1.69,5.3,5.16.08,8.87.05,17.74.02,26.6-.01,3.32-1.87,4.94-5.08,5.02-2.87.08-5.78.29-8.61-.06-2.82-.35-3.98,1.08-4.85,3.27-.04.11-.17.19-.22.3q-2.48,6.45,2.71,11.64c1.15,1.15,2.3,2.29,3.42,3.45,2.06,2.12,2.12,4.23-.02,6.36-6.45,6.44-12.9,12.88-19.33,19.33-2.26,2.27-4.43,2.26-6.68-.06-2.26-2.33-4.63-4.55-6.88-6.89-1.17-1.22-2.07-1.17-3.81-.74-6.51,1.6-8.94,5.37-7.63,11.84.22,1.08.04,2.24.03,3.37-.03,3.3-1.79,5.08-5,5.11-9.12.08-18.24.05-27.35,0-2.8-.02-4.36-1.5-4.44-4.37-.03-1.12.04-2.25-.02-3.37-.16-3.09,1.23-6.88-.53-9.07-1.64-2.03-5.48-2.15-8.1-3.58-1.52-.83-1.98-.03-2.73.71-2.31,2.28-4.57,4.61-6.89,6.88-2.42,2.37-5.37,2.39-7.74.04-6.02-5.98-12.04-11.98-18.01-18.01-3.39-3.42-3.35-5.23-.03-8.68.61-.63,1.24-1.23,1.85-1.85,2-2.05,5.14-3.86,5.67-6.23.47-2.15-2.21-4.85-2.93-7.47-.5-1.82-1.33-1.94-2.8-1.91-3.25.07-6.5-.04-9.74.04-3.47.08-4.94-1.67-4.94-4.97,0-4.5,0-8.99,0-13.49Zm84.64-66.85c-5.74-.04-11.49-.04-17.23-.14-1.59-.03-2.24.43-2.17,2.11.12,2.62-.18,5.27.08,7.86.35,3.53-1.61,5.48-4.44,6.34-4.09,1.24-7.97,2.86-11.79,4.71-2.67,1.3-5.14,1.3-7.27-1.21-1.29-1.52-2.92-2.75-4.18-4.28-1.9-2.3-3.5-2.76-5.61-.15-1.8,2.22-4.02,4.1-6.04,6.14-1.67,1.68-4.35,3.19-4.72,5.13-.5,2.61,3.28,3.16,4.72,5.09.37.5.88.88,1.32,1.33,3.01,3.12,3.38,6.36.99,10.16-1.79,2.84-2.86,6.06-3.76,9.36-.73,2.67-2.53,4.72-5.96,4.41-2.73-.24-5.49,0-8.24-.07-1.41-.04-2.01.38-1.99,1.9.07,5.37.07,10.74,0,16.11-.02,1.62.56,2.21,2.18,2.16,2.87-.09,5.75-.03,8.62-.02,2.55,0,4.31.73,5.08,3.64,1.1,4.19,2.79,8.21,4.89,12.04,1.42,2.59,1.44,5.02-1.2,7.16-2.03,1.64-3.65,3.77-5.62,5.49-1.46,1.28-1.61,2.15-.06,3.52,2.33,2.07,4.45,4.38,6.66,6.59,5.93,5.93,6.05,6.04,11.85-.09,3.24-3.43,4.58-4.1,9.95-1.52,1.4.67,2.73,1.8,4.19,1.98,9.34,1.19,12.01,6.74,10.43,15.3-.36,1.98.32,2.93,2.59,2.86,4.99-.16,9.99-.13,14.99,0,1.91.05,2.7-.42,2.58-2.47-.16-2.86.19-5.77-.1-8.61-.3-2.97,1.25-4.53,3.63-5.16,4-1.07,7.69-2.75,11.38-4.58,2.87-1.43,5.57-1.4,7.9,1.39,1.67,2.01,3.75,3.67,5.51,5.6.96,1.05,1.53,1.03,2.51.03,3.75-3.85,7.53-7.66,11.41-11.38,1.27-1.22,1.44-2.01.05-3.26-2.13-1.92-4.14-3.98-6.11-6.06-1.75-1.84-2.33-3.86-.83-6.25,2.07-3.29,3.46-6.87,4.61-10.6,1.7-5.51,1.99-5.53,7.8-5.64,2.96-.06,6.82,1.32,8.63-.58,1.78-1.88.47-5.71.51-8.68.05-3.47,1.2-8.02-.53-10.14-1.81-2.22-6.54-.47-9.98-.7-.12,0-.25,0-.37,0-3.03.23-4.71-1.17-5.57-4.1-1.08-3.69-2.22-7.39-4.45-10.62-2.36-3.42-1.72-6.26,1.44-8.93,2.38-2.01,6.31-4.56,6.14-6.58-.21-2.49-3.92-4.72-6.19-6.99-2.38-2.37-4.76-6.39-7.29-6.51-2.92-.13-5.17,4.13-7.53,6.63-2.26,2.4-4.69,2.44-7.29,1.16-3.78-1.86-7.54-3.65-11.7-4.63-2.41-.57-3.85-2.23-3.65-5.16.24-3.48-.02-6.98-.06-10.48.12-.54-.1-.74-.63-.61Z"/>
  <path class="cls-2" d="m276.61,51.05c.04,3.49.3,7,.06,10.48-.2,2.93,1.24,4.6,3.65,5.16,4.16.98,7.92,2.77,11.7,4.63,2.6,1.28,5.03,1.24,7.29-1.16,2.36-2.5,4.61-6.76,7.53-6.63,2.53.12,4.91,4.14,7.29,6.51,2.27,2.27,5.98,4.5,6.19,6.99.17,2.02-3.76,4.57-6.14,6.58-3.16,2.67-3.8,5.5-1.44,8.93,2.23,3.23,3.37,6.93,4.45,10.62.86,2.92,2.54,4.32,5.57,4.1.12,0,.25,0,.37,0,3.44.24,8.17-1.52,9.98.7,1.73,2.12.58,6.66.53,10.14-.04,2.97,1.27,6.8-.51,8.68-1.81,1.9-5.67.53-8.63.58-5.81.11-6.1.13-7.8,5.64-1.15,3.72-2.54,7.31-4.61,10.6-1.5,2.39-.91,4.41.83,6.25,1.97,2.08,3.98,4.15,6.11,6.06,1.39,1.25,1.22,2.04-.05,3.26-3.87,3.72-7.66,7.53-11.41,11.38-.98,1.01-1.55,1.02-2.51-.03-1.76-1.94-3.84-3.6-5.51-5.6-2.32-2.79-5.02-2.82-7.9-1.39-3.68,1.83-7.37,3.51-11.38,4.58-2.38.63-3.93,2.19-3.63,5.16.29,2.84-.06,5.75.1,8.61.12,2.05-.68,2.51-2.58,2.47-4.99-.12-10-.15-14.99,0-2.27.07-2.95-.88-2.59-2.86,1.57-8.56-1.09-14.11-10.43-15.3-1.46-.19-2.79-1.31-4.19-1.98-5.37-2.58-6.72-1.91-9.95,1.52-5.79,6.13-5.92,6.02-11.85.09-2.21-2.21-4.33-4.52-6.66-6.59-1.55-1.37-1.39-2.24.06-3.52,1.96-1.73,3.59-3.86,5.62-5.49,2.64-2.14,2.62-4.57,1.2-7.16-2.1-3.84-3.79-7.85-4.89-12.04-.76-2.91-2.53-3.63-5.08-3.64-2.87,0-5.75-.07-8.62.02-1.62.05-2.2-.54-2.18-2.16.07-5.37.07-10.74,0-16.11-.02-1.52.59-1.94,1.99-1.9,2.75.07,5.51-.18,8.24.07,3.44.31,5.23-1.74,5.96-4.41.9-3.3,1.97-6.52,3.76-9.36,2.39-3.79,2.02-7.03-.99-10.16-.43-.45-.95-.84-1.32-1.33-1.44-1.93-5.22-2.48-4.72-5.09.37-1.94,3.05-3.45,4.72-5.13,2.02-2.04,4.24-3.92,6.04-6.14,2.12-2.61,3.72-2.16,5.61.15,1.26,1.54,2.9,2.76,4.18,4.28,2.13,2.51,4.6,2.51,7.27,1.21,3.82-1.85,7.7-3.47,11.79-4.71,2.84-.86,4.79-2.82,4.44-6.34-.26-2.6.04-5.25-.08-7.86-.07-1.68.58-2.14,2.17-2.11,5.74.1,11.49.1,17.23.14.21.2.42.41.63.61Zm-42.62,65.85c-.47,18.39,14.79,32.61,30.8,33.08,19.71.58,34.53-14.58,34.29-32.89-.25-18.6-13.65-31.42-31.91-32.27-19.19-.9-33.93,16.31-33.18,32.08Z"/>
  <path class="cls-2" d="m276.61,51.05c-.21-.2-.42-.41-.63-.61.54-.13.75.06.63.61Z"/>
  <path class="cls-3" d="m233.99,116.9c-.75-15.77,13.99-32.98,33.18-32.08,18.27.86,31.67,13.67,31.91,32.27.25,18.31-14.58,33.47-34.29,32.89-16.01-.47-31.27-14.69-30.8-33.08Zm8.25-.06c-.37,13.59,11.24,24.74,23.52,24.89,13.53.16,26.04-11.78,25.1-24.47-1.1-14.88-9.86-23.74-24.96-24.03-13-.25-23.09,9.92-23.66,23.61Z"/>
  <path class="cls-4" d="m242.24,116.85c.57-13.69,10.67-23.87,23.66-23.61,15.09.29,23.86,9.15,24.96,24.03.94,12.69-11.57,24.63-25.1,24.47-12.28-.14-23.89-11.3-23.52-24.89Z"/>
</svg>