<?xml version="1.0" encoding="UTF-8"?>
<svg id="_Слой_1" data-name="Слой 1" xmlns="http://www.w3.org/2000/svg" viewBox="0 0 384 384">
  <defs>
    <style>
      .cls-1 {
        fill: #e9e9e9;
      }

      .cls-1, .cls-2, .cls-3, .cls-4, .cls-5, .cls-6 {
        stroke-width: 0px;
      }

      .cls-2 {
        fill: #83838d;
      }

      .cls-3 {
        fill: #010101;
        opacity: 0;
      }

      .cls-4 {
        fill: #fff;
      }

      .cls-5 {
        fill: #85c7ef;
      }

      .cls-6 {
        fill: #ffcbc1;
      }
    </style>
  </defs>
  <path class="cls-4" d="m383.93,191.99c0,62.83-.02,125.67.06,188.5,0,2.69-.42,3.52-3.37,3.52-125.8-.09-251.6-.09-377.4,0-2.79,0-3.22-.67-3.22-3.29C.08,254.91.07,129.12,0,3.33,0,.81.31,0,3.19,0c125.93.1,251.85.1,377.78.01,2.63,0,3.04.6,3.04,3.1-.09,62.96-.07,125.91-.07,188.87Zm-24.68-106.68c-.18-4.87-.21-8.29-.71-11.76-1.49-10.53-4.32-20.6-8.89-30.19-6.42-13.46-15.14-25.19-26.6-34.78-4.56-3.81-9.49-5.44-15.03-2.45-5.72,3.08-11.26,6.48-16.93,9.66-1.67.94-3.59,2.16-3.74,3.82-.43,4.64-3.74,6.13-7.1,8.14-12.96,7.72-26.42,9.79-40.96,5.1-10.15-3.28-20.62-3.06-30.84-.37-6.26,1.65-12.3,4.22-17.72,7.98-2.12,1.47-3.95,1.3-6.4-.14-6.36-3.75-13.4-5.66-20.86-5.77-8.16-.11-16.25.7-24.38,1.38-14.76,1.24-28.34-2.95-40.87-10.74-.89-.55-1.63-.92-1.46-2.16.49-3.53-1.87-5.58-4.37-7.13-4.91-3.05-10-5.82-15.07-8.61-8.83-4.85-12.38-2.81-18.3,2.48-14.9,13.33-25.25,29.6-30.92,48.81-3.57,12.11-5.13,24.4-3.29,36.98.75,5.12,2.54,9.74,7.55,12.14,4.22,2.02,8.53,3.87,12.9,5.53,3.3,1.26,6.66,1.61,9.64-1.12,1.2-1.1,2.44-.6,3.83.14,7.24,3.87,14.37,8.06,21.91,11.24,7.3,3.08,12.66,8.09,17.55,13.98,1.16,1.4.81,2.35.11,3.6-1.31,2.34-2.3,4.84-2.26,7.55.14,8.89,5.53,16.88,16.54,18.6,1.45.23,2.55-.13,1.96,2.21-1.83,7.22.41,13.41,6,18.12,5.32,4.48,11.44,5.03,17.8,2.24,2.03-.89,3.3-1.07,4.65,1.38,4.78,8.7,14.45,11.82,23.53,7.06,1.96-1.03,2.68-.82,3.76,1.08,5.38,9.57,17.12,12.19,26.17,5.37,2.35-1.77,3.05-5.83,5.96-5.63,2.61.18,4.94,2.89,7.63,3.82,10.21,3.53,20.31.06,22.85-11.47.82-3.73,2.04-4.37,4.95-3.86,6.32,1.12,15.38-5.25,15.71-12.05.3-6.3,3.14-7.54,8.27-9.31,7.53-2.6,11.64-8.68,11.2-17.18-.07-1.4-1.08-3.78,2.12-3.49,7.32.65,16.94-8.65,15.81-16.29-.28-1.91.61-2.86,2.29-3.6,5.51-2.43,10.95-5,16.44-7.48,4.93-2.22,9.9-4.34,14.81-6.61,1.4-.64,2.54-.81,3.69.37,2.68,2.74,5.83,2.79,9.13,1.43,4.78-1.97,9.56-3.96,14.29-6.06,3.05-1.35,5.39-3.74,5.97-6.94.98-5.41,2.19-10.85,1.69-15.02Zm-23.25,151.15c0-7.37-.11-14.74.05-22.11.07-3.16-1.62-4.54-4.24-5.07-6.78-1.35-13.6-2.47-20.37-3.83-2.45-.49-5.23-.7-6.06-3.95-.84-3.29-2.58-6.25-3.82-9.38-1.16-2.91-2.72-3.77-5.57-2.59-10.58,4.35-21.2,8.61-31.73,13.09-2.07.88-3.11,2.6-1.86,5.25,2.97,6.29,4.86,13.05,5.2,19.9.47,9.44.55,18.96-2.13,28.25-4.64,16.08-13.4,29.29-26.66,39.59-10.26,7.97-21.66,12.84-34.5,15.2-11.69,2.15-22.98,1.21-34.02-2.29-15.02-4.75-27.67-13.36-37.3-25.97-9.63-12.62-15.01-26.92-15.96-42.78-.65-10.88,1.63-21.33,5.24-31.54,1.33-3.77.67-4.97-2.93-6.43-9.67-3.94-19.33-7.9-28.96-11.94-3.8-1.6-5.34-1.17-7,2.54-1.52,3.41-2.97,6.86-4.38,10.31-.5,1.23-1.12,1.84-2.6,2.1-7.77,1.36-15.49,3-23.25,4.42-2.47.45-3.6,1.72-3.6,4.18.01,15.24-.02,30.48.04,45.72,0,2.2.67,3.75,3.52,4.22,7.28,1.19,14.46,2.97,21.72,4.33,2.57.48,4.26,1.49,5.25,4.05,2.61,6.75,5.28,13.47,8.25,20.06.91,2.03.51,3.31-.57,4.88-4.19,6.11-8.17,12.37-12.55,18.33-2.13,2.9-1.67,4.9.66,7.22,10.38,10.29,20.71,20.63,31.02,30.99,2.01,2.02,3.96,2.03,6.22.53,6.54-4.35,13.15-8.59,19.61-13.05,1.36-.94,2.19-.92,3.61-.31,6.96,2.97,13.95,5.87,21,8.59,2.57.99,3.5,2.64,3.97,5.23,1.33,7.37,2.98,14.69,4.48,22.03.47,2.3,1.92,3.2,4.19,3.2,15.12-.02,30.24-.02,45.35,0,2.56,0,3.94-1.45,4.38-3.67,1.59-7.95,3.12-15.91,4.42-23.9.24-1.46,1.01-1.89,1.93-2.27,7.1-2.98,14.26-5.82,21.35-8.83,2.18-.93,3.87-.86,5.91.57,5.9,4.17,12.06,7.97,17.95,12.14,2.6,1.84,4.59,1.76,6.79-.45,10.48-10.54,20.98-21.06,31.54-31.53,2.03-2.02,2.09-3.69.43-6.07-4.36-6.28-8.35-12.81-12.72-19.08-1.2-1.72-1.07-2.91-.34-4.66,2.85-6.78,5.44-13.67,8.35-20.43.65-1.5,1.29-3.21,3.69-3.61,7.51-1.25,14.92-3.07,22.43-4.33,3.66-.61,4.62-2.58,4.58-5.87-.09-7-.03-13.99-.03-20.99Zm-90.69-1.71c.61-5.02-1.25-11.24-3.18-17.42-1.03-3.32-3.32-4.19-6.52-2.85-11.88,4.95-23.78,9.85-35.64,14.85-4.67,1.97-8.9,2.71-14.02.32-11.75-5.48-23.87-10.17-35.87-15.08-4.15-1.7-5.51-.96-7.02,3.41-2.82,8.14-4.1,16.3-2.92,25.09,2,14.84,9.16,26.69,20.63,35.43,10.8,8.22,23.27,12.32,37.47,10.37,11.49-1.58,21.46-6.03,29.88-13.57,11.47-10.28,17.32-23.37,17.21-40.55Z"/>
  <path class="cls-3" d="m359.26,85.31c.5,4.17-.71,9.61-1.69,15.02-.58,3.2-2.92,5.59-5.97,6.94-4.73,2.09-9.51,4.09-14.29,6.06-3.3,1.36-6.45,1.31-9.13-1.43-1.15-1.17-2.29-1.01-3.69-.37-4.91,2.26-9.88,4.39-14.81,6.61-5.49,2.48-10.93,5.05-16.44,7.48-1.68.74-2.57,1.69-2.29,3.6,1.13,7.64-8.49,16.95-15.81,16.29-3.2-.29-2.2,2.09-2.12,3.49.44,8.5-3.67,14.58-11.2,17.18-5.13,1.77-7.97,3.01-8.27,9.31-.32,6.8-9.39,13.16-15.71,12.05-2.91-.51-4.13.13-4.95,3.86-2.54,11.53-12.65,15-22.85,11.47-2.68-.93-5.01-3.63-7.63-3.82-2.91-.21-3.61,3.86-5.96,5.63-9.05,6.82-20.78,4.2-26.17-5.37-1.07-1.9-1.79-2.11-3.76-1.08-9.08,4.76-18.75,1.64-23.53-7.06-1.35-2.45-2.62-2.27-4.65-1.38-6.36,2.79-12.48,2.24-17.8-2.24-5.59-4.71-7.84-10.9-6-18.12.59-2.34-.5-1.98-1.96-2.21-11.01-1.72-16.4-9.71-16.54-18.6-.04-2.71.94-5.21,2.26-7.55.7-1.25,1.05-2.2-.11-3.6-4.9-5.89-10.25-10.9-17.55-13.98-7.54-3.18-14.67-7.37-21.91-11.24-1.39-.74-2.63-1.24-3.83-.14-2.98,2.73-6.34,2.38-9.64,1.12-4.37-1.67-8.68-3.51-12.9-5.53-5.01-2.4-6.8-7.02-7.55-12.14-1.83-12.58-.28-24.88,3.29-36.98,5.67-19.21,16.03-35.48,30.92-48.81,5.92-5.3,9.46-7.33,18.3-2.48,5.07,2.78,10.16,5.55,15.07,8.61,2.5,1.55,4.85,3.6,4.37,7.13-.17,1.24.57,1.61,1.46,2.16,12.52,7.8,26.11,11.98,40.87,10.74,8.13-.68,16.22-1.49,24.38-1.38,7.46.11,14.5,2.02,20.86,5.77,2.44,1.44,4.28,1.61,6.4.14,5.42-3.76,11.47-6.34,17.72-7.98,10.21-2.69,20.69-2.91,30.84.37,14.54,4.7,28,2.63,40.96-5.1,3.36-2.01,6.67-3.5,7.1-8.14.15-1.67,2.07-2.89,3.74-3.82,5.66-3.18,11.21-6.58,16.93-9.66,5.54-2.99,10.47-1.36,15.03,2.45,11.46,9.59,20.18,21.31,26.6,34.78,4.57,9.59,7.4,19.66,8.89,30.19.49,3.47.53,6.89.71,11.76Zm-179.28-38.41c-1.5-1.35-3.19-1.98-4.89-2.58-10.95-3.88-22.22-2.3-33.28-1.29-8.33.76-16.31.19-24.38-1.58-7.78-1.71-14.71-5.31-21.65-8.94-1.55-.81-2.66-1.08-4.53.27-3.89,2.83-6.67,6.59-9.8,10.05-5.61,6.18-10.17,13.19-13.68,20.68-5.22,11.15-7.85,23.12-9.21,35.35-.35,3.19.28,5.49,3.71,7.02,6.59,2.94,13,6.33,19.39,9.7,7.4,3.9,15.29,7.17,19.99,14.8.86,1.4,2.01,1.46,2.99-.4,1.46-2.78,3.27-5.39,4.95-8.06,3.78-6.02,9.62-7.62,16.16-7.06,6.47.55,11.37,4.07,13.76,10.04,1.4,3.48,3.12,4.61,6.69,4.18,9.98-1.19,16.17,4.57,18.63,12.45.52,1.65.78,1.4,2.34,1.18,7.68-1.11,14.93.5,19.07,7.49,2.47,4.18,3.75,6.58,9.75,6.23,7.91-.46,14.29,3.99,16.47,12.6.11.43.05,2.76,1.96,1.64,1.7-1,3.11-.1,4.46.64,4.77,2.59,9.36,5.52,14.25,7.86,4.17,1.99,9.72,1.33,12.22-3.15,2.8-5.01,1.79-9.78-3.08-12.83-5.21-3.26-10.59-6.24-15.83-9.45-2.2-1.35-4.19-3.24-2.42-6,1.63-2.55,4.08-1.62,6.19-.42,5.97,3.41,11.93,6.85,17.84,10.38,3.89,2.32,8.04,3.39,12.04,1.02,7.55-4.46,7.52-13.05.06-17.69-5.74-3.58-11.64-6.91-17.48-10.32-2.24-1.31-2.54-3.43-1.51-5.32,1.06-1.95,3.06-2.29,5.12-.99,1.02.65,2.14,1.14,3.2,1.74,6.5,3.69,12.81,7.8,19.57,10.96,5.18,2.42,9.22,1.54,13.06-3.34,2.3-2.92,1.91-8.43-.79-11.91-2.63-3.38-6.61-4.78-10.08-6.83-14.13-8.35-28.36-16.55-42.66-24.59-9.71-5.46-20.07-6.42-30.82-3.54-8.34,2.24-15.65,6.84-23.52,10.18-12.83,5.45-24.62,2.94-32.47-5.24-7.09-7.38-5.6-17.01.67-21.18,12.26-8.16,24.88-15.77,37.58-23.75Zm43.51-8.4c-9.03-1.38-17.25,1.7-24.69,5.99-17.4,10.02-34.35,20.82-51.17,31.81-3.12,2.04-3.72,4.44-2.13,7.77,3.16,6.62,13.14,9.95,21.34,7.63,8.22-2.33,15.4-6.9,23.25-10.03,13.19-5.25,26.2-5.48,38.94.82,15.36,7.6,29.83,16.82,44.68,25.34,5.16,2.96,11.21,4.94,14.56,10.55.42.7,1.05.96,2.16.43,10.88-5.16,21.8-10.22,32.76-15.21,1.45-.66,1.62-1.65,1.53-2.94-.38-5.35-1.17-10.62-2.16-15.9-3.84-20.61-14.51-37.22-29.44-51.43-1.84-1.76-3.99-2.51-6.23-.84-2.74,2.04-5.86,3.35-8.86,4.85-12.05,6.03-24.59,7.27-37.59,3.48-5.51-1.61-11.03-3.36-16.93-2.32ZM31.51,84.34c-.17,4.47.74,8.76,1.5,13.1.33,1.9,1.43,3.05,2.74,3.66,3.9,1.81,8.02,3.16,11.96,4.9,2.69,1.19,3.48.07,3.32-2.34-.28-4.11.4-8.21.98-12.16,1.24-8.34,3.34-16.53,6.4-24.5,4.18-10.93,10.23-20.57,17.71-29.46,3.51-4.17,7.16-8.15,11.5-11.48,2-1.54,2.68-2.99-.37-4.56-5.04-2.6-9.82-5.7-14.8-8.4-1.92-1.04-3.87-1.32-6,.39-6.11,4.91-11.33,10.56-16.02,16.83-12.01,16.05-18.03,34.12-18.91,54.01Zm320.06-.36c.79-7.21-.73-13.99-2.46-20.57-5.06-19.3-15.39-35.48-30.38-48.65-2.13-1.87-4.53-3.42-7.46-1.85-5.41,2.9-10.76,5.91-16.08,8.96-1.69.97-1.76,2.4-.2,3.59,5.24,4.01,9.65,8.81,13.88,13.85,6.72,7.99,11.88,16.88,15.83,26.49,5.01,12.19,7.37,24.91,7.49,38.07.02,2.3.71,3.26,3.18,2.2,4.08-1.76,8.33-3.16,12.34-5.06,1.73-.82,3.08-2.63,3.19-4.71.23-4.18,1.44-8.3.66-12.3Zm-204.44,52.56c-4.13-.7-6.65,1.65-8.64,5.14-4.52,7.91-9.19,15.73-13.71,23.64-1.25,2.19-2.63,4.47-3.16,6.88-1.06,4.89,1.62,9.08,6.47,11.04,4.16,1.69,9.26.17,11.75-3.99,5.6-9.36,11.06-18.81,16.42-28.31,3.81-6.74-.37-15.38-9.13-14.41Zm34.37,23.95c-.03-5.33-2.6-9.03-6.93-10.28-4.8-1.39-9.18.45-11.84,4.94-3.95,6.69-7.99,13.33-11.86,20.06-1.96,3.41-3.4,7-1.78,11.06,1.3,3.24,3.27,5.87,6.88,6.42,4.82.74,8.77-1.05,11.29-5.25,4.51-7.49,8.86-15.08,13.23-22.65.8-1.39,1.44-2.9,1.01-4.3Zm-67.71-1.48c3.43.72,6.35-1.16,8.14-3.96,3.92-6.13,7.56-12.47,10.86-18.96,1.65-3.26,1.47-6.94-1.09-10.03-4.52-5.46-13.23-5.22-16.94,1.34-3.16,5.6-6.63,11.04-9.71,16.68-3.96,7.25.44,14.92,8.74,14.92Zm91.7,14.5c0-4.22-2.41-8.31-5.95-9.15-4.77-1.14-9-1.08-11.77,3.15-4.25,6.48-8.37,13.11-11.44,20.26-1.84,4.3.18,9.23,4.38,12.04,3.22,2.16,8.42,1.41,11.68-1.86,4.29-4.3,6.41-10,9.46-15.09,1.74-2.91,4.11-5.58,3.64-9.35Zm11.48,22.96c3.76.61,6.26-1.53,8.03-4.52,1.67-2.81,1-5.82-.81-8.25-2.53-3.4-6.81-4.41-10.24-6.59-.6-.38-1.45.46-1.61,1.19-.96,4.37-3.82,7.77-5.79,11.62-.35.69-1.65,1.72-.35,2.38,3.39,1.74,6.36,4.64,10.75,4.18Z"/>
  <path class="cls-3" d="m336.01,236.46c0,7-.06,13.99.03,20.99.04,3.29-.92,5.26-4.58,5.87-7.51,1.25-14.92,3.08-22.43,4.33-2.4.4-3.05,2.11-3.69,3.61-2.91,6.75-5.5,13.65-8.35,20.43-.73,1.74-.86,2.94.34,4.66,4.37,6.27,8.35,12.81,12.72,19.08,1.66,2.38,1.6,4.06-.43,6.07-10.55,10.47-21.06,20.99-31.54,31.53-2.2,2.21-4.19,2.29-6.79.45-5.89-4.17-12.05-7.97-17.95-12.14-2.03-1.44-3.73-1.5-5.91-.57-7.09,3.01-14.24,5.85-21.35,8.83-.92.38-1.69.81-1.93,2.27-1.3,8-2.83,15.96-4.42,23.9-.44,2.22-1.82,3.68-4.38,3.67-15.12-.03-30.24-.03-45.35,0-2.27,0-3.71-.89-4.19-3.2-1.51-7.34-3.15-14.66-4.48-22.03-.47-2.6-1.4-4.24-3.97-5.23-7.05-2.73-14.05-5.62-21-8.59-1.42-.61-2.25-.63-3.61.31-6.46,4.46-13.08,8.7-19.61,13.05-2.26,1.5-4.21,1.49-6.22-.53-10.3-10.37-20.64-20.7-31.02-30.99-2.33-2.31-2.79-4.32-.66-7.22,4.38-5.97,8.37-12.22,12.55-18.33,1.07-1.56,1.48-2.85.57-4.88-2.97-6.59-5.65-13.32-8.25-20.06-.99-2.56-2.68-3.57-5.25-4.05-7.26-1.36-14.44-3.15-21.72-4.33-2.85-.47-3.51-2.02-3.52-4.22-.06-15.24-.03-30.48-.04-45.72,0-2.46,1.13-3.72,3.6-4.18,7.76-1.42,15.48-3.06,23.25-4.42,1.49-.26,2.1-.86,2.6-2.1,1.41-3.46,2.85-6.91,4.38-10.31,1.66-3.71,3.19-4.14,7-2.54,9.63,4.04,19.29,8.01,28.96,11.94,3.6,1.47,4.27,2.66,2.93,6.43-3.61,10.21-5.89,20.65-5.24,31.54.95,15.86,6.33,30.17,15.96,42.78,9.63,12.62,22.28,21.22,37.3,25.97,11.04,3.49,22.32,4.43,34.02,2.29,12.85-2.36,24.24-7.23,34.5-15.2,13.26-10.3,22.02-23.5,26.66-39.59,2.68-9.29,2.61-18.81,2.13-28.25-.34-6.86-2.23-13.62-5.2-19.9-1.25-2.65-.21-4.37,1.86-5.25,10.53-4.48,21.15-8.73,31.73-13.09,2.84-1.17,4.41-.32,5.57,2.59,1.25,3.13,2.98,6.09,3.82,9.38.83,3.25,3.6,3.45,6.06,3.95,6.77,1.37,13.6,2.48,20.37,3.83,2.62.52,4.31,1.91,4.24,5.07-.16,7.37-.05,14.74-.05,22.11Zm-278.79,19.26c-.15.53.08.71.58.63,5.72,2.04,11.83,2.35,17.65,3.9,3.87,1.03,8.44.27,10.37,5.71,3.06,8.63,6.85,17,10.37,25.47,1.08,2.6.85,4.92-.77,7.24-3.91,5.59-7.69,11.27-11.59,16.87-1.2,1.73-1.37,2.88.38,4.58,8.25,8,16.36,16.15,24.4,24.36,1.58,1.61,2.55,1.74,4.43.42,5.65-3.95,11.6-7.47,17.2-11.48,2.51-1.8,4.79-1.59,7.24-.6,8.91,3.6,17.8,7.27,26.67,10.95,1.59.66,2.82,1.5,3.21,3.58,1.31,7.11,2.97,14.16,4.35,21.27.36,1.82.5,3.33,2.93,3.32,12.12-.05,24.24-.03,36.35-.01,1.22,0,1.81-.08,2.09-1.7,1.31-7.61,2.88-15.18,4.44-22.76.32-1.55.98-2.85,2.74-3.55,9.28-3.66,18.52-7.43,27.75-11.2,2.6-1.06,4.91-.76,7.22.85,5.39,3.74,10.93,7.28,16.26,11.1,1.93,1.39,3.16,1.22,4.75-.39,8.17-8.26,16.39-16.47,24.65-24.63,1.4-1.38,1.59-2.26.34-4.02-4-5.65-7.56-11.61-11.59-17.24-1.64-2.29-1.94-4.34-.91-6.76,3.45-8.09,7.41-16.01,10.19-24.32,1.84-5.51,5.42-6.55,10.24-7.22,5.75-.8,11.4-2.25,17.12-3.29,1.82-.33,2.27-1.16,2.26-2.93-.08-11.87-.03-23.73-.06-35.6,0-.97.49-2.09-1.4-2.37-5.39-.81-10.71-2.13-16.11-2.88-6.37-.88-11.65-2.84-13.06-10.04-.26-1.31-.81-2.51-1.41-3.72-.63-1.26-1.13-1.58-2.5-1-7.2,3.06-14.45,6.02-21.69,8.99-1.31.54-1.63.91-.99,2.6,2.22,5.79,3.56,11.94,3.76,18.1.27,8.24.4,16.47-1.27,24.72-4,19.75-13.91,35.9-29.46,48.27-11.46,9.11-24.5,15.13-39.44,17.19-9.77,1.34-19.36,1.82-28.85-.35-22.82-5.22-40.94-17.4-53.59-37.39-8.41-13.28-12.64-27.74-12.95-43.4-.18-9.12,1.29-17.98,4.32-26.58.51-1.46.65-2.48-1.37-3.24-4.96-1.84-9.77-4.07-14.63-6.18-8.93-3.87-9.11-3.82-12.29,5.73-.9,2.69-2.52,4.23-5.37,4.78-7.48,1.44-14.93,3.05-22.39,4.58-.52-.11-.74.08-.6.62,0,12.99,0,25.98,0,38.98Z"/>
  <path class="cls-3" d="m245.32,234.74c.11,17.18-5.74,30.27-17.21,40.55-8.42,7.55-18.38,11.99-29.88,13.57-14.2,1.96-26.67-2.14-37.47-10.37-11.47-8.73-18.63-20.58-20.63-35.43-1.18-8.79.1-16.95,2.92-25.09,1.51-4.37,2.87-5.11,7.02-3.41,12.01,4.91,24.13,9.6,35.87,15.08,5.13,2.39,9.36,1.64,14.02-.32,11.86-5,23.76-9.9,35.64-14.85,3.2-1.34,5.49-.47,6.52,2.85,1.92,6.18,3.79,12.4,3.18,17.42Zm-7.6,1.16c.17-3.43-.08-7.3-1.22-11.14-.53-1.78-.74-2.44-2.84-1.53-10.61,4.6-21.35,8.89-31.96,13.48-5.77,2.5-10.93,3.72-17.31.48-10.36-5.26-21.4-9.15-32.13-13.67-2.35-.99-3.17-.47-3.81,2.14-1.74,7.04-1.62,13.86.01,20.96,5.16,22.46,28.16,39.42,52.49,34.43,20.59-4.23,37.28-21.92,36.78-45.17Z"/>
  <path class="cls-6" d="m179.98,46.9c-12.7,7.98-25.32,15.59-37.58,23.75-6.27,4.18-7.75,13.81-.67,21.18,7.85,8.18,19.64,10.69,32.47,5.24,7.86-3.34,15.18-7.95,23.52-10.18,10.75-2.88,21.11-1.92,30.82,3.54,14.31,8.05,28.53,16.25,42.66,24.59,3.47,2.05,7.46,3.45,10.08,6.83,2.7,3.48,3.09,8.98.79,11.91-3.84,4.88-7.89,5.76-13.06,3.34-6.75-3.15-13.06-7.27-19.57-10.96-1.06-.6-2.18-1.09-3.2-1.74-2.06-1.31-4.06-.96-5.12.99-1.03,1.89-.73,4.01,1.51,5.32,5.84,3.42,11.74,6.75,17.48,10.32,7.46,4.65,7.49,13.23-.06,17.69-4,2.36-8.15,1.3-12.04-1.02-5.91-3.53-11.87-6.96-17.84-10.38-2.11-1.21-4.55-2.13-6.19.42-1.77,2.77.21,4.65,2.42,6,5.24,3.21,10.62,6.19,15.83,9.45,4.88,3.05,5.88,7.82,3.08,12.83-2.5,4.48-8.05,5.14-12.22,3.15-4.88-2.34-9.48-5.27-14.25-7.86-1.35-.73-2.75-1.64-4.46-.64-1.91,1.12-1.85-1.21-1.96-1.64-2.18-8.62-8.56-13.07-16.47-12.6-6,.35-7.28-2.05-9.75-6.23-4.13-6.99-11.38-8.6-19.07-7.49-1.57.23-1.83.47-2.34-1.18-2.46-7.88-8.65-13.63-18.63-12.45-3.57.42-5.3-.7-6.69-4.18-2.39-5.97-7.29-9.49-13.76-10.04-6.53-.56-12.38,1.04-16.16,7.06-1.67,2.67-3.48,5.28-4.95,8.06-.98,1.87-2.13,1.8-2.99.4-4.7-7.63-12.59-10.9-19.99-14.8-6.39-3.37-12.8-6.75-19.39-9.7-3.42-1.53-4.06-3.83-3.71-7.02,1.36-12.23,3.98-24.19,9.21-35.35,3.51-7.5,8.07-14.5,13.68-20.68,3.14-3.45,5.91-7.22,9.8-10.05,1.87-1.36,2.98-1.08,4.53-.27,6.95,3.63,13.88,7.24,21.65,8.94,8.07,1.77,16.05,2.34,24.38,1.58,11.06-1.01,22.33-2.59,33.28,1.29,1.71.6,3.39,1.23,4.89,2.58Z"/>
  <path class="cls-6" d="m223.49,38.5c5.9-1.04,11.42.71,16.93,2.32,13,3.79,25.54,2.55,37.59-3.48,3-1.5,6.12-2.81,8.86-4.85,2.25-1.68,4.39-.92,6.23.84,14.92,14.21,25.59,30.82,29.44,51.43.99,5.28,1.78,10.56,2.16,15.9.09,1.29-.07,2.27-1.53,2.94-10.95,5-21.88,10.05-32.76,15.21-1.12.53-1.75.27-2.16-.43-3.34-5.61-9.39-7.58-14.56-10.55-14.85-8.52-29.32-17.74-44.68-25.34-12.75-6.31-25.75-6.08-38.94-.82-7.85,3.13-15.03,7.7-23.25,10.03-8.19,2.32-18.17-1.01-21.34-7.63-1.59-3.33-.99-5.72,2.13-7.77,16.81-10.99,33.77-21.79,51.17-31.81,7.44-4.29,15.66-7.37,24.69-5.99Z"/>
  <path class="cls-5" d="m31.51,84.34c.88-19.89,6.9-37.96,18.91-54.01,4.69-6.27,9.91-11.92,16.02-16.83,2.13-1.71,4.08-1.43,6-.39,4.99,2.7,9.76,5.81,14.8,8.4,3.05,1.57,2.38,3.02.37,4.56-4.34,3.33-7.99,7.31-11.5,11.48-7.48,8.89-13.53,18.53-17.71,29.46-3.05,7.98-5.15,16.17-6.4,24.5-.59,3.94-1.26,8.05-.98,12.16.16,2.41-.63,3.53-3.32,2.34-3.94-1.74-8.05-3.09-11.96-4.9-1.32-.61-2.41-1.76-2.74-3.66-.76-4.34-1.67-8.64-1.5-13.1Z"/>
  <path class="cls-5" d="m351.57,83.99c.78,3.99-.43,8.12-.66,12.3-.11,2.08-1.46,3.89-3.19,4.71-4.01,1.91-8.26,3.3-12.34,5.06-2.47,1.07-3.16.11-3.18-2.2-.12-13.15-2.48-25.88-7.49-38.07-3.96-9.62-9.12-18.5-15.83-26.49-4.23-5.03-8.64-9.84-13.88-13.85-1.56-1.19-1.49-2.62.2-3.59,5.32-3.05,10.67-6.06,16.08-8.96,2.93-1.57,5.33-.02,7.46,1.85,14.99,13.18,25.32,29.36,30.38,48.65,1.72,6.58,3.25,13.37,2.46,20.57Z"/>
  <path class="cls-6" d="m147.13,136.55c8.76-.97,12.94,7.67,9.13,14.41-5.36,9.5-10.82,18.95-16.42,28.31-2.49,4.15-7.59,5.67-11.75,3.99-4.84-1.96-7.53-6.15-6.47-11.04.52-2.41,1.9-4.69,3.16-6.88,4.52-7.91,9.19-15.73,13.71-23.64,2-3.49,4.51-5.84,8.64-5.14Z"/>
  <path class="cls-6" d="m181.5,160.5c.43,1.41-.2,2.91-1.01,4.3-4.37,7.57-8.72,15.16-13.23,22.65-2.53,4.2-6.47,5.98-11.29,5.25-3.61-.55-5.59-3.18-6.88-6.42-1.62-4.06-.18-7.65,1.78-11.06,3.87-6.73,7.91-13.37,11.86-20.06,2.66-4.49,7.04-6.33,11.84-4.94,4.34,1.26,6.9,4.96,6.93,10.28Z"/>
  <path class="cls-6" d="m113.79,159.02c-8.3,0-12.7-7.68-8.74-14.92,3.09-5.64,6.55-11.08,9.71-16.68,3.71-6.56,12.42-6.8,16.94-1.34,2.56,3.09,2.74,6.77,1.09,10.03-3.3,6.49-6.93,12.83-10.86,18.96-1.79,2.79-4.71,4.68-8.14,3.96Z"/>
  <path class="cls-6" d="m205.48,173.51c.48,3.77-1.9,6.44-3.64,9.35-3.05,5.1-5.17,10.79-9.46,15.09-3.26,3.27-8.46,4.02-11.68,1.86-4.2-2.81-6.22-7.75-4.38-12.04,3.07-7.15,7.19-13.78,11.44-20.26,2.77-4.23,7-4.29,11.77-3.15,3.54.85,5.95,4.93,5.95,9.15Z"/>
  <path class="cls-6" d="m216.97,196.47c-4.39.47-7.36-2.44-10.75-4.18-1.3-.67,0-1.69.35-2.38,1.96-3.85,4.83-7.25,5.79-11.62.16-.72,1.01-1.57,1.61-1.19,3.43,2.19,7.71,3.19,10.24,6.59,1.81,2.43,2.47,5.44.81,8.25-1.78,2.99-4.27,5.13-8.03,4.52Z"/>
  <path class="cls-2" d="m57.8,216.13c7.46-1.54,14.91-3.14,22.39-4.58,2.85-.55,4.47-2.09,5.37-4.78,3.19-9.55,3.37-9.59,12.29-5.73,4.86,2.1,9.67,4.33,14.63,6.18,2.03.75,1.89,1.77,1.37,3.24-3.02,8.61-4.5,17.47-4.32,26.58.31,15.65,4.54,30.11,12.95,43.4,12.66,19.99,30.78,32.17,53.59,37.39,9.49,2.17,19.08,1.7,28.85.35,14.93-2.05,27.98-8.07,39.44-17.19,15.55-12.37,25.47-28.52,29.46-48.27,1.67-8.26,1.54-16.49,1.27-24.72-.2-6.16-1.54-12.3-3.76-18.1-.65-1.69-.33-2.06.99-2.6,7.24-2.98,14.48-5.93,21.69-8.99,1.37-.58,1.88-.27,2.5,1,.6,1.21,1.15,2.4,1.41,3.72,1.4,7.2,6.69,9.16,13.06,10.04,5.4.75,10.72,2.08,16.11,2.88,1.89.28,1.39,1.4,1.4,2.37.03,11.87-.02,23.73.06,35.6.01,1.77-.44,2.6-2.26,2.93-5.72,1.04-11.37,2.49-17.12,3.29-4.82.67-8.4,1.71-10.24,7.22-2.78,8.31-6.74,16.23-10.19,24.32-1.03,2.42-.74,4.47.91,6.76,4.03,5.62,7.59,11.59,11.59,17.24,1.25,1.76,1.06,2.64-.34,4.02-8.27,8.16-16.48,16.37-24.65,24.63-1.59,1.61-2.82,1.77-4.75.39-5.33-3.83-10.87-7.36-16.26-11.1-2.32-1.61-4.62-1.91-7.22-.85-9.23,3.77-18.47,7.54-27.75,11.2-1.76.69-2.42,2-2.74,3.55-1.56,7.57-3.13,15.14-4.44,22.76-.28,1.62-.86,1.7-2.09,1.7-12.12-.02-24.24-.04-36.35.01-2.43.01-2.57-1.5-2.93-3.32-1.38-7.1-3.04-14.15-4.35-21.27-.38-2.08-1.62-2.92-3.21-3.58-8.88-3.69-17.76-7.35-26.67-10.95-2.45-.99-4.73-1.2-7.24.6-5.6,4.01-11.55,7.53-17.2,11.48-1.88,1.31-2.85,1.19-4.43-.42-8.03-8.22-16.14-16.36-24.4-24.36-1.76-1.7-1.59-2.85-.38-4.58,3.9-5.6,7.68-11.28,11.59-16.87,1.62-2.33,1.85-4.65.77-7.24-3.53-8.46-7.31-16.84-10.37-25.47-1.93-5.44-6.5-4.67-10.37-5.71-5.82-1.55-11.93-1.87-17.65-3.9-.19-.21-.39-.42-.58-.63,0-12.99,0-25.98,0-38.98.2-.21.4-.41.6-.62Z"/>
  <path class="cls-1" d="m57.8,216.13c-.2.21-.4.41-.6.62-.14-.54.08-.72.6-.62Z"/>
  <path class="cls-1" d="m57.21,255.72c.19.21.39.42.58.63-.5.08-.73-.1-.58-.63Z"/>
  <path class="cls-2" d="m237.72,235.9c.49,23.24-16.19,40.94-36.78,45.17-24.32,4.99-47.32-11.98-52.49-34.43-1.63-7.1-1.75-13.92-.01-20.96.64-2.61,1.46-3.13,3.81-2.14,10.73,4.52,21.78,8.41,32.13,13.67,6.38,3.24,11.54,2.02,17.31-.48,10.61-4.59,21.35-8.89,31.96-13.48,2.1-.91,2.31-.25,2.84,1.53,1.14,3.84,1.39,7.71,1.22,11.14Z"/>
</svg>