<?xml version="1.0" encoding="UTF-8"?>
<svg id="_Слой_1" data-name="Слой 1" xmlns="http://www.w3.org/2000/svg" viewBox="0 0 384 384">
  <defs>
    <style>
      .cls-1 {
        fill: #db7889;
      }

      .cls-1, .cls-2, .cls-3, .cls-4, .cls-5 {
        stroke-width: 0px;
      }

      .cls-2 {
        fill: #010101;
        opacity: 0;
      }

      .cls-3 {
        fill: #fff;
      }

      .cls-4 {
        fill: #85c7ef;
      }

      .cls-5 {
        fill: #ffcbc1;
      }
    </style>
  </defs>
  <path class="cls-3" d="m383.93,191.98c0,62.96-.02,125.92.06,188.88,0,2.42-.28,3.15-2.99,3.15-126.04-.09-252.09-.09-378.13-.02-2.4,0-2.84-.62-2.84-2.9C.09,255.04.1,129,0,2.95,0,.14.89.02,3.2.02,129.12.08,255.04.08,380.96,0c2.62,0,3.04.58,3.04,3.1-.09,62.96-.07,125.92-.07,188.88Zm-245.02-3.86c-.19.84-.25,1.19-.36,1.52-.99,3.07-3.56,5.92-2.62,9.25,1.38,4.88,3.61,7.76,11.11,7.73,29.98-.12,59.96-.05,89.94-.05.87,0,1.75,0,2.62-.09,5.43-.55,9.21-6.26,7.54-11.47-.72-2.25-1.66-4.43-2.59-6.89,1.66,0,3.03,0,4.39,0,17.86,0,35.73.01,53.59,0,6.35,0,11.16-5.86,9.22-11.59-3.63-10.75-10.46-19.32-19.12-26.44-4.47-3.68-9.76-6.12-15.3-8.41,8.08-5.4,12.71-17.68,10.47-26.56-3.35-13.29-16.56-22.51-31.1-20.02-13.61,2.33-24.25,18.65-19.87,32.12,1.64,5.06,4.03,9.35,7.84,12.97.51.48,2.68,1.47.49,2.3-9.26,3.52-17.02,9.01-23.1,16.85-.75.97-1.78,1.61-2.9,1.12-3.64-1.58-7.21-3.33-10.92-5.07,7.76-5.97,11.86-13.39,12.24-22.71.29-7.2-2.03-13.64-6.38-19.32-1.06-1.38-1.15-1.92.39-3.14,8.39-6.66,16.7-13.35,23.74-21.58,7.52-8.78,14.24-17.92,18.37-28.8,3.45-9.09,4.99-18.46,2.61-27.98-4.6-18.35-18.62-26.73-35.57-27.17-10.35-.27-19.78,3.57-28.04,9.65-2.93,2.16-4.75,2.21-7.55.23-10.57-7.46-22.19-11.25-35.28-9.24-7.41,1.14-14.15,4.14-19.17,9.54-9.14,9.82-12.37,21.86-9.6,34.92,3.29,15.52,11.46,28.61,22.39,39.96,7.12,7.39,14.23,14.81,22.81,20.61,1.3.88,1.78,1.74.34,3.43-10.21,12.03-8.53,29.76,4.19,40.11,1.45,1.18,1.21,1.8-.38,2.47-2.78,1.18-5.53,2.41-8.25,3.72-1.4.67-2.67.79-3.63-.54-5.42-7.55-12.85-12.5-21.15-16.21-2.8-1.25-3.29-1.95-.82-4.21,6.8-6.23,9-13.93,7.63-23.13-2.57-17.22-23.08-27.49-39.55-17.53-7.34,4.44-11.35,11.47-12.17,19.83-.92,9.41,2.97,17.17,10.01,23.26-.41,1.09-1.53,1.29-2.36,1.61-15.6,6.14-25.1,17.98-31,33.14-1.65,4.25.07,8.26,3.93,10.59,1.65.99,3.34,1.27,5.22,1.27,19.1-.04,38.2-.02,57.7-.02Zm-21.59,191.31c13.49,0,26.99,0,40.48,0,6.52,0,10.79-3.55,11.11-10.04.37-7.47.35-14.98.06-22.46-.23-6-5.08-10.55-10.49-9.47-2.77.56-3.63-1.06-3.95-3.34-2.11-14.62-4.62-29.19-3.99-44.09.28-6.68-.46-13.34-1.17-20.01-1-9.41-3.88-18.03-10.84-24.44-10.33-9.52-20.67-19.03-30.38-29.18-4.01-4.19-7.61-8.72-12.3-12.26-6.38-4.82-16.75-5.49-23.29-1.01-2.17,1.49-3.41,1.3-4.39-1.12-.36-.89-.97-1.67-1.36-2.54-3.59-7.93-7.26-15.83-10.72-23.83-4.99-11.54-9.67-23.19-13.37-35.24-2.12-6.93-5.56-13.3-13.01-15.65-7.7-2.44-18.01-2.09-21.48,8.54-1.48,4.53-1.79,8.86-.54,13.27,5.29,18.71,10.73,37.39,16.09,56.08,3.63,12.64,7.14,25.32,10.85,37.93,3.04,10.35,6.06,20.84,12.77,29.49,5.59,7.22,11.87,13.92,18.07,20.63,10.3,11.15,15.45,24.1,14.86,39.35-.25,6.48-.04,6.49-6.65,7.37-3.71.49-7.17,4.55-7.16,8.39.02,7.72.03,15.44.06,23.16.02,6.66,3.88,10.45,10.63,10.46,13.37,0,26.74,0,40.11,0Zm148.32,0c13.24,0,26.49-.25,39.72.09,7.73.2,12.28-5.02,12.12-12.21-.13-5.74-.02-11.49-.03-17.24,0-9.17-2.71-12.11-11.73-12.61-1.53-.08-2.71-.24-2.77-2.16-.28-9.48.34-18.84,4.07-27.72,4.28-10.18,11.76-18,19.06-26,4.87-5.33,10.11-10.41,13.62-16.86,7.13-13.12,10.03-27.69,14.23-41.79,6.3-21.13,12.14-42.4,18.15-63.62,1.91-6.74,4.85-13.29,4.32-20.51-1.01-13.71-11-17.13-21.85-14.36-6.57,1.68-10.52,6.83-12.57,13.11-7.3,22.35-16.31,43.97-26.92,64.95-.89,1.76-1.14,2.68-3.45,1.04-6.81-4.82-14.23-4.58-21.49-1-5.05,2.49-8.38,7.02-12.23,10.99-10.65,10.96-21.7,21.53-32.93,31.93-9.26,8.57-11.63,20.59-11.48,32.8.13,10.45-.4,20.87-1.13,31.26-.6,8.47-2.4,16.85-3.53,25.28-.19,1.39-.48,2.22-1.93,1.87-1.59-.38-2.82.67-4.29.8-4.13.38-7.71,4.25-7.71,8.26,0,7.95.07,15.9.16,23.84.07,5.84,4,9.83,9.73,9.84,13.62.03,27.23,0,40.85.02Z"/>
  <path class="cls-2" d="m138.91,188.11c-19.5,0-38.6-.01-57.7.02-1.88,0-3.57-.27-5.22-1.27-3.86-2.32-5.58-6.34-3.93-10.59,5.89-15.16,15.4-27,31-33.14.83-.33,1.96-.53,2.36-1.61-7.03-6.09-10.92-13.85-10.01-23.26.82-8.36,4.82-15.39,12.17-19.83,16.46-9.96,36.97.31,39.55,17.53,1.37,9.2-.82,16.9-7.63,23.13-2.47,2.26-1.98,2.96.82,4.21,8.3,3.71,15.74,8.67,21.15,16.21.96,1.33,2.23,1.22,3.63.54,2.72-1.31,5.47-2.54,8.25-3.72,1.6-.68,1.84-1.29.38-2.47-12.72-10.36-14.4-28.08-4.19-40.11,1.44-1.69.95-2.56-.34-3.43-8.58-5.79-15.69-13.22-22.81-20.61-10.93-11.35-19.11-24.44-22.39-39.96-2.77-13.06.47-25.1,9.6-34.92,5.02-5.4,11.76-8.4,19.17-9.54,13.09-2.01,24.71,1.77,35.28,9.24,2.8,1.97,4.62,1.93,7.55-.23,8.25-6.08,17.68-9.91,28.04-9.65,16.95.44,30.97,8.82,35.57,27.17,2.39,9.52.84,18.89-2.61,27.98-4.13,10.88-10.85,20.01-18.37,28.8-7.05,8.23-15.36,14.92-23.74,21.58-1.54,1.22-1.44,1.76-.39,3.14,4.35,5.68,6.67,12.12,6.38,19.32-.38,9.32-4.47,16.74-12.24,22.71,3.71,1.74,7.28,3.49,10.92,5.07,1.12.49,2.15-.15,2.9-1.12,6.08-7.84,13.83-13.33,23.1-16.85,2.19-.83.01-1.82-.49-2.3-3.82-3.62-6.2-7.91-7.84-12.97-4.38-13.47,6.26-29.78,19.87-32.12,14.53-2.49,27.75,6.73,31.1,20.02,2.23,8.88-2.39,21.16-10.47,26.56,5.54,2.29,10.83,4.73,15.3,8.41,8.66,7.11,15.5,15.69,19.12,26.44,1.94,5.73-2.87,11.59-9.22,11.59-17.86.02-35.73,0-53.59,0-1.37,0-2.74,0-4.39,0,.93,2.46,1.87,4.64,2.59,6.89,1.67,5.21-2.11,10.92-7.54,11.47-.87.09-1.75.09-2.62.09-29.98,0-59.96-.07-89.94.05-7.49.03-9.73-2.84-11.11-7.73-.94-3.33,1.63-6.18,2.62-9.25.11-.34.16-.69.36-1.52ZM252.77,42.05c-.81-21.75-14.57-30.28-31.41-29.79-8.11.24-15.71,3.46-22.2,8.78-6.84,5.6-6.9,5.52-13.98.36-.19-.14-.47-.17-.67-.31-6.63-4.67-13.77-7.62-22.03-8.52-7.7-.84-14.65.63-20.55,5.12-10.35,7.87-12.98,19.06-10.5,31.18,2.63,12.85,9.52,23.8,18.15,33.52,6.87,7.74,14.36,14.94,22.7,21.11,1.75,1.3,3.05,4.16,6.55,2.51,8.4-3.97,17.05-3.5,25.54-.08,1.4.56,2.4.89,3.69-.1,6.74-5.15,13.22-10.61,19.4-16.42,4.88-4.59,9.05-9.79,12.93-15.2,7.12-9.95,11.89-20.82,12.36-32.15Zm-60.82,157.02c14.72,0,29.44,0,44.16,0,4.43,0,4.71-.23,3.01-4.27-4.11-9.76-10.16-18.1-18.83-24.35-15.48-11.16-32.05-13-49.34-4.95-11.91,5.55-19.81,15.24-25.4,26.93q-3.18,6.65,4.1,6.64c14.1,0,28.19,0,42.29,0Zm34.71-33.6c3.69,4.13,8.4,7.43,11.29,12.27,1.46,2.44,3.2,2.94,5.74,2.91,10.1-.09,20.21-.04,30.31-.04,8.98,0,17.96.02,26.95,0,3.81-.01,4.14-.43,2.72-4.03-2.71-6.83-7.06-12.48-12.31-17.61-12.02-11.76-32.06-15.86-47.86-7.7-6.63,3.43-12.08,8.19-16.84,14.2Zm-115.27,15.14c9.87,0,19.74,0,29.61,0,1.32,0,2.5.19,3.46-1.34,2.97-4.74,6.85-8.75,10.98-12.5,1.22-1.11.92-1.57.05-2.81-3.39-4.85-7.96-8.3-12.93-11.18-9.78-5.67-20.47-7.48-31.34-4.64-15.32,4-25.14,14.65-31.61,28.68-1.12,2.42-1.06,3.97,2.55,3.89,9.74-.23,19.49-.08,29.23-.08Zm80.16-69.58c-11.79-1.79-21.35,10.47-21.22,20.71.15,11.65,10,21.12,20.55,21.33,11.94.24,22.4-9.5,22.17-22.06-.18-9.86-9.2-21.5-21.5-19.99Zm-88.76,9.84c.2,9.98,8.53,18.5,17.85,18.57,11,.08,19.81-8.17,19.46-19-.38-11.69-7.53-17.87-19.02-18.32-10.51-.41-18.3,8.67-18.3,18.76Zm177.68.02c.8-10.3-8.12-18.98-18.53-18.79-11.81.21-18.39,7.87-18.65,18.58-.23,9.47,6.61,18.4,18.38,18.73,9.98.28,19.41-8.45,18.8-18.52Z"/>
  <path class="cls-2" d="m117.32,379.42c-13.37,0-26.74,0-40.11,0-6.75,0-10.6-3.8-10.63-10.46-.03-7.72-.04-15.44-.06-23.16-.01-3.84,3.45-7.9,7.16-8.39,6.61-.88,6.4-.89,6.65-7.37.59-15.25-4.56-28.2-14.86-39.35-6.2-6.72-12.48-13.42-18.07-20.63-6.7-8.65-9.72-19.14-12.77-29.49-3.71-12.62-7.22-25.29-10.85-37.93-5.36-18.69-10.8-37.37-16.09-56.08-1.25-4.41-.94-8.74.54-13.27,3.47-10.64,13.78-10.98,21.48-8.54,7.45,2.36,10.88,8.72,13.01,15.65,3.69,12.05,8.38,23.7,13.37,35.24,3.45,7.99,7.12,15.89,10.72,23.83.4.87,1,1.66,1.36,2.54.98,2.42,2.21,2.61,4.39,1.12,6.54-4.48,16.91-3.81,23.29,1.01,4.69,3.54,8.29,8.07,12.3,12.26,9.71,10.15,20.04,19.66,30.38,29.18,6.96,6.41,9.84,15.03,10.84,24.44.71,6.67,1.45,13.33,1.17,20.01-.63,14.89,1.89,29.46,3.99,44.09.33,2.28,1.18,3.9,3.95,3.34,5.41-1.08,10.26,3.47,10.49,9.47.28,7.48.31,14.99-.06,22.46-.32,6.49-4.59,10.04-11.11,10.04-13.49.01-26.99,0-40.48,0Zm30.43-42.68c-1.12-1.68-.41-3.27-.79-4.7-2.12-8.05-2.95-16.34-3.54-24.56-.71-9.89-.99-19.84-1-29.79-.01-11.66-2.71-22.2-12.71-30.15-10.32-8.21-19.21-18.09-28.43-27.53-3.26-3.34-5.97-7.16-9.9-9.89-3.85-2.68-10.34-3.29-14.53-.97-4.63,2.56-5.44,6.88-4.7,11.42.72,4.44,2.77,8.52,5.21,12.35,7.36,11.52,16.81,21.27,26.44,30.85,1.84,1.83,2.98,3.83,1.13,5.71-1.83,1.86-4.2,1.89-6.42-.35-8.82-8.86-17.62-17.77-24.79-28.02-5.85-8.37-11.39-17.11-8.44-28.26.15-.56-.37-1.37-.73-1.99-3.62-6.3-6.68-12.88-9.74-19.47-6.3-13.58-11.88-27.46-17-41.53-1.78-4.88-2.67-10.11-5.67-14.51-2.57-3.78-9.34-5.47-13.61-3.44-3.12,1.49-5.13,7.03-3.94,11.23,4.89,17.15,9.84,34.28,14.73,51.43,4.04,14.17,7.88,28.4,12.08,42.52,3.02,10.17,5.66,20.66,12.44,29.14,5.85,7.33,12.47,14.04,18.66,21.1,4.03,4.6,7.53,9.61,10,15.23,4.44,10.12,6.02,20.8,5.66,31.79-.06,1.67.12,2.46,2.11,2.45,18.98-.07,37.96-.04,57.48-.04Zm-29.95,7.5c-13.37,0-26.73.06-40.1-.05-2.57-.02-3.67.8-3.65,3.37.05,6.99.05,13.99,0,20.98-.02,2.56,1.06,3.42,3.63,3.42,26.48-.07,52.96-.06,79.44-.02,3.12,0,4.55-1.31,4.51-4.46-.07-5.99,0-11.99-.02-17.99-.01-4.48-.78-5.24-5.22-5.24-12.87,0-25.73,0-38.6,0Z"/>
  <path class="cls-2" d="m265.64,379.42c-13.62,0-27.23.02-40.85,0-5.73-.01-9.66-4-9.73-9.84-.09-7.95-.16-15.89-.16-23.84,0-4.01,3.58-7.89,7.71-8.26,1.47-.13,2.7-1.19,4.29-.8,1.45.35,1.74-.48,1.93-1.87,1.13-8.44,2.94-16.82,3.53-25.28.73-10.39,1.26-20.8,1.13-31.26-.15-12.21,2.22-24.23,11.48-32.8,11.23-10.4,22.28-20.96,32.93-31.93,3.86-3.97,7.18-8.5,12.23-10.99,7.26-3.58,14.68-3.82,21.49,1,2.31,1.64,2.56.72,3.45-1.04,10.6-20.98,19.62-42.6,26.92-64.95,2.05-6.28,6.01-11.43,12.57-13.11,10.85-2.77,20.84.64,21.85,14.36.53,7.22-2.41,13.77-4.32,20.51-6.01,21.22-11.85,42.49-18.15,63.62-4.2,14.1-7.1,28.68-14.23,41.79-3.51,6.45-8.75,11.53-13.62,16.86-7.3,8-14.78,15.82-19.06,26-3.74,8.89-4.35,18.24-4.07,27.72.06,1.92,1.24,2.07,2.77,2.16,9.02.5,11.73,3.44,11.73,12.61,0,5.75-.1,11.5.03,17.24.16,7.18-4.39,12.41-12.12,12.21-13.23-.34-26.48-.09-39.72-.1Zm.2-42.67c8.99,0,17.99-.06,26.98.05,2.09.03,2.71-.51,2.7-2.65-.02-4.56.07-9.11.6-13.7,1.17-10.14,4.59-19.22,10.45-27.48,5.88-8.29,13.13-15.39,19.9-22.91,3.86-4.29,7.19-8.98,9.39-14.34,4.14-10.05,6.75-20.6,9.82-30.99,6.65-22.53,13.14-45.1,19.41-67.74,1.64-5.91,4.19-11.69,3.87-18.07-.25-4.95-2.89-7.62-7.86-7.64-5.87-.02-10.54,3.09-12.32,8.97-2.43,8.05-5.35,15.9-8.36,23.73-5.55,14.45-11.85,28.59-18.91,42.35-1.74,3.39-3.22,6.55-2.81,10.36,1,9.31-3.61,16.74-8.5,23.82-7.19,10.42-16.09,19.42-25.12,28.26-1.87,1.83-3.66,3.1-6,.97-2.51-2.27-1.29-4.23.63-6.14,5.55-5.53,11.18-10.99,16.22-17,5.41-6.46,10.78-12.99,14.05-20.87,1.84-4.43,2.54-9.29-.12-13.51-3.89-6.18-13.47-5.94-17.64-2.16-7.11,6.45-13.64,13.54-20.48,20.3-4.55,4.5-9.25,8.87-13.81,13.36-4.64,4.56-9.94,8.43-12.92,14.59-2.84,5.87-3.92,12.13-4.13,18.37-.42,12.26-.17,24.52-1.54,36.75-.75,6.68-1.6,13.32-2.97,19.89-.5,2.38-.06,3.55,2.86,3.49,8.87-.19,17.74-.07,26.61-.07Zm-.23,35.18c13.24,0,26.48-.05,39.73.03,3.34.02,4.72-1.34,4.65-4.68-.12-6.12-.12-12.24,0-18.36.06-3.31-1.26-4.71-4.62-4.7-26.36.06-52.72.08-79.08-.03-3.03-.01-3.96,1.1-3.92,3.93.1,6.49.14,12.99-.01,19.49-.08,3.45,1.25,4.45,4.66,4.4,12.86-.19,25.73-.08,38.6-.08Z"/>
  <path class="cls-1" d="m252.77,42.05c-.47,11.32-5.24,22.2-12.36,32.15-3.88,5.42-8.05,10.61-12.93,15.2-6.18,5.81-12.66,11.27-19.4,16.42-1.3.99-2.3.66-3.69.1-8.5-3.41-17.15-3.89-25.54.08-3.5,1.66-4.8-1.21-6.55-2.51-8.34-6.17-15.83-13.36-22.7-21.11-8.63-9.72-15.52-20.67-18.15-33.52-2.48-12.12.15-23.31,10.5-31.18,5.9-4.49,12.85-5.96,20.55-5.12,8.25.9,15.39,3.85,22.03,8.52.2.14.47.17.67.31,7.08,5.16,7.14,5.24,13.98-.36,6.5-5.32,14.1-8.54,22.2-8.78,16.84-.49,30.6,8.03,31.41,29.79Z"/>
  <path class="cls-4" d="m191.95,199.07c-14.1,0-28.19,0-42.29,0q-7.29,0-4.1-6.64c5.59-11.7,13.5-21.39,25.4-26.93,17.28-8.05,33.86-6.21,49.34,4.95,8.67,6.25,14.72,14.59,18.83,24.35,1.7,4.04,1.42,4.26-3.01,4.27-14.72.01-29.44,0-44.16,0Z"/>
  <path class="cls-4" d="m226.67,165.47c4.76-6.02,10.21-10.78,16.84-14.2,15.8-8.17,35.84-4.06,47.86,7.7,5.25,5.13,9.6,10.79,12.31,17.61,1.43,3.6,1.09,4.02-2.72,4.03-8.98.03-17.96,0-26.95,0-10.1,0-20.21-.05-30.31.04-2.54.02-4.28-.47-5.74-2.91-2.89-4.84-7.6-8.14-11.29-12.27Z"/>
  <path class="cls-4" d="m111.39,180.61c-9.75,0-19.49-.15-29.23.08-3.61.09-3.67-1.46-2.55-3.89,6.47-14.03,16.29-24.68,31.61-28.68,10.87-2.84,21.56-1.03,31.34,4.64,4.97,2.88,9.55,6.33,12.93,11.18.87,1.25,1.17,1.71-.05,2.81-4.13,3.75-8,7.76-10.98,12.5-.96,1.53-2.15,1.34-3.46,1.34-9.87,0-19.74,0-29.61,0Z"/>
  <path class="cls-5" d="m191.55,111.03c12.3-1.51,21.32,10.13,21.5,19.99.23,12.56-10.23,22.3-22.17,22.06-10.55-.21-20.41-9.68-20.55-21.33-.13-10.25,9.43-22.5,21.22-20.71Z"/>
  <path class="cls-5" d="m102.79,120.87c0-10.08,7.79-19.17,18.3-18.76,11.49.45,18.64,6.64,19.02,18.32.35,10.83-8.46,19.08-19.46,19-9.33-.07-17.65-8.59-17.85-18.57Z"/>
  <path class="cls-5" d="m280.47,120.89c.61,10.07-8.82,18.8-18.8,18.52-11.77-.33-18.62-9.26-18.38-18.73.26-10.71,6.85-18.37,18.65-18.58,10.41-.19,19.34,8.49,18.53,18.79Z"/>
  <path class="cls-5" d="m147.75,336.75c-19.52,0-38.5-.03-57.48.04-2,0-2.17-.79-2.11-2.45.37-10.99-1.21-21.67-5.66-31.79-2.47-5.61-5.97-10.63-10-15.23-6.19-7.06-12.81-13.78-18.66-21.1-6.77-8.48-9.41-18.97-12.44-29.14-4.2-14.12-8.04-28.35-12.08-42.52-4.89-17.15-9.84-34.28-14.73-51.43-1.2-4.19.81-9.74,3.94-11.23,4.27-2.03,11.04-.33,13.61,3.44,2.99,4.4,3.89,9.63,5.67,14.51,5.12,14.06,10.7,27.94,17,41.53,3.06,6.59,6.12,13.17,9.74,19.47.35.61.88,1.43.73,1.99-2.96,11.15,2.59,19.9,8.44,28.26,7.17,10.25,15.97,19.17,24.79,28.02,2.23,2.24,4.6,2.21,6.42.35,1.85-1.88.71-3.88-1.13-5.71-9.63-9.57-19.07-19.33-26.44-30.85-2.44-3.82-4.49-7.91-5.21-12.35-.74-4.53.07-8.86,4.7-11.42,4.2-2.32,10.69-1.7,14.53.97,3.92,2.73,6.64,6.55,9.9,9.89,9.22,9.44,18.11,19.32,28.43,27.53,9.99,7.95,12.69,18.48,12.71,30.15.01,9.95.29,19.9,1,29.79.59,8.22,1.42,16.51,3.54,24.56.38,1.43-.33,3.02.79,4.7Z"/>
  <path class="cls-4" d="m117.79,344.25c12.87,0,25.73,0,38.6,0,4.44,0,5.2.76,5.22,5.24.02,6-.05,11.99.02,17.99.04,3.15-1.39,4.47-4.51,4.46-26.48-.04-52.96-.05-79.44.02-2.58,0-3.65-.86-3.63-3.42.05-6.99.05-13.99,0-20.98-.02-2.57,1.08-3.39,3.65-3.37,13.36.11,26.73.05,40.1.05Z"/>
  <path class="cls-5" d="m265.84,336.75c-8.87,0-17.74-.12-26.61.07-2.92.06-3.36-1.11-2.86-3.49,1.37-6.57,2.22-13.21,2.97-19.89,1.37-12.24,1.13-24.5,1.54-36.75.21-6.24,1.29-12.5,4.13-18.37,2.98-6.15,8.28-10.03,12.92-14.59,4.57-4.49,9.26-8.86,13.81-13.36,6.84-6.76,13.37-13.85,20.48-20.3,4.17-3.78,13.75-4.02,17.64,2.16,2.66,4.22,1.96,9.07.12,13.51-3.27,7.88-8.63,14.41-14.05,20.87-5.04,6.01-10.67,11.47-16.22,17-1.92,1.91-3.14,3.87-.63,6.14,2.35,2.13,4.14.86,6-.97,9.03-8.84,17.93-17.84,25.12-28.26,4.89-7.08,9.5-14.51,8.5-23.82-.41-3.81,1.07-6.97,2.81-10.36,7.06-13.76,13.36-27.9,18.91-42.35,3.01-7.83,5.93-15.69,8.36-23.73,1.77-5.88,6.45-8.99,12.32-8.97,4.97.02,7.61,2.69,7.86,7.64.32,6.38-2.24,12.16-3.87,18.07-6.27,22.63-12.77,45.21-19.41,67.74-3.07,10.39-5.68,20.94-9.82,30.99-2.21,5.36-5.53,10.05-9.39,14.34-6.77,7.52-14.01,14.62-19.9,22.91-5.86,8.26-9.29,17.35-10.45,27.48-.53,4.59-.61,9.14-.6,13.7,0,2.15-.62,2.68-2.7,2.65-8.99-.11-17.99-.05-26.98-.05Z"/>
  <path class="cls-4" d="m265.62,371.92c-12.87,0-25.74-.11-38.6.08-3.41.05-4.74-.95-4.66-4.4.16-6.49.11-12.99.01-19.49-.04-2.83.89-3.94,3.92-3.93,26.36.1,52.72.09,79.08.03,3.36,0,4.69,1.39,4.62,4.7-.12,6.12-.12,12.24,0,18.36.07,3.34-1.31,4.7-4.65,4.68-13.24-.08-26.48-.03-39.73-.03Z"/>
</svg>