<svg width="252" height="21" viewBox="0 0 252 21" fill="none" xmlns="http://www.w3.org/2000/svg">
<path d="M8.064 17.788C8.064 18.1427 8.13867 18.4507 8.288 18.712C8.456 18.9547 8.63333 19.1693 8.82 19.356C9.044 19.5613 9.296 19.7293 9.576 19.86V20H5.432V19.86C5.46933 19.86 5.56267 19.8227 5.712 19.748C5.88 19.6547 6.05733 19.524 6.244 19.356C6.43067 19.188 6.58933 18.9733 6.72 18.712C6.86933 18.4507 6.944 18.1427 6.944 17.788H8.064ZM8.064 0.399999V17.788H6.944V0.399999H8.064ZM2.212 0.399999H12.796V0.819998H2.212V0.399999ZM12.796 0.399999H15.008V4.432H14.868C14.868 4.32 14.8493 4.07733 14.812 3.704C14.7933 3.312 14.7093 2.90133 14.56 2.472C14.4293 2.04267 14.224 1.66 13.944 1.324C13.664 0.987998 13.2813 0.819998 12.796 0.819998V0.399999ZM2.212 0.819998C1.72667 0.819998 1.344 0.987998 1.064 1.324C0.784 1.66 0.569333 2.04267 0.42 2.472C0.289333 2.90133 0.205333 3.312 0.168 3.704C0.149333 4.07733 0.14 4.32 0.14 4.432H0V0.399999H2.212V0.819998ZM19.9084 0.399999H21.0284L27.0204 17.788H25.9004L19.9084 0.399999ZM13.9164 17.788L19.9084 0.399999H20.4684L14.4764 17.788H13.9164ZM14.4764 17.788C14.3644 18.1427 14.3644 18.4507 14.4764 18.712C14.5884 18.9547 14.7471 19.1693 14.9524 19.356C15.1764 19.5613 15.4564 19.7293 15.7924 19.86V20H11.6484V19.86C11.6858 19.86 11.7978 19.8227 11.9844 19.748C12.1898 19.6547 12.4138 19.524 12.6564 19.356C12.8991 19.188 13.1418 18.9733 13.3844 18.712C13.6271 18.4507 13.8044 18.1427 13.9164 17.788H14.4764ZM27.0204 17.788C27.1324 18.1427 27.3098 18.4507 27.5524 18.712C27.7951 18.9733 28.0378 19.188 28.2804 19.356C28.5231 19.524 28.7378 19.6547 28.9244 19.748C29.1298 19.8227 29.2511 19.86 29.2884 19.86V20H25.1444V19.86C25.3684 19.7293 25.5551 19.5613 25.7044 19.356C25.8351 19.1693 25.9284 18.9547 25.9844 18.712C26.0591 18.4507 26.0311 18.1427 25.9004 17.788H27.0204ZM16.3244 11.656H24.0244V12.076H16.3244V11.656ZM19.1524 2.612C19.3018 2.18267 19.2924 1.83733 19.1244 1.576C18.9564 1.31467 18.7418 1.10933 18.4804 0.96C18.2378 0.792 17.9858 0.68 17.7244 0.623999C17.4818 0.567999 17.3418 0.539999 17.3044 0.539999V0.399999H20.4684L19.1524 2.612ZM33.7124 17.788C33.7124 18.1427 33.7871 18.4507 33.9364 18.712C34.1044 18.9547 34.2818 19.1693 34.4684 19.356C34.6924 19.5613 34.9444 19.7293 35.2244 19.86V20H31.0804V19.86C31.1178 19.86 31.2111 19.8227 31.3604 19.748C31.5284 19.6547 31.7058 19.524 31.8924 19.356C32.0791 19.188 32.2378 18.9733 32.3684 18.712C32.5178 18.4507 32.5924 18.1427 32.5924 17.788H33.7124ZM33.7124 0.399999V17.788H32.5924V0.399999H33.7124ZM27.8604 0.399999H38.4444V0.819998H27.8604V0.399999ZM38.4444 0.399999H40.6564V4.432H40.5164C40.5164 4.32 40.4978 4.07733 40.4604 3.704C40.4418 3.312 40.3578 2.90133 40.2084 2.472C40.0778 2.04267 39.8724 1.66 39.5924 1.324C39.3124 0.987998 38.9298 0.819998 38.4444 0.819998V0.399999ZM27.8604 0.819998C27.3751 0.819998 26.9924 0.987998 26.7124 1.324C26.4324 1.66 26.2178 2.04267 26.0684 2.472C25.9378 2.90133 25.8538 3.312 25.8164 3.704C25.7978 4.07733 25.7884 4.32 25.7884 4.432H25.6484V0.399999H27.8604V0.819998ZM43.8401 2.612C43.8401 2.25733 43.7655 1.94933 43.6161 1.688C43.4668 1.42667 43.2895 1.212 43.0841 1.044C42.8601 0.838666 42.6081 0.670666 42.3281 0.539999V0.399999H46.4721V0.539999C46.1921 0.670666 45.9401 0.838666 45.7161 1.044C45.5295 1.212 45.3521 1.42667 45.1841 1.688C45.0348 1.94933 44.9601 2.25733 44.9601 2.612V9.108C44.9228 9.108 45.0255 9.108 45.2681 9.108C45.5108 9.108 45.7908 9.108 46.1081 9.108C46.4255 9.08933 46.7148 9.08 46.9761 9.08C47.2561 9.08 47.3961 9.08 47.3961 9.08C48.5161 9.08 49.6081 9.136 50.6721 9.248C51.7361 9.36 52.6788 9.612 53.5001 10.004C54.3401 10.396 55.0121 10.9653 55.5161 11.712C56.0201 12.4587 56.2721 13.4667 56.2721 14.736C56.2721 15.912 56.0108 16.8453 55.4881 17.536C54.9655 18.2267 54.3121 18.7587 53.5281 19.132C52.7441 19.4867 51.9041 19.72 51.0081 19.832C50.1121 19.944 49.2908 20 48.5441 20H42.3281V19.86C42.4961 19.8227 42.6735 19.7387 42.8601 19.608C43.0468 19.4773 43.2055 19.3187 43.3361 19.132C43.4855 18.9267 43.6068 18.712 43.7001 18.488C43.7935 18.2453 43.8401 18.012 43.8401 17.788V2.612ZM48.5441 19.58C49.1601 19.58 49.8508 19.524 50.6161 19.412C51.3815 19.2813 52.1001 19.048 52.7721 18.712C53.4441 18.3573 54.0041 17.8627 54.4521 17.228C54.9188 16.5747 55.1521 15.7253 55.1521 14.68C55.1521 13.4667 54.8908 12.5147 54.3681 11.824C53.8641 11.1333 53.2201 10.62 52.4361 10.284C51.6521 9.948 50.7935 9.74267 49.8601 9.668C48.9268 9.57467 48.0401 9.528 47.2001 9.528H44.9601V19.58H48.5441ZM63.9734 10.76C64.0668 10.704 64.1694 10.6667 64.2814 10.648V10.62C63.6094 10.5453 62.9468 10.424 62.2934 10.256C61.6588 10.0693 61.0801 9.78933 60.5574 9.416C60.0534 9.024 59.6428 8.52933 59.3254 7.932C59.0081 7.33467 58.8494 6.57867 58.8494 5.664C58.8494 4.488 59.0921 3.55467 59.5774 2.864C60.0628 2.17333 60.6601 1.65067 61.3694 1.296C62.0788 0.922666 62.8254 0.68 63.6094 0.568C64.4121 0.455999 65.1214 0.399999 65.7374 0.399999H72.5134V0.539999C72.3454 0.558666 72.1681 0.642666 71.9814 0.791999C71.7948 0.922666 71.6268 1.09067 71.4774 1.296C71.3468 1.48267 71.2348 1.69733 71.1414 1.94C71.0481 2.164 71.0014 2.388 71.0014 2.612V17.788C71.0014 18.1427 71.0761 18.4507 71.2254 18.712C71.3934 18.9547 71.5708 19.1693 71.7574 19.356C71.9814 19.5613 72.2334 19.7293 72.5134 19.86V20H68.3694V19.86C68.6494 19.7293 68.9014 19.5613 69.1254 19.356C69.3308 19.1693 69.5081 18.9547 69.6574 18.712C69.8068 18.4507 69.8814 18.1427 69.8814 17.788V10.732H66.3534C65.7561 10.732 65.2148 10.9653 64.7294 11.432C64.2628 11.88 63.8241 12.4493 63.4134 13.14C63.0214 13.8307 62.6388 14.5773 62.2654 15.38C61.9108 16.164 61.5374 16.9013 61.1454 17.592C60.7721 18.2827 60.3708 18.8613 59.9414 19.328C59.5121 19.776 59.0268 20 58.4854 20H56.2734V19.86C57.0201 19.86 57.6641 19.6733 58.2054 19.3C58.7654 18.908 59.2508 18.4133 59.6614 17.816C60.0908 17.2 60.4641 16.5373 60.7814 15.828C61.1174 15.1 61.4441 14.4 61.7614 13.728C62.0974 13.0373 62.4334 12.4307 62.7694 11.908C63.1241 11.3667 63.5254 10.984 63.9734 10.76ZM69.8814 10.312V0.819998H65.7374C65.2708 0.819998 64.7014 0.875999 64.0294 0.987999C63.3761 1.1 62.7414 1.33333 62.1254 1.688C61.5281 2.04267 61.0148 2.54667 60.5854 3.2C60.1748 3.83467 59.9694 4.67467 59.9694 5.72C59.9694 6.448 60.0908 7.07333 60.3334 7.596C60.5761 8.1 60.8934 8.52 61.2854 8.856C61.6961 9.192 62.1628 9.46267 62.6854 9.668C63.2268 9.85467 63.7868 9.99467 64.3654 10.088C64.9628 10.1813 65.5601 10.2467 66.1574 10.284C66.7548 10.3027 67.3241 10.312 67.8654 10.312H69.8814ZM74.0276 2.612C74.0276 2.25733 73.953 1.94933 73.8036 1.688C73.673 1.42667 73.5143 1.212 73.3276 1.044C73.141 0.875999 72.9636 0.754665 72.7956 0.679998C72.6463 0.586665 72.553 0.539999 72.5156 0.539999V0.399999H76.6596V0.539999C76.3796 0.670666 76.1276 0.838666 75.9036 1.044C75.717 1.212 75.5396 1.42667 75.3716 1.688C75.2223 1.94933 75.1476 2.25733 75.1476 2.612V9.136H86.9636V2.612C86.9636 2.25733 86.889 1.94933 86.7396 1.688C86.609 1.42667 86.4503 1.212 86.2636 1.044C86.077 0.875999 85.8996 0.754665 85.7316 0.679998C85.5823 0.586665 85.489 0.539999 85.4516 0.539999V0.399999H89.5956V0.539999C89.3156 0.670666 89.0636 0.838666 88.8396 1.044C88.653 1.212 88.4756 1.42667 88.3076 1.688C88.1583 1.94933 88.0836 2.25733 88.0836 2.612V17.788C88.0836 18.1427 88.1583 18.4507 88.3076 18.712C88.4756 18.9547 88.653 19.1693 88.8396 19.356C89.0636 19.5613 89.3156 19.7293 89.5956 19.86V20H85.4516V19.86C85.489 19.86 85.5823 19.8227 85.7316 19.748C85.8996 19.6547 86.077 19.524 86.2636 19.356C86.4503 19.188 86.609 18.9733 86.7396 18.712C86.889 18.4507 86.9636 18.1427 86.9636 17.788V9.556H75.1476V17.788C75.1476 18.1427 75.2223 18.4507 75.3716 18.712C75.5396 18.9547 75.717 19.1693 75.9036 19.356C76.1276 19.5613 76.3796 19.7293 76.6596 19.86V20H72.5156V19.86C72.553 19.86 72.6463 19.8227 72.7956 19.748C72.9636 19.6547 73.141 19.524 73.3276 19.356C73.5143 19.188 73.673 18.9733 73.8036 18.712C73.953 18.4507 74.0276 18.1427 74.0276 17.788V2.612ZM98.9866 0.399999H100.107L106.099 17.788H104.979L98.9866 0.399999ZM92.9946 17.788L98.9866 0.399999H99.5466L93.5546 17.788H92.9946ZM93.5546 17.788C93.4426 18.1427 93.4426 18.4507 93.5546 18.712C93.6666 18.9547 93.8252 19.1693 94.0306 19.356C94.2546 19.5613 94.5346 19.7293 94.8706 19.86V20H90.7266V19.86C90.7639 19.86 90.8759 19.8227 91.0626 19.748C91.2679 19.6547 91.4919 19.524 91.7346 19.356C91.9772 19.188 92.2199 18.9733 92.4626 18.712C92.7052 18.4507 92.8826 18.1427 92.9946 17.788H93.5546ZM106.099 17.788C106.211 18.1427 106.388 18.4507 106.631 18.712C106.873 18.9733 107.116 19.188 107.359 19.356C107.601 19.524 107.816 19.6547 108.003 19.748C108.208 19.8227 108.329 19.86 108.367 19.86V20H104.223V19.86C104.447 19.7293 104.633 19.5613 104.783 19.356C104.913 19.1693 105.007 18.9547 105.063 18.712C105.137 18.4507 105.109 18.1427 104.979 17.788H106.099ZM95.4026 11.656H103.103V12.076H95.4026V11.656ZM98.2306 2.612C98.3799 2.18267 98.3706 1.83733 98.2026 1.576C98.0346 1.31467 97.8199 1.10933 97.5586 0.96C97.3159 0.792 97.0639 0.68 96.8026 0.623999C96.5599 0.567999 96.4199 0.539999 96.3826 0.539999V0.399999H99.5466L98.2306 2.612ZM116.483 10.2C116.483 11.4693 116.679 12.6827 117.071 13.84C117.463 14.9787 117.995 15.9867 118.667 16.864C119.339 17.7413 120.123 18.4413 121.019 18.964C121.934 19.468 122.895 19.72 123.903 19.72C125.415 19.72 126.694 19.412 127.739 18.796C128.803 18.18 129.709 17.228 130.455 15.94L130.819 16.136C130.483 16.7147 130.091 17.2653 129.643 17.788C129.214 18.292 128.719 18.7307 128.159 19.104C127.599 19.4587 126.965 19.748 126.255 19.972C125.565 20.1773 124.781 20.28 123.903 20.28C122.522 20.28 121.299 20.028 120.235 19.524C119.171 19.0013 118.275 18.292 117.547 17.396C116.838 16.5 116.297 15.436 115.923 14.204C115.55 12.972 115.363 11.628 115.363 10.172C115.363 8.716 115.587 7.372 116.035 6.14C116.483 4.908 117.099 3.844 117.883 2.948C118.686 2.052 119.638 1.36133 120.739 0.875999C121.841 0.371999 123.035 0.119999 124.323 0.119999C125.033 0.119999 125.658 0.203999 126.199 0.371999C126.741 0.539999 127.207 0.745333 127.599 0.987999C128.01 1.212 128.365 1.45467 128.663 1.716C128.962 1.95867 129.233 2.164 129.475 2.332C129.606 2.42533 129.718 2.472 129.811 2.472C129.998 2.472 130.129 2.36 130.203 2.136C130.297 1.89333 130.343 1.61333 130.343 1.296H130.483V5.86H130.343C130.175 5.132 129.895 4.46 129.503 3.844C129.13 3.228 128.663 2.696 128.103 2.248C127.543 1.8 126.918 1.45467 126.227 1.212C125.537 0.950665 124.809 0.819998 124.043 0.819998C122.886 0.819998 121.841 1.072 120.907 1.576C119.974 2.08 119.181 2.76133 118.527 3.62C117.874 4.47867 117.37 5.47733 117.015 6.616C116.661 7.736 116.483 8.93067 116.483 10.2ZM139.402 15.464L133.522 2.612H134.642L139.906 14.12L144.638 2.612H145.226L139.318 16.892C139.094 17.34 138.87 17.76 138.646 18.152C138.441 18.5253 138.198 18.852 137.918 19.132C137.657 19.3933 137.358 19.608 137.022 19.776C136.686 19.9253 136.294 20 135.846 20C135.566 20 135.277 19.9627 134.978 19.888C134.698 19.7947 134.437 19.664 134.194 19.496C133.97 19.328 133.783 19.1227 133.634 18.88C133.503 18.6373 133.438 18.3573 133.438 18.04C133.438 17.7787 133.503 17.5827 133.634 17.452C133.783 17.3027 133.951 17.2187 134.138 17.2C134.343 17.1813 134.549 17.228 134.754 17.34C134.978 17.4333 135.174 17.6107 135.342 17.872C135.659 18.376 135.967 18.712 136.266 18.88C136.565 19.0293 136.835 19.0573 137.078 18.964C137.339 18.8707 137.582 18.6933 137.806 18.432C138.049 18.152 138.263 17.844 138.45 17.508C138.655 17.1533 138.833 16.7893 138.982 16.416C139.131 16.0427 139.271 15.7253 139.402 15.464ZM145.226 2.612C145.375 2.25733 145.599 1.94933 145.898 1.688C146.215 1.42667 146.533 1.212 146.85 1.044C147.223 0.838666 147.625 0.670666 148.054 0.539999V0.399999H143.91V0.539999C143.947 0.539999 144.031 0.586665 144.162 0.679998C144.293 0.754665 144.414 0.875999 144.526 1.044C144.657 1.212 144.741 1.42667 144.778 1.688C144.834 1.94933 144.787 2.25733 144.638 2.612H145.226ZM133.522 2.612H134.642C134.511 2.25733 134.465 1.94933 134.502 1.688C134.539 1.42667 134.605 1.212 134.698 1.044C134.791 0.875999 134.894 0.754665 135.006 0.679998C135.118 0.586665 135.193 0.539999 135.23 0.539999V0.399999H131.086V0.539999C131.459 0.670666 131.805 0.838666 132.122 1.044C132.383 1.212 132.645 1.42667 132.906 1.688C133.186 1.94933 133.391 2.25733 133.522 2.612ZM145.354 20.14C145.036 20.14 144.803 20.0467 144.654 19.86C144.504 19.6733 144.43 19.5053 144.43 19.356C144.43 19.076 144.514 18.8707 144.682 18.74C144.85 18.5907 145.074 18.516 145.354 18.516C146.082 18.516 146.744 18.3573 147.342 18.04C147.958 17.7227 148.452 17.2373 148.826 16.584C149.087 16.1173 149.32 15.548 149.526 14.876C149.731 14.204 149.974 13.3547 150.254 12.328C150.31 12.16 150.375 11.8053 150.45 11.264C150.543 10.704 150.636 10.004 150.73 9.164C150.823 8.324 150.898 7.35333 150.954 6.252C151.028 5.132 151.075 3.91867 151.094 2.612C151.094 2.25733 151 1.94933 150.814 1.688C150.646 1.42667 150.45 1.212 150.226 1.044C150.02 0.875999 149.824 0.754665 149.638 0.679998C149.451 0.586665 149.339 0.539999 149.302 0.539999V0.399999H161.286V0.539999C161.248 0.539999 161.146 0.586665 160.978 0.679998C160.828 0.754665 160.66 0.875999 160.474 1.044C160.287 1.212 160.119 1.42667 159.97 1.688C159.839 1.94933 159.774 2.25733 159.774 2.612V17.788C159.774 18.1427 159.839 18.4507 159.97 18.712C160.119 18.9733 160.287 19.188 160.474 19.356C160.66 19.524 160.828 19.6547 160.978 19.748C161.146 19.8227 161.248 19.86 161.286 19.86V20H157.142V19.86C157.422 19.7293 157.674 19.5613 157.898 19.356C158.103 19.1693 158.28 18.9547 158.43 18.712C158.579 18.4507 158.654 18.1427 158.654 17.788V0.819998H151.57V2.612C151.57 3.564 151.551 4.50667 151.514 5.44C151.476 6.35467 151.43 7.204 151.374 7.988C151.336 8.772 151.28 9.46267 151.206 10.06C151.15 10.6573 151.094 11.124 151.038 11.46C150.888 12.3747 150.692 13.3453 150.45 14.372C150.207 15.3987 149.871 16.3413 149.442 17.2C149.012 18.04 148.471 18.74 147.818 19.3C147.164 19.86 146.343 20.14 145.354 20.14ZM179.013 17.788C179.013 18.1427 179.088 18.4507 179.237 18.712C179.405 18.9547 179.583 19.1693 179.769 19.356C179.993 19.5613 180.245 19.7293 180.525 19.86V20H176.381V19.86C176.419 19.86 176.512 19.8227 176.661 19.748C176.829 19.6547 177.007 19.524 177.193 19.356C177.38 19.188 177.539 18.9733 177.669 18.712C177.819 18.4507 177.893 18.1427 177.893 17.788V3.424L165.573 17.788C165.573 18.1427 165.648 18.4507 165.797 18.712C165.965 18.9547 166.143 19.1693 166.329 19.356C166.553 19.5613 166.805 19.7293 167.085 19.86V20H162.941V19.86C162.979 19.86 163.072 19.8227 163.221 19.748C163.389 19.6547 163.567 19.524 163.753 19.356C163.94 19.188 164.099 18.9733 164.229 18.712C164.379 18.4507 164.453 18.1427 164.453 17.788V2.612C164.453 2.25733 164.379 1.94933 164.229 1.688C164.099 1.42667 163.94 1.212 163.753 1.044C163.567 0.875999 163.389 0.754665 163.221 0.679998C163.072 0.586665 162.979 0.539999 162.941 0.539999V0.399999H167.085V0.539999C166.805 0.670666 166.553 0.838666 166.329 1.044C166.143 1.212 165.965 1.42667 165.797 1.688C165.648 1.94933 165.573 2.25733 165.573 2.612V16.976L177.893 2.612C177.893 2.25733 177.819 1.94933 177.669 1.688C177.539 1.42667 177.38 1.212 177.193 1.044C177.007 0.875999 176.829 0.754665 176.661 0.679998C176.512 0.586665 176.419 0.539999 176.381 0.539999V0.399999H180.525V0.539999C180.245 0.670666 179.993 0.838666 179.769 1.044C179.583 1.212 179.405 1.42667 179.237 1.688C179.088 1.94933 179.013 2.25733 179.013 2.612V17.788ZM184.199 17.788C184.199 18.1427 184.292 18.4507 184.479 18.712C184.684 18.9547 184.908 19.1693 185.151 19.356C185.412 19.5613 185.72 19.7293 186.075 19.86V20H181.931V19.86C181.968 19.86 182.08 19.8227 182.267 19.748C182.472 19.6547 182.687 19.524 182.911 19.356C183.135 19.188 183.331 18.9733 183.499 18.712C183.686 18.4507 183.779 18.1427 183.779 17.788V2.612C183.779 2.25733 183.686 1.94933 183.499 1.688C183.331 1.42667 183.135 1.212 182.911 1.044C182.687 0.875999 182.472 0.754665 182.267 0.679998C182.08 0.586665 181.968 0.539999 181.931 0.539999V0.399999H185.011L192.823 18.628L200.271 0.399999H202.903V0.539999C202.623 0.670666 202.371 0.838666 202.147 1.044C201.96 1.212 201.783 1.42667 201.615 1.688C201.466 1.94933 201.391 2.25733 201.391 2.612V17.788C201.391 18.1427 201.466 18.4507 201.615 18.712C201.783 18.9547 201.96 19.1693 202.147 19.356C202.371 19.5613 202.623 19.7293 202.903 19.86V20H198.759V19.86C199.039 19.7293 199.291 19.5613 199.515 19.356C199.72 19.1693 199.898 18.9547 200.047 18.712C200.196 18.4507 200.271 18.1427 200.271 17.788V1.436L192.627 20.14H192.207L184.199 1.436V17.788ZM211.591 0.119999C212.879 0.119999 214.037 0.371999 215.063 0.875999C216.109 1.36133 216.995 2.052 217.723 2.948C218.451 3.844 219.011 4.908 219.403 6.14C219.795 7.372 219.991 8.72533 219.991 10.2C219.991 11.6747 219.795 13.028 219.403 14.26C219.011 15.492 218.451 16.556 217.723 17.452C216.995 18.348 216.109 19.048 215.063 19.552C214.037 20.0373 212.879 20.28 211.591 20.28C210.303 20.28 209.137 20.0373 208.091 19.552C207.065 19.048 206.187 18.348 205.459 17.452C204.731 16.556 204.171 15.492 203.779 14.26C203.387 13.028 203.191 11.6747 203.191 10.2C203.191 8.72533 203.387 7.372 203.779 6.14C204.171 4.908 204.731 3.844 205.459 2.948C206.187 2.052 207.065 1.36133 208.091 0.875999C209.137 0.371999 210.303 0.119999 211.591 0.119999ZM211.591 19.86C212.749 19.86 213.775 19.5987 214.671 19.076C215.586 18.5347 216.351 17.816 216.967 16.92C217.583 16.024 218.05 14.9973 218.367 13.84C218.703 12.664 218.871 11.4507 218.871 10.2C218.871 8.93067 218.703 7.71733 218.367 6.56C218.05 5.40267 217.583 4.376 216.967 3.48C216.351 2.584 215.586 1.87467 214.671 1.352C213.775 0.810666 212.749 0.539999 211.591 0.539999C210.434 0.539999 209.398 0.810666 208.483 1.352C207.587 1.87467 206.831 2.584 206.215 3.48C205.599 4.376 205.123 5.40267 204.787 6.56C204.47 7.71733 204.311 8.93067 204.311 10.2C204.311 11.4507 204.47 12.664 204.787 13.84C205.123 14.9973 205.599 16.024 206.215 16.92C206.831 17.816 207.587 18.5347 208.483 19.076C209.398 19.5987 210.434 19.86 211.591 19.86ZM222.039 2.612C222.039 2.388 221.993 2.164 221.899 1.94C221.806 1.716 221.685 1.51067 221.535 1.324C221.405 1.11867 221.246 0.950665 221.059 0.819998C220.891 0.670666 220.714 0.577332 220.527 0.539999V0.399999H226.351C228.33 0.399999 229.907 0.773332 231.083 1.52C232.259 2.248 232.847 3.396 232.847 4.964C232.847 5.412 232.782 5.86933 232.651 6.336C232.539 6.784 232.334 7.204 232.035 7.596C231.755 7.96933 231.373 8.30533 230.887 8.604C230.402 8.884 229.795 9.08933 229.067 9.22C229.907 9.25733 230.691 9.388 231.419 9.612C232.147 9.81733 232.773 10.1347 233.295 10.564C233.837 10.9933 234.257 11.5533 234.555 12.244C234.873 12.916 235.031 13.7467 235.031 14.736C235.031 15.912 234.77 16.8453 234.247 17.536C233.725 18.2267 233.071 18.7587 232.287 19.132C231.503 19.4867 230.663 19.72 229.767 19.832C228.871 19.944 228.05 20 227.303 20H220.527V19.86C220.695 19.8227 220.873 19.7387 221.059 19.608C221.246 19.4773 221.405 19.3187 221.535 19.132C221.685 18.9267 221.806 18.712 221.899 18.488C221.993 18.2453 222.039 18.012 222.039 17.788V2.612ZM223.159 9.108C223.122 9.108 223.29 9.108 223.663 9.108C224.037 9.108 224.457 9.108 224.923 9.108C225.39 9.108 225.819 9.108 226.211 9.108C226.622 9.08933 226.827 9.08 226.827 9.08C228.395 8.98667 229.599 8.604 230.439 7.932C231.298 7.26 231.727 6.27067 231.727 4.964C231.727 3.65733 231.261 2.64 230.327 1.912C229.394 1.184 227.975 0.819998 226.071 0.819998H223.159V9.108ZM227.303 19.58C227.919 19.58 228.61 19.524 229.375 19.412C230.141 19.2813 230.859 19.048 231.531 18.712C232.203 18.3573 232.763 17.8627 233.211 17.228C233.678 16.5747 233.911 15.7253 233.911 14.68C233.911 13.8587 233.79 13.168 233.547 12.608C233.305 12.048 232.978 11.5813 232.567 11.208C232.175 10.8347 231.709 10.5453 231.167 10.34C230.645 10.1347 230.085 9.976 229.487 9.864C228.909 9.752 228.311 9.67733 227.695 9.64C227.098 9.60267 226.519 9.56533 225.959 9.528H223.159V19.58H227.303ZM242.432 0.399999H243.552L249.544 17.788H248.424L242.432 0.399999ZM236.44 17.788L242.432 0.399999H242.992L237 17.788H236.44ZM237 17.788C236.888 18.1427 236.888 18.4507 237 18.712C237.112 18.9547 237.271 19.1693 237.476 19.356C237.7 19.5613 237.98 19.7293 238.316 19.86V20H234.172V19.86C234.209 19.86 234.321 19.8227 234.508 19.748C234.713 19.6547 234.937 19.524 235.18 19.356C235.423 19.188 235.665 18.9733 235.908 18.712C236.151 18.4507 236.328 18.1427 236.44 17.788H237ZM249.544 17.788C249.656 18.1427 249.833 18.4507 250.076 18.712C250.319 18.9733 250.561 19.188 250.804 19.356C251.047 19.524 251.261 19.6547 251.448 19.748C251.653 19.8227 251.775 19.86 251.812 19.86V20H247.668V19.86C247.892 19.7293 248.079 19.5613 248.228 19.356C248.359 19.1693 248.452 18.9547 248.508 18.712C248.583 18.4507 248.555 18.1427 248.424 17.788H249.544ZM238.848 11.656H246.548V12.076H238.848V11.656ZM241.676 2.612C241.825 2.18267 241.816 1.83733 241.648 1.576C241.48 1.31467 241.265 1.10933 241.004 0.96C240.761 0.792 240.509 0.68 240.248 0.623999C240.005 0.567999 239.865 0.539999 239.828 0.539999V0.399999H242.992L241.676 2.612Z" fill="black"/>
</svg>
