<svg width="324" height="27" viewBox="0 0 324 27" fill="none" xmlns="http://www.w3.org/2000/svg">
<path d="M10.368 23.156C10.368 23.612 10.464 24.008 10.656 24.344C10.872 24.656 11.1 24.932 11.34 25.172C11.628 25.436 11.952 25.652 12.312 25.82V26H6.984V25.82C7.032 25.82 7.152 25.772 7.344 25.676C7.56 25.556 7.788 25.388 8.028 25.172C8.268 24.956 8.472 24.68 8.64 24.344C8.832 24.008 8.928 23.612 8.928 23.156H10.368ZM10.368 0.799998V23.156H8.928V0.799998H10.368ZM2.844 0.799998H16.452V1.34H2.844V0.799998ZM16.452 0.799998H19.296V5.984H19.116C19.116 5.84 19.092 5.528 19.044 5.048C19.02 4.544 18.912 4.016 18.72 3.464C18.552 2.912 18.288 2.42 17.928 1.988C17.568 1.556 17.076 1.34 16.452 1.34V0.799998ZM2.844 1.34C2.22 1.34 1.728 1.556 1.368 1.988C1.008 2.42 0.732 2.912 0.54 3.464C0.372 4.016 0.264 4.544 0.216 5.048C0.192 5.528 0.18 5.84 0.18 5.984H0V0.799998H2.844V1.34ZM25.5966 0.799998H27.0366L34.7406 23.156H33.3006L25.5966 0.799998ZM17.8926 23.156L25.5966 0.799998H26.3166L18.6126 23.156H17.8926ZM18.6126 23.156C18.4686 23.612 18.4686 24.008 18.6126 24.344C18.7566 24.656 18.9606 24.932 19.2246 25.172C19.5126 25.436 19.8726 25.652 20.3046 25.82V26H14.9766V25.82C15.0246 25.82 15.1686 25.772 15.4086 25.676C15.6726 25.556 15.9606 25.388 16.2726 25.172C16.5846 24.956 16.8966 24.68 17.2086 24.344C17.5206 24.008 17.7486 23.612 17.8926 23.156H18.6126ZM34.7406 23.156C34.8846 23.612 35.1126 24.008 35.4246 24.344C35.7366 24.68 36.0486 24.956 36.3606 25.172C36.6726 25.388 36.9486 25.556 37.1886 25.676C37.4526 25.772 37.6086 25.82 37.6566 25.82V26H32.3286V25.82C32.6166 25.652 32.8566 25.436 33.0486 25.172C33.2166 24.932 33.3366 24.656 33.4086 24.344C33.5046 24.008 33.4686 23.612 33.3006 23.156H34.7406ZM20.9886 15.272H30.8886V15.812H20.9886V15.272ZM24.6246 3.644C24.8166 3.092 24.8046 2.648 24.5886 2.312C24.3726 1.976 24.0966 1.712 23.7606 1.52C23.4486 1.304 23.1246 1.16 22.7886 1.088C22.4766 1.016 22.2966 0.979998 22.2486 0.979998V0.799998H26.3166L24.6246 3.644ZM43.3446 23.156C43.3446 23.612 43.4406 24.008 43.6326 24.344C43.8486 24.656 44.0766 24.932 44.3166 25.172C44.6046 25.436 44.9286 25.652 45.2886 25.82V26H39.9606V25.82C40.0086 25.82 40.1286 25.772 40.3206 25.676C40.5366 25.556 40.7646 25.388 41.0046 25.172C41.2446 24.956 41.4486 24.68 41.6166 24.344C41.8086 24.008 41.9046 23.612 41.9046 23.156H43.3446ZM43.3446 0.799998V23.156H41.9046V0.799998H43.3446ZM35.8206 0.799998H49.4286V1.34H35.8206V0.799998ZM49.4286 0.799998H52.2726V5.984H52.0926C52.0926 5.84 52.0686 5.528 52.0206 5.048C51.9966 4.544 51.8886 4.016 51.6966 3.464C51.5286 2.912 51.2646 2.42 50.9046 1.988C50.5446 1.556 50.0526 1.34 49.4286 1.34V0.799998ZM35.8206 1.34C35.1966 1.34 34.7046 1.556 34.3446 1.988C33.9846 2.42 33.7086 2.912 33.5166 3.464C33.3486 4.016 33.2406 4.544 33.1926 5.048C33.1686 5.528 33.1566 5.84 33.1566 5.984H32.9766V0.799998H35.8206V1.34ZM56.3659 3.644C56.3659 3.188 56.2699 2.792 56.0779 2.456C55.8859 2.12 55.6579 1.844 55.3939 1.628C55.1059 1.364 54.7819 1.148 54.4219 0.979998V0.799998H59.7499V0.979998C59.3899 1.148 59.0659 1.364 58.7779 1.628C58.5379 1.844 58.3099 2.12 58.0939 2.456C57.9019 2.792 57.8059 3.188 57.8059 3.644V11.996C57.7579 11.996 57.8899 11.996 58.2019 11.996C58.5139 11.996 58.8739 11.996 59.2819 11.996C59.6899 11.972 60.0619 11.96 60.3979 11.96C60.7579 11.96 60.9379 11.96 60.9379 11.96C62.3779 11.96 63.7819 12.032 65.1499 12.176C66.5179 12.32 67.7299 12.644 68.7859 13.148C69.8659 13.652 70.7299 14.384 71.3779 15.344C72.0259 16.304 72.3499 17.6 72.3499 19.232C72.3499 20.744 72.0139 21.944 71.3419 22.832C70.6699 23.72 69.8299 24.404 68.8219 24.884C67.8139 25.34 66.7339 25.64 65.5819 25.784C64.4299 25.928 63.3739 26 62.4139 26H54.4219V25.82C54.6379 25.772 54.8659 25.664 55.1059 25.496C55.3459 25.328 55.5499 25.124 55.7179 24.884C55.9099 24.62 56.0659 24.344 56.1859 24.056C56.3059 23.744 56.3659 23.444 56.3659 23.156V3.644ZM62.4139 25.46C63.2059 25.46 64.0939 25.388 65.0779 25.244C66.0619 25.076 66.9859 24.776 67.8499 24.344C68.7139 23.888 69.4339 23.252 70.0099 22.436C70.6099 21.596 70.9099 20.504 70.9099 19.16C70.9099 17.6 70.5739 16.376 69.9019 15.488C69.2539 14.6 68.4259 13.94 67.4179 13.508C66.4099 13.076 65.3059 12.812 64.1059 12.716C62.9059 12.596 61.7659 12.536 60.6859 12.536H57.8059V25.46H62.4139ZM82.2516 14.12C82.3716 14.048 82.5036 14 82.6476 13.976V13.94C81.7836 13.844 80.9316 13.688 80.0916 13.472C79.2756 13.232 78.5316 12.872 77.8596 12.392C77.2116 11.888 76.6836 11.252 76.2756 10.484C75.8676 9.716 75.6636 8.744 75.6636 7.568C75.6636 6.056 75.9756 4.856 76.5996 3.968C77.2236 3.08 77.9916 2.408 78.9036 1.952C79.8156 1.472 80.7756 1.16 81.7836 1.016C82.8156 0.871999 83.7276 0.799998 84.5196 0.799998H93.2316V0.979998C93.0156 1.004 92.7876 1.112 92.5476 1.304C92.3076 1.472 92.0916 1.688 91.8996 1.952C91.7316 2.192 91.5876 2.468 91.4676 2.78C91.3476 3.068 91.2876 3.356 91.2876 3.644V23.156C91.2876 23.612 91.3836 24.008 91.5756 24.344C91.7916 24.656 92.0196 24.932 92.2596 25.172C92.5476 25.436 92.8716 25.652 93.2316 25.82V26H87.9036V25.82C88.2636 25.652 88.5876 25.436 88.8756 25.172C89.1396 24.932 89.3676 24.656 89.5596 24.344C89.7516 24.008 89.8476 23.612 89.8476 23.156V14.084H85.3116C84.5436 14.084 83.8476 14.384 83.2236 14.984C82.6236 15.56 82.0596 16.292 81.5316 17.18C81.0276 18.068 80.5356 19.028 80.0556 20.06C79.5996 21.068 79.1196 22.016 78.6156 22.904C78.1356 23.792 77.6196 24.536 77.0676 25.136C76.5156 25.712 75.8916 26 75.1956 26H72.3516V25.82C73.3116 25.82 74.1396 25.58 74.8356 25.1C75.5556 24.596 76.1796 23.96 76.7076 23.192C77.2596 22.4 77.7396 21.548 78.1476 20.636C78.5796 19.7 78.9996 18.8 79.4076 17.936C79.8396 17.048 80.2716 16.268 80.7036 15.596C81.1596 14.9 81.6756 14.408 82.2516 14.12ZM89.8476 13.544V1.34H84.5196C83.9196 1.34 83.1876 1.412 82.3236 1.556C81.4836 1.7 80.6676 2 79.8756 2.456C79.1076 2.912 78.4476 3.56 77.8956 4.4C77.3676 5.216 77.1036 6.296 77.1036 7.64C77.1036 8.576 77.2596 9.38 77.5716 10.052C77.8836 10.7 78.2916 11.24 78.7956 11.672C79.3236 12.104 79.9236 12.452 80.5956 12.716C81.2916 12.956 82.0116 13.136 82.7556 13.256C83.5236 13.376 84.2916 13.46 85.0596 13.508C85.8276 13.532 86.5596 13.544 87.2556 13.544H89.8476ZM95.1784 3.644C95.1784 3.188 95.0824 2.792 94.8904 2.456C94.7224 2.12 94.5184 1.844 94.2784 1.628C94.0384 1.412 93.8104 1.256 93.5944 1.16C93.4024 1.04 93.2824 0.979998 93.2344 0.979998V0.799998H98.5624V0.979998C98.2024 1.148 97.8784 1.364 97.5904 1.628C97.3504 1.844 97.1224 2.12 96.9064 2.456C96.7144 2.792 96.6184 3.188 96.6184 3.644V12.032H111.81V3.644C111.81 3.188 111.714 2.792 111.522 2.456C111.354 2.12 111.15 1.844 110.91 1.628C110.67 1.412 110.442 1.256 110.226 1.16C110.034 1.04 109.914 0.979998 109.866 0.979998V0.799998H115.194V0.979998C114.834 1.148 114.51 1.364 114.222 1.628C113.982 1.844 113.754 2.12 113.538 2.456C113.346 2.792 113.25 3.188 113.25 3.644V23.156C113.25 23.612 113.346 24.008 113.538 24.344C113.754 24.656 113.982 24.932 114.222 25.172C114.51 25.436 114.834 25.652 115.194 25.82V26H109.866V25.82C109.914 25.82 110.034 25.772 110.226 25.676C110.442 25.556 110.67 25.388 110.91 25.172C111.15 24.956 111.354 24.68 111.522 24.344C111.714 24.008 111.81 23.612 111.81 23.156V12.572H96.6184V23.156C96.6184 23.612 96.7144 24.008 96.9064 24.344C97.1224 24.656 97.3504 24.932 97.5904 25.172C97.8784 25.436 98.2024 25.652 98.5624 25.82V26H93.2344V25.82C93.2824 25.82 93.4024 25.772 93.5944 25.676C93.8104 25.556 94.0384 25.388 94.2784 25.172C94.5184 24.956 94.7224 24.68 94.8904 24.344C95.0824 24.008 95.1784 23.612 95.1784 23.156V3.644ZM127.268 0.799998H128.708L136.412 23.156H134.972L127.268 0.799998ZM119.564 23.156L127.268 0.799998H127.988L120.284 23.156H119.564ZM120.284 23.156C120.14 23.612 120.14 24.008 120.284 24.344C120.428 24.656 120.632 24.932 120.896 25.172C121.184 25.436 121.544 25.652 121.976 25.82V26H116.648V25.82C116.696 25.82 116.84 25.772 117.08 25.676C117.344 25.556 117.632 25.388 117.944 25.172C118.256 24.956 118.568 24.68 118.88 24.344C119.192 24.008 119.42 23.612 119.564 23.156H120.284ZM136.412 23.156C136.556 23.612 136.784 24.008 137.096 24.344C137.408 24.68 137.72 24.956 138.032 25.172C138.344 25.388 138.62 25.556 138.86 25.676C139.124 25.772 139.28 25.82 139.328 25.82V26H134V25.82C134.288 25.652 134.528 25.436 134.72 25.172C134.888 24.932 135.008 24.656 135.08 24.344C135.176 24.008 135.14 23.612 134.972 23.156H136.412ZM122.66 15.272H132.56V15.812H122.66V15.272ZM126.296 3.644C126.488 3.092 126.476 2.648 126.26 2.312C126.044 1.976 125.768 1.712 125.432 1.52C125.12 1.304 124.796 1.16 124.46 1.088C124.148 1.016 123.968 0.979998 123.92 0.979998V0.799998H127.988L126.296 3.644ZM149.764 13.4C149.764 15.032 150.016 16.592 150.52 18.08C151.024 19.544 151.708 20.84 152.572 21.968C153.436 23.096 154.444 23.996 155.596 24.668C156.772 25.316 158.008 25.64 159.304 25.64C161.248 25.64 162.892 25.244 164.236 24.452C165.604 23.66 166.768 22.436 167.728 20.78L168.196 21.032C167.764 21.776 167.26 22.484 166.684 23.156C166.132 23.804 165.496 24.368 164.776 24.848C164.056 25.304 163.24 25.676 162.328 25.964C161.44 26.228 160.432 26.36 159.304 26.36C157.528 26.36 155.956 26.036 154.588 25.388C153.22 24.716 152.068 23.804 151.132 22.652C150.22 21.5 149.524 20.132 149.044 18.548C148.564 16.964 148.324 15.236 148.324 13.364C148.324 11.492 148.612 9.764 149.188 8.18C149.764 6.596 150.556 5.228 151.564 4.076C152.596 2.924 153.82 2.036 155.236 1.412C156.652 0.763999 158.188 0.439999 159.844 0.439999C160.756 0.439999 161.56 0.547999 162.256 0.763999C162.952 0.979999 163.552 1.244 164.056 1.556C164.584 1.844 165.04 2.156 165.424 2.492C165.808 2.804 166.156 3.068 166.468 3.284C166.636 3.404 166.78 3.464 166.9 3.464C167.14 3.464 167.308 3.32 167.404 3.032C167.524 2.72 167.584 2.36 167.584 1.952H167.764V7.82H167.584C167.368 6.884 167.008 6.02 166.504 5.228C166.024 4.436 165.424 3.752 164.704 3.176C163.984 2.6 163.18 2.156 162.292 1.844C161.404 1.508 160.468 1.34 159.484 1.34C157.996 1.34 156.652 1.664 155.452 2.312C154.252 2.96 153.232 3.836 152.392 4.94C151.552 6.044 150.904 7.328 150.448 8.792C149.992 10.232 149.764 11.768 149.764 13.4ZM179.231 20.168L171.671 3.644H173.111L179.879 18.44L185.963 3.644H186.719L179.123 22.004C178.835 22.58 178.547 23.12 178.259 23.624C177.995 24.104 177.683 24.524 177.323 24.884C176.987 25.22 176.603 25.496 176.171 25.712C175.739 25.904 175.235 26 174.659 26C174.299 26 173.927 25.952 173.543 25.856C173.183 25.736 172.847 25.568 172.535 25.352C172.247 25.136 172.007 24.872 171.815 24.56C171.647 24.248 171.563 23.888 171.563 23.48C171.563 23.144 171.647 22.892 171.815 22.724C172.007 22.532 172.223 22.424 172.463 22.4C172.727 22.376 172.991 22.436 173.255 22.58C173.543 22.7 173.795 22.928 174.011 23.264C174.419 23.912 174.815 24.344 175.199 24.56C175.583 24.752 175.931 24.788 176.243 24.668C176.579 24.548 176.891 24.32 177.179 23.984C177.491 23.624 177.767 23.228 178.007 22.796C178.271 22.34 178.499 21.872 178.691 21.392C178.883 20.912 179.063 20.504 179.231 20.168ZM186.719 3.644C186.911 3.188 187.199 2.792 187.583 2.456C187.991 2.12 188.399 1.844 188.807 1.628C189.287 1.364 189.803 1.148 190.355 0.979998V0.799998H185.027V0.979998C185.075 0.979998 185.183 1.04 185.351 1.16C185.519 1.256 185.675 1.412 185.819 1.628C185.987 1.844 186.095 2.12 186.143 2.456C186.215 2.792 186.155 3.188 185.963 3.644H186.719ZM171.671 3.644H173.111C172.943 3.188 172.883 2.792 172.931 2.456C172.979 2.12 173.063 1.844 173.183 1.628C173.303 1.412 173.435 1.256 173.579 1.16C173.723 1.04 173.819 0.979998 173.867 0.979998V0.799998H168.539V0.979998C169.019 1.148 169.463 1.364 169.871 1.628C170.207 1.844 170.543 2.12 170.879 2.456C171.239 2.792 171.503 3.188 171.671 3.644ZM186.883 26.18C186.475 26.18 186.175 26.06 185.983 25.82C185.791 25.58 185.695 25.364 185.695 25.172C185.695 24.812 185.803 24.548 186.019 24.38C186.235 24.188 186.523 24.092 186.883 24.092C187.819 24.092 188.671 23.888 189.439 23.48C190.231 23.072 190.867 22.448 191.347 21.608C191.683 21.008 191.983 20.276 192.247 19.412C192.511 18.548 192.823 17.456 193.183 16.136C193.255 15.92 193.339 15.464 193.435 14.768C193.555 14.048 193.675 13.148 193.795 12.068C193.915 10.988 194.011 9.74 194.083 8.324C194.179 6.884 194.239 5.324 194.263 3.644C194.263 3.188 194.143 2.792 193.903 2.456C193.687 2.12 193.435 1.844 193.147 1.628C192.883 1.412 192.631 1.256 192.391 1.16C192.151 1.04 192.007 0.979998 191.959 0.979998V0.799998H207.367V0.979998C207.319 0.979998 207.187 1.04 206.971 1.16C206.779 1.256 206.563 1.412 206.323 1.628C206.083 1.844 205.867 2.12 205.675 2.456C205.507 2.792 205.423 3.188 205.423 3.644V23.156C205.423 23.612 205.507 24.008 205.675 24.344C205.867 24.68 206.083 24.956 206.323 25.172C206.563 25.388 206.779 25.556 206.971 25.676C207.187 25.772 207.319 25.82 207.367 25.82V26H202.039V25.82C202.399 25.652 202.723 25.436 203.011 25.172C203.275 24.932 203.503 24.656 203.695 24.344C203.887 24.008 203.983 23.612 203.983 23.156V1.34H194.875V3.644C194.875 4.868 194.851 6.08 194.803 7.28C194.755 8.456 194.695 9.548 194.623 10.556C194.575 11.564 194.503 12.452 194.407 13.22C194.335 13.988 194.263 14.588 194.191 15.02C193.999 16.196 193.747 17.444 193.435 18.764C193.123 20.084 192.691 21.296 192.139 22.4C191.587 23.48 190.891 24.38 190.051 25.1C189.211 25.82 188.155 26.18 186.883 26.18ZM230.16 23.156C230.16 23.612 230.256 24.008 230.448 24.344C230.664 24.656 230.892 24.932 231.132 25.172C231.42 25.436 231.744 25.652 232.104 25.82V26H226.776V25.82C226.824 25.82 226.944 25.772 227.136 25.676C227.352 25.556 227.58 25.388 227.82 25.172C228.06 24.956 228.264 24.68 228.432 24.344C228.624 24.008 228.72 23.612 228.72 23.156V4.688L212.88 23.156C212.88 23.612 212.976 24.008 213.168 24.344C213.384 24.656 213.612 24.932 213.852 25.172C214.14 25.436 214.464 25.652 214.824 25.82V26H209.496V25.82C209.544 25.82 209.664 25.772 209.856 25.676C210.072 25.556 210.3 25.388 210.54 25.172C210.78 24.956 210.984 24.68 211.152 24.344C211.344 24.008 211.44 23.612 211.44 23.156V3.644C211.44 3.188 211.344 2.792 211.152 2.456C210.984 2.12 210.78 1.844 210.54 1.628C210.3 1.412 210.072 1.256 209.856 1.16C209.664 1.04 209.544 0.979998 209.496 0.979998V0.799998H214.824V0.979998C214.464 1.148 214.14 1.364 213.852 1.628C213.612 1.844 213.384 2.12 213.168 2.456C212.976 2.792 212.88 3.188 212.88 3.644V22.112L228.72 3.644C228.72 3.188 228.624 2.792 228.432 2.456C228.264 2.12 228.06 1.844 227.82 1.628C227.58 1.412 227.352 1.256 227.136 1.16C226.944 1.04 226.824 0.979998 226.776 0.979998V0.799998H232.104V0.979998C231.744 1.148 231.42 1.364 231.132 1.628C230.892 1.844 230.664 2.12 230.448 2.456C230.256 2.792 230.16 3.188 230.16 3.644V23.156ZM236.827 23.156C236.827 23.612 236.947 24.008 237.187 24.344C237.451 24.656 237.739 24.932 238.051 25.172C238.387 25.436 238.783 25.652 239.239 25.82V26H233.911V25.82C233.959 25.82 234.103 25.772 234.343 25.676C234.607 25.556 234.883 25.388 235.171 25.172C235.459 24.956 235.711 24.68 235.927 24.344C236.167 24.008 236.287 23.612 236.287 23.156V3.644C236.287 3.188 236.167 2.792 235.927 2.456C235.711 2.12 235.459 1.844 235.171 1.628C234.883 1.412 234.607 1.256 234.343 1.16C234.103 1.04 233.959 0.979998 233.911 0.979998V0.799998H237.871L247.915 24.236L257.491 0.799998H260.875V0.979998C260.515 1.148 260.191 1.364 259.903 1.628C259.663 1.844 259.435 2.12 259.219 2.456C259.027 2.792 258.931 3.188 258.931 3.644V23.156C258.931 23.612 259.027 24.008 259.219 24.344C259.435 24.656 259.663 24.932 259.903 25.172C260.191 25.436 260.515 25.652 260.875 25.82V26H255.547V25.82C255.907 25.652 256.231 25.436 256.519 25.172C256.783 24.932 257.011 24.656 257.203 24.344C257.395 24.008 257.491 23.612 257.491 23.156V2.132L247.663 26.18H247.123L236.827 2.132V23.156ZM272.046 0.439999C273.702 0.439999 275.19 0.763999 276.51 1.412C277.854 2.036 278.994 2.924 279.93 4.076C280.866 5.228 281.586 6.596 282.09 8.18C282.594 9.764 282.846 11.504 282.846 13.4C282.846 15.296 282.594 17.036 282.09 18.62C281.586 20.204 280.866 21.572 279.93 22.724C278.994 23.876 277.854 24.776 276.51 25.424C275.19 26.048 273.702 26.36 272.046 26.36C270.39 26.36 268.89 26.048 267.546 25.424C266.226 24.776 265.098 23.876 264.162 22.724C263.226 21.572 262.506 20.204 262.002 18.62C261.498 17.036 261.246 15.296 261.246 13.4C261.246 11.504 261.498 9.764 262.002 8.18C262.506 6.596 263.226 5.228 264.162 4.076C265.098 2.924 266.226 2.036 267.546 1.412C268.89 0.763999 270.39 0.439999 272.046 0.439999ZM272.046 25.82C273.534 25.82 274.854 25.484 276.006 24.812C277.182 24.116 278.166 23.192 278.958 22.04C279.75 20.888 280.35 19.568 280.758 18.08C281.19 16.568 281.406 15.008 281.406 13.4C281.406 11.768 281.19 10.208 280.758 8.72C280.35 7.232 279.75 5.912 278.958 4.76C278.166 3.608 277.182 2.696 276.006 2.024C274.854 1.328 273.534 0.979998 272.046 0.979998C270.558 0.979998 269.226 1.328 268.05 2.024C266.898 2.696 265.926 3.608 265.134 4.76C264.342 5.912 263.73 7.232 263.298 8.72C262.89 10.208 262.686 11.768 262.686 13.4C262.686 15.008 262.89 16.568 263.298 18.08C263.73 19.568 264.342 20.888 265.134 22.04C265.926 23.192 266.898 24.116 268.05 24.812C269.226 25.484 270.558 25.82 272.046 25.82ZM285.479 3.644C285.479 3.356 285.419 3.068 285.299 2.78C285.179 2.492 285.023 2.228 284.831 1.988C284.663 1.724 284.459 1.508 284.219 1.34C284.003 1.148 283.775 1.028 283.535 0.979998V0.799998H291.023C293.567 0.799998 295.595 1.28 297.107 2.24C298.619 3.176 299.375 4.652 299.375 6.668C299.375 7.244 299.291 7.832 299.123 8.432C298.979 9.008 298.715 9.548 298.331 10.052C297.971 10.532 297.479 10.964 296.855 11.348C296.231 11.708 295.451 11.972 294.515 12.14C295.595 12.188 296.603 12.356 297.539 12.644C298.475 12.908 299.279 13.316 299.951 13.868C300.647 14.42 301.187 15.14 301.571 16.028C301.979 16.892 302.183 17.96 302.183 19.232C302.183 20.744 301.847 21.944 301.175 22.832C300.503 23.72 299.663 24.404 298.655 24.884C297.647 25.34 296.567 25.64 295.415 25.784C294.263 25.928 293.207 26 292.247 26H283.535V25.82C283.751 25.772 283.979 25.664 284.219 25.496C284.459 25.328 284.663 25.124 284.831 24.884C285.023 24.62 285.179 24.344 285.299 24.056C285.419 23.744 285.479 23.444 285.479 23.156V3.644ZM286.919 11.996C286.871 11.996 287.087 11.996 287.567 11.996C288.047 11.996 288.587 11.996 289.187 11.996C289.787 11.996 290.339 11.996 290.843 11.996C291.371 11.972 291.635 11.96 291.635 11.96C293.651 11.84 295.199 11.348 296.279 10.484C297.383 9.62 297.935 8.348 297.935 6.668C297.935 4.988 297.335 3.68 296.135 2.744C294.935 1.808 293.111 1.34 290.663 1.34H286.919V11.996ZM292.247 25.46C293.039 25.46 293.927 25.388 294.911 25.244C295.895 25.076 296.819 24.776 297.683 24.344C298.547 23.888 299.267 23.252 299.843 22.436C300.443 21.596 300.743 20.504 300.743 19.16C300.743 18.104 300.587 17.216 300.275 16.496C299.963 15.776 299.543 15.176 299.015 14.696C298.511 14.216 297.911 13.844 297.215 13.58C296.543 13.316 295.823 13.112 295.055 12.968C294.311 12.824 293.543 12.728 292.751 12.68C291.983 12.632 291.239 12.584 290.519 12.536H286.919V25.46H292.247ZM311.698 0.799998H313.138L320.842 23.156H319.402L311.698 0.799998ZM303.994 23.156L311.698 0.799998H312.418L304.714 23.156H303.994ZM304.714 23.156C304.57 23.612 304.57 24.008 304.714 24.344C304.858 24.656 305.062 24.932 305.326 25.172C305.614 25.436 305.974 25.652 306.406 25.82V26H301.078V25.82C301.126 25.82 301.27 25.772 301.51 25.676C301.774 25.556 302.062 25.388 302.374 25.172C302.686 24.956 302.998 24.68 303.31 24.344C303.622 24.008 303.85 23.612 303.994 23.156H304.714ZM320.842 23.156C320.986 23.612 321.214 24.008 321.526 24.344C321.838 24.68 322.15 24.956 322.462 25.172C322.774 25.388 323.05 25.556 323.29 25.676C323.554 25.772 323.71 25.82 323.758 25.82V26H318.43V25.82C318.718 25.652 318.958 25.436 319.15 25.172C319.318 24.932 319.438 24.656 319.51 24.344C319.606 24.008 319.57 23.612 319.402 23.156H320.842ZM307.09 15.272H316.99V15.812H307.09V15.272ZM310.726 3.644C310.918 3.092 310.906 2.648 310.69 2.312C310.474 1.976 310.198 1.712 309.862 1.52C309.55 1.304 309.226 1.16 308.89 1.088C308.578 1.016 308.398 0.979998 308.35 0.979998V0.799998H312.418L310.726 3.644Z" fill="black"/>
</svg>
