<?xml version="1.0" encoding="UTF-8"?>
<svg id="_Слой_1" data-name="Слой 1" xmlns="http://www.w3.org/2000/svg" viewBox="0 0 384 384">
  <defs>
    <style>
      .cls-1 {
        fill: #fefefe;
      }

      .cls-1, .cls-2, .cls-3, .cls-4, .cls-5, .cls-6, .cls-7 {
        stroke-width: 0px;
      }

      .cls-2 {
        fill: #ececec;
      }

      .cls-2, .cls-6, .cls-7 {
        opacity: 0;
      }

      .cls-3 {
        fill: #85c7ef;
      }

      .cls-4 {
        fill: #000000;
      }

      .cls-5 {
        fill: #ffcbc1;
      }

      .cls-6 {
        fill: #060606;
      }

      .cls-7 {
        fill: #f4f4f4;
      }
    </style>
  </defs>
  <path class="cls-1" d="m191.99,383.93c-62.96,0-125.92-.02-188.87.07-2.48,0-3.11-.38-3.11-3.03C.09,255.05.1,129.12,0,3.19,0,.34.77,0,3.32,0,129.11.07,254.91.07,380.7,0c2.6,0,3.31.4,3.3,3.21-.09,125.8-.09,251.6,0,377.4,0,2.94-.8,3.39-3.51,3.38-62.83-.08-125.67-.06-188.5-.06Zm-135.9-78.13c-.6,1.34-1.05,2.35-1.5,3.35-3.62,7.99-4,16.19-1.21,24.44,4.72,13.99,17.21,22.34,33.31,22.34,60.59.02,121.19.1,181.78-.07,11.26-.03,22.47.59,33.82-1.72,14.65-2.99,26.6-12.86,29.6-27.5,1.4-6.82.54-13.55-2.09-20.49,10.53,2.65,18.2-1.04,24.44-8.8,4.83-6.01,4.64-12.76-.98-18.01-4.2-3.92-8.8-7.44-12.75-11.59-3.28-3.44-6.72-4.49-11.01-2.81-2.06.81-3.44.14-4.96-1.26-6.8-6.26-13.67-12.45-20.59-18.58-1.92-1.7-3.25-3.6-4.08-6.07-4.91-14.59-10.91-28.79-15.03-43.68-2.58-9.33-6.76-18.21-9.73-27.45-5.31-16.51-15.88-27.5-32.36-33.11-8.27-2.81-16.27-6.42-24.63-9.76,7.46-7.74,11.51-16.48,11.55-26.86.04-9.74.22-19.5-.12-29.23-.68-19.2-15.9-34.23-35.7-35.64-18-1.29-35.29,12.13-38.64,30.26-1.76,9.52-.32,19.2-.81,28.79-.64,12.41,2.31,23.5,11.7,32.67-9.69,3.86-18.98,7.68-28.36,11.28-13.41,5.15-22.64,14.46-27.24,27.97-4.4,12.92-9.7,25.49-13.34,38.73-3.56,12.92-9.03,25.31-13.61,37.95-.45,1.24-1.16,2.15-2.11,3-7.25,6.51-14.52,13-21.68,19.61-1.64,1.51-3.06,1.97-5.31,1.41-2.63-.66-5.44-2.04-8.12.45-5.3,4.93-10.85,9.61-16.12,14.58-3.97,3.74-5.17,9.11-2.59,13.7,3.85,6.86,9.23,12.01,17.55,13.2,3.66.53,7.1-.5,10.93-1.11Z"/>
  <path class="cls-6" d="m56.09,305.81c-3.83.61-7.27,1.63-10.93,1.11-8.32-1.19-13.7-6.34-17.55-13.2-2.57-4.59-1.38-9.96,2.59-13.7,5.27-4.97,10.82-9.64,16.12-14.58,2.68-2.49,5.49-1.11,8.12-.45,2.25.56,3.67.1,5.31-1.41,7.16-6.61,14.43-13.1,21.68-19.61.94-.85,1.66-1.75,2.11-3,4.58-12.64,10.05-25.03,13.61-37.95,3.65-13.24,8.94-25.81,13.34-38.73,4.6-13.51,13.83-22.82,27.24-27.97,9.38-3.6,18.68-7.42,28.36-11.28-9.39-9.17-12.33-20.26-11.7-32.67.49-9.59-.94-19.27.81-28.79,3.34-18.13,20.63-31.54,38.64-30.26,19.81,1.42,35.02,16.45,35.7,35.64.34,9.73.16,19.49.12,29.23-.04,10.38-4.09,19.12-11.55,26.86,8.36,3.34,16.36,6.95,24.63,9.76,16.48,5.6,27.06,16.6,32.36,33.11,2.97,9.24,7.15,18.12,9.73,27.45,4.12,14.9,10.11,29.09,15.03,43.68.83,2.47,2.15,4.37,4.08,6.07,6.92,6.13,13.78,12.32,20.59,18.58,1.52,1.4,2.9,2.06,4.96,1.26,4.29-1.68,7.74-.62,11.01,2.81,3.95,4.15,8.55,7.67,12.75,11.59,5.63,5.25,5.82,12,.98,18.01-6.25,7.76-13.92,11.45-24.44,8.8,2.63,6.93,3.49,13.66,2.09,20.49-3,14.63-14.95,24.51-29.6,27.5-11.35,2.32-22.56,1.69-33.82,1.72-60.59.17-121.19.09-181.78.07-16.1,0-28.59-8.35-33.31-22.34-2.78-8.25-2.41-16.45,1.21-24.44.46-1.01.9-2.02,1.5-3.35Zm184.09-64.05c0-9.5,0-18.99,0-28.49,0-4.5-.02-9,.01-13.49.02-2.37,1-4.23,3.46-4.67,2.46-.44,3.99.91,4.79,3.2.7,2,1.52,3.95,2.14,5.98.6,1.99,1.48,2.33,3.51,1.54,6.73-2.61,13.52-5.07,20.36-7.37,2.34-.79,2.31-1.78,1.55-3.78-3.52-9.32-6.88-18.69-10.29-28.05-3.85-10.55-10.96-18-21.36-22.21-10.62-4.29-21.3-8.4-31.92-12.7-1.69-.68-2.98-.49-4.57.22-10.48,4.69-21.02,4.75-31.5.01-1.73-.78-3.13-.85-4.93-.12-10.5,4.25-21.08,8.28-31.59,12.52-9.85,3.98-16.99,10.84-20.81,20.8-3.83,9.99-7.35,20.11-11.1,30.13-.61,1.64-.49,2.3,1.3,2.93,7.17,2.5,14.28,5.16,21.39,7.83,1.51.57,2.25.16,2.74-1.3.71-2.13,1.56-4.2,2.28-6.33.77-2.28,2.23-3.74,4.71-3.34,2.64.43,3.63,2.37,3.6,4.92-.01.87,0,1.75,0,2.62,0,18.24,0,36.48,0,54.72q0,6.4,6.39,6.46c12.03.12,20.44,7.76,21.29,19.58.15,2.09.66,2.67,2.77,2.66,20.86-.14,41.72-.22,62.58-.16,2.64,0,3.3-.68,3.27-3.29-.14-13.62-.06-27.24-.06-40.85Zm-51.91,105.93c34.35,0,68.7,0,103.04,0,2.55,0,5.29.15,6.08-3.02.8-3.23-1.85-4.26-4.05-5.42-13.96-7.44-27.92-14.87-41.89-22.28-8.57-4.55-15.56-1.96-19.2,7.06-2,4.95-3.04,5.47-8.22,4.05-29.55-8.08-59.09-16.18-88.65-24.23-7.08-1.93-14.13-4.64-21.35-5.27-10.29-.9-20.72-.49-31.08-.14-15.21.52-26.13,15.48-22.41,30.24,3,11.88,12.55,18.99,25.79,19,33.97.04,67.95.01,101.92.01Zm117.65-3.21c.95-.24,1.58-.32,2.15-.55,11.54-4.68,18.16-16.95,15.74-29.18-2.36-11.92-12.97-20.71-25.49-20.71-41.6.02-83.19.18-124.79.24-8.29.01-10.52,1.54-10.16-9.65.24-7.39-5.05-12.48-12.44-12.52-15.74-.09-31.48-.07-47.22-.06-4.32,0-6.85,1.86-7.46,5.28-.59,3.28,1.43,6.05,5.44,7.38,39.86,13.24,80.7,23.06,121.07,34.51,1.59.45,2.3.11,3.19-1.43,6.44-11.2,17.61-14.33,29.11-8.25,13.65,7.22,27.21,14.63,40.94,21.71,5.56,2.86,9.87,6.32,9.92,13.23ZM221.36,86.75c0-7.23.17-12.23-.03-17.22-.64-15.68-13.79-28.15-29.4-28.03-15.85.12-28.89,12.84-29.18,28.67-.17,9.36-.16,18.73-.01,28.1.23,14.86,11.33,27.04,25.92,28.65,14.98,1.65,28.38-7.68,31.94-22.25,1.62-6.66.45-13.44.77-17.92Zm115.53,212c4.55.15,7.78-2.92,10.76-6.42,2.53-2.97,2.46-4.68-.44-7.33-3.69-3.37-7.54-6.55-11.11-10.04-1.93-1.89-3.82-2.55-6.33-1.6-3.81,1.44-6.75.34-9.72-2.49-7.69-7.31-15.67-14.31-23.59-21.37-1.63-1.46-2.71-3.11-3.45-5.19-4.32-12.06-8.83-24.06-13.12-36.13-.76-2.13-1.51-2.59-3.64-1.74-5.54,2.21-11.14,4.3-16.8,6.19-2.24.75-2.51,1.55-1.7,3.71,4.33,11.53,8.5,23.12,12.65,34.71.53,1.49,1.29,2.6,2.55,3.54,18.51,13.78,36.99,27.59,55.48,41.4,2.36,1.76,4.96,2.83,8.45,2.77Zm-288.37.03c2.52.1,5.33-1.4,7.98-3.39,10.78-8.08,21.57-16.14,32.39-24.17,2.49-1.85,4.21-4.54,7.12-5.99,5.95-2.97,10.73-7.65,16.15-11.4.91-.63,1.12-1.62,1.45-2.54,4.26-11.69,8.44-23.41,12.83-35.04.87-2.3.19-3.02-1.83-3.72-5.53-1.9-11.06-3.81-16.48-6.01-2.54-1.03-3.23-.26-4.05,2.07-4.09,11.62-8.43,23.15-12.55,34.75-.99,2.8-2.51,5.01-4.74,6.98-7.67,6.77-15.36,13.54-22.76,20.6-3,2.86-5.92,3.73-9.76,2.46-1.59-.53-3.27-1.11-4.89.4-4.3,3.99-8.72,7.85-13.05,11.8-1.02.93-1.87,1.97-1.41,3.57,1.38,4.86,7.53,9.55,13.61,9.63Zm200.67-81.83c-.25.04-.5.08-.75.12,0,22.06.05,44.12-.06,66.18-.01,2.78,1.41,2.57,3.25,2.57,14.85-.04,29.7-.04,44.55-.05,1.29,0,2.59,0,4.76,0-11.27-8.42-21.65-16.34-32.23-23.99-3.2-2.32-5.13-5.08-6.42-8.77-4.21-12.07-8.71-24.04-13.1-36.05Zm-113.5,0c-.19-.04-.39-.08-.58-.11-.33.77-.69,1.52-.97,2.3-3.75,10.28-7.55,20.53-11.2,30.84-1.8,5.09-3.51,10.15-8.84,12.77-.18.09-.15.61-.26,1.09,6.51,0,12.86-.09,19.21.05,2.2.05,2.7-.72,2.69-2.79-.08-14.72-.04-29.43-.04-44.15Zm-47.37,64.96c-3.78,2.8-7.27,5.39-10.73,7.95h15.98c-2.68-2.47-4.17-4.86-5.24-7.95Z"/>
  <path class="cls-3" d="m240.18,241.76c0,13.62-.07,27.24.06,40.85.03,2.61-.63,3.3-3.27,3.29-20.86-.06-41.72.02-62.58.16-2.11.01-2.62-.57-2.77-2.66-.85-11.82-9.26-19.46-21.29-19.58q-6.39-.06-6.39-6.46c0-18.24,0-36.48,0-54.72,0-.87-.01-1.75,0-2.62.03-2.55-.96-4.49-3.6-4.92-2.48-.4-3.93,1.06-4.71,3.34-.72,2.12-1.57,4.2-2.28,6.33-.48,1.46-1.23,1.87-2.74,1.3-7.11-2.67-14.22-5.34-21.39-7.83-1.8-.63-1.92-1.29-1.3-2.93,3.75-10.03,7.27-20.14,11.1-30.13,3.82-9.97,10.96-16.83,20.81-20.8,10.5-4.24,21.09-8.27,31.59-12.52,1.8-.73,3.2-.66,4.93.12,10.48,4.74,21.02,4.67,31.5-.01,1.59-.71,2.88-.91,4.57-.22,10.61,4.3,21.3,8.41,31.92,12.7,10.4,4.2,17.51,11.66,21.36,22.21,3.41,9.36,6.78,18.73,10.29,28.05.75,2,.78,2.99-1.55,3.78-6.84,2.3-13.64,4.76-20.36,7.37-2.02.79-2.9.45-3.51-1.54-.61-2.02-1.44-3.98-2.14-5.98-.8-2.29-2.33-3.64-4.79-3.2-2.46.44-3.44,2.3-3.46,4.67-.03,4.5-.01,9-.01,13.49,0,9.5,0,18.99,0,28.49Z"/>
  <path class="cls-5" d="m188.27,347.69c-33.97,0-67.95.02-101.92-.01-13.25-.01-22.79-7.12-25.79-19-3.73-14.76,7.2-29.73,22.41-30.24,10.35-.35,20.79-.76,31.08.14,7.21.63,14.26,3.34,21.35,5.27,29.56,8.05,59.1,16.15,88.65,24.23,5.18,1.42,6.22.9,8.22-4.05,3.64-9.02,10.62-11.6,19.2-7.06,13.97,7.41,27.93,14.85,41.89,22.28,2.19,1.17,4.85,2.19,4.05,5.42-.79,3.17-3.53,3.02-6.08,3.02-34.35,0-68.7,0-103.04,0Z"/>
  <path class="cls-5" d="m305.92,344.48c-.04-6.91-4.36-10.36-9.92-13.23-13.73-7.08-27.28-14.49-40.94-21.71-11.51-6.08-22.68-2.95-29.11,8.25-.88,1.54-1.6,1.88-3.19,1.43-40.37-11.45-81.21-21.27-121.07-34.51-4.01-1.33-6.03-4.11-5.44-7.38.61-3.42,3.14-5.28,7.46-5.28,15.74-.01,31.48-.03,47.22.06,7.39.04,12.68,5.13,12.44,12.52-.36,11.18,1.87,9.66,10.16,9.65,41.6-.06,83.19-.22,124.79-.24,12.52,0,23.13,8.78,25.49,20.71,2.42,12.23-4.2,24.51-15.74,29.18-.57.23-1.2.31-2.15.55Z"/>
  <path class="cls-5" d="m221.36,86.75c-.31,4.48.86,11.26-.77,17.92-3.56,14.57-16.96,23.9-31.94,22.25-14.59-1.61-25.69-13.79-25.92-28.65-.14-9.36-.16-18.73.01-28.1.29-15.83,13.34-28.55,29.18-28.67,15.61-.12,28.76,12.36,29.4,28.03.2,4.99.03,9.99.03,17.22Z"/>
  <path class="cls-5" d="m336.89,298.75c-3.49.06-6.09-1.01-8.45-2.77-18.49-13.8-36.98-27.62-55.48-41.4-1.26-.93-2.02-2.05-2.55-3.54-4.15-11.6-8.33-23.18-12.65-34.71-.81-2.16-.53-2.96,1.7-3.71,5.66-1.89,11.26-3.98,16.8-6.19,2.13-.85,2.88-.38,3.64,1.74,4.29,12.07,8.8,24.07,13.12,36.13.74,2.08,1.82,3.73,3.45,5.19,7.92,7.07,15.9,14.07,23.59,21.37,2.98,2.83,5.91,3.93,9.72,2.49,2.51-.95,4.4-.29,6.33,1.6,3.56,3.49,7.42,6.68,11.11,10.04,2.9,2.65,2.97,4.36.44,7.33-2.98,3.5-6.2,6.56-10.76,6.42Z"/>
  <path class="cls-5" d="m48.52,298.79c-6.07-.08-12.22-4.76-13.61-9.63-.45-1.6.39-2.65,1.41-3.57,4.34-3.95,8.76-7.81,13.05-11.8,1.62-1.51,3.3-.93,4.89-.4,3.84,1.27,6.76.4,9.76-2.46,7.4-7.06,15.09-13.83,22.76-20.6,2.22-1.96,3.74-4.18,4.74-6.98,4.12-11.61,8.47-23.13,12.55-34.75.82-2.33,1.51-3.1,4.05-2.07,5.41,2.2,10.95,4.11,16.48,6.01,2.01.69,2.69,1.42,1.83,3.72-4.39,11.64-8.57,23.36-12.83,35.04-.34.92-.54,1.91-1.45,2.54-5.42,3.75-10.2,8.44-16.15,11.4-2.91,1.45-4.62,4.14-7.12,5.99-10.82,8.03-21.61,16.09-32.39,24.17-2.65,1.99-5.46,3.49-7.98,3.39Z"/>
  <path class="cls-4" d="m249.19,216.95c4.39,12.01,8.89,23.98,13.1,36.05,1.29,3.7,3.22,6.46,6.42,8.77,10.58,7.65,20.96,15.57,32.23,23.99-2.17,0-3.47,0-4.76,0-14.85.01-29.7.01-44.55.05-1.84,0-3.26.21-3.25-2.57.11-22.06.06-44.12.06-66.18.25-.04.5-.08.75-.12Z"/>
  <path class="cls-7" d="m135.69,216.96c0,14.72-.04,29.43.04,44.15.01,2.07-.49,2.83-2.69,2.79-6.35-.14-12.7-.05-19.21-.05.11-.48.08-1,.26-1.09,5.33-2.62,7.04-7.68,8.84-12.77,3.65-10.31,7.45-20.57,11.2-30.84.28-.78.65-1.53.97-2.3.19.04.39.08.58.11Z"/>
  <path class="cls-2" d="m88.33,281.92c1.07,3.08,2.57,5.48,5.24,7.95h-15.98c3.46-2.56,6.95-5.15,10.73-7.95Z"/>
</svg>